M48
; DRILL file {KiCad 9.0.2} date 2025-12-24T14:08:25+0200
; FORMAT={-:-/ absolute / inch / decimal}
; #@! TF.CreationDate,2025-12-24T14:08:25+02:00
; #@! TF.GenerationSoftware,Kicad,Pcbnew,9.0.2
; #@! TF.FileFunction,Plated,1,4,PTH
FMAT,2
INCH
; #@! TA.AperFunction,Plated,PTH,ViaDrill
T1C0.0157
; #@! TA.AperFunction,Plated,PTH,ComponentDrill
T2C0.0394
%
G90
G05
T1
X3.8Y-3.14
X3.9Y-3.16
X4.1Y-3.64
X4.16Y-3.32
X4.42Y-2.68
X4.42Y-3.18
X4.5Y-3.35
X4.5Y-3.96
X4.58Y-3.64
X4.7285Y-3.1359
X4.82Y-3.24
X4.82Y-3.44
X4.88Y-2.6
X4.92Y-3.3
X4.95Y-3.5
X5.18Y-2.86
X5.18Y-3.68
X5.26Y-3.56
X5.4Y-3.68
X5.5Y-3.68
X5.56Y-3.96
X5.84Y-2.84
X5.88Y-3.54
X5.9Y-3.7
X5.94Y-2.9
X5.96Y-3.96
X6.08Y-3.48
X6.08Y-4.3
X6.1Y-4.18
X6.18Y-2.86
X6.2Y-3.54
X6.24Y-3.24
X6.24Y-3.86
X6.28Y-3.54
X6.38Y-3.3
X6.4Y-3.22
X6.46Y-3.88
X6.5Y-3.64
X6.66Y-3.68
T2
X4.4894Y-3.0
X4.4982Y-2.8
X4.5894Y-3.0
X4.5982Y-2.8
X4.6894Y-3.0
X4.6982Y-2.8
X5.085Y-2.58
X5.085Y-2.68
X5.085Y-2.78
X5.655Y-2.58
X5.655Y-2.68
X5.655Y-2.78
M30
