%TF.GenerationSoftware,KiCad,Pcbnew,9.0.2*%
%TF.CreationDate,2025-12-24T14:08:25+02:00*%
%TF.ProjectId,party_line,70617274-795f-46c6-996e-652e6b696361,rev?*%
%TF.SameCoordinates,Original*%
%TF.FileFunction,Profile,NP*%
%FSLAX46Y46*%
G04 Gerber Fmt 4.6, Leading zero omitted, Abs format (unit mm)*
G04 Created by KiCad (PCBNEW 9.0.2) date 2025-12-24 14:08:25*
%MOMM*%
%LPD*%
G01*
G04 APERTURE LIST*
%TA.AperFunction,Profile*%
%ADD10C,0.200000*%
%TD*%
%TA.AperFunction,Profile*%
%ADD11C,0.100000*%
%TD*%
%TA.AperFunction,Profile*%
%ADD12C,0.050000*%
%TD*%
G04 APERTURE END LIST*
D10*
X175590000Y-63500000D02*
G75*
G02*
X172390000Y-63500000I-1600000J0D01*
G01*
X172390000Y-63500000D02*
G75*
G02*
X175590000Y-63500000I1600000J0D01*
G01*
X95580000Y-63500000D02*
G75*
G02*
X92380000Y-63500000I-1600000J0D01*
G01*
X92380000Y-63500000D02*
G75*
G02*
X95580000Y-63500000I1600000J0D01*
G01*
X95580000Y-109220000D02*
G75*
G02*
X92380000Y-109220000I-1600000J0D01*
G01*
X92380000Y-109220000D02*
G75*
G02*
X95580000Y-109220000I1600000J0D01*
G01*
X175590000Y-109220000D02*
G75*
G02*
X172390000Y-109220000I-1600000J0D01*
G01*
X172390000Y-109220000D02*
G75*
G02*
X175590000Y-109220000I1600000J0D01*
G01*
D11*
X176530000Y-60960000D02*
X176530000Y-111760000D01*
X91440000Y-60960000D02*
X176530000Y-60960000D01*
X91440000Y-111760000D02*
X91440000Y-60960000D01*
X91440000Y-111760000D02*
X176530000Y-111760000D01*
D12*
%TO.C,J1*%
X174330000Y-86360000D02*
G75*
G02*
X173130000Y-86360000I-600000J0D01*
G01*
X173130000Y-86360000D02*
G75*
G02*
X174330000Y-86360000I600000J0D01*
G01*
X167330000Y-86360000D02*
G75*
G02*
X166130000Y-86360000I-600000J0D01*
G01*
X166130000Y-86360000D02*
G75*
G02*
X167330000Y-86360000I600000J0D01*
G01*
%TO.C,J4*%
X121250000Y-108960000D02*
G75*
G02*
X120050000Y-108960000I-600000J0D01*
G01*
X120050000Y-108960000D02*
G75*
G02*
X121250000Y-108960000I600000J0D01*
G01*
X121250000Y-101960000D02*
G75*
G02*
X120050000Y-101960000I-600000J0D01*
G01*
X120050000Y-101960000D02*
G75*
G02*
X121250000Y-101960000I600000J0D01*
G01*
%TO.C,J3*%
X147920000Y-108960000D02*
G75*
G02*
X146720000Y-108960000I-600000J0D01*
G01*
X146720000Y-108960000D02*
G75*
G02*
X147920000Y-108960000I600000J0D01*
G01*
X147920000Y-101960000D02*
G75*
G02*
X146720000Y-101960000I-600000J0D01*
G01*
X146720000Y-101960000D02*
G75*
G02*
X147920000Y-101960000I600000J0D01*
G01*
%TO.C,J2*%
X94840000Y-86360000D02*
G75*
G02*
X93640000Y-86360000I-600000J0D01*
G01*
X93640000Y-86360000D02*
G75*
G02*
X94840000Y-86360000I600000J0D01*
G01*
X101840000Y-86360000D02*
G75*
G02*
X100640000Y-86360000I-600000J0D01*
G01*
X100640000Y-86360000D02*
G75*
G02*
X101840000Y-86360000I600000J0D01*
G01*
%TD*%
M02*
