%TF.GenerationSoftware,KiCad,Pcbnew,9.0.2*%
%TF.CreationDate,2025-12-24T14:08:25+02:00*%
%TF.ProjectId,party_line,70617274-795f-46c6-996e-652e6b696361,rev?*%
%TF.SameCoordinates,Original*%
%TF.FileFunction,Copper,L2,Inr*%
%TF.FilePolarity,Positive*%
%FSLAX46Y46*%
G04 Gerber Fmt 4.6, Leading zero omitted, Abs format (unit mm)*
G04 Created by KiCad (PCBNEW 9.0.2) date 2025-12-24 14:08:25*
%MOMM*%
%LPD*%
G01*
G04 APERTURE LIST*
%TA.AperFunction,ComponentPad*%
%ADD10R,1.700000X1.700000*%
%TD*%
%TA.AperFunction,ComponentPad*%
%ADD11C,1.700000*%
%TD*%
%TA.AperFunction,ViaPad*%
%ADD12C,0.800000*%
%TD*%
G04 APERTURE END LIST*
D10*
%TO.N,Net-(SW1-B)*%
%TO.C,RV3*%
X119110000Y-76200000D03*
D11*
%TO.N,Net-(U2--)*%
X116570000Y-76200000D03*
%TO.N,GND*%
X114030000Y-76200000D03*
%TD*%
D10*
%TO.N,PIn_B*%
%TO.C,SW2*%
X129159000Y-70612000D03*
D11*
%TO.N,Net-(SW2-B)*%
X129159000Y-68072000D03*
%TO.N,PIn_A*%
X129159000Y-65532000D03*
%TD*%
D10*
%TO.N,Net-(C7-Pad2)*%
%TO.C,RV2*%
X143637000Y-65532000D03*
D11*
%TO.N,Net-(U2-+)*%
X143637000Y-68072000D03*
%TO.N,GND*%
X143637000Y-70612000D03*
%TD*%
D10*
%TO.N,Net-(SW1-A)*%
%TO.C,SW1*%
X119335000Y-71120000D03*
D11*
%TO.N,Net-(SW1-B)*%
X116795000Y-71120000D03*
%TO.N,Net-(SW1-C)*%
X114255000Y-71120000D03*
%TD*%
D12*
%TO.N,GND*%
X131572000Y-72644000D03*
X131572000Y-93472000D03*
X162560000Y-81788000D03*
%TO.N,PBus*%
X165100000Y-92456000D03*
%TO.N,IBus*%
X169164000Y-93472000D03*
%TO.N,PIn_A*%
X137160000Y-93472000D03*
%TO.N,PIn_B*%
X139700000Y-93472000D03*
%TO.N,GND*%
X141224000Y-100584000D03*
X151384000Y-100584000D03*
X114300000Y-100584000D03*
X104140000Y-92456000D03*
%TO.N,PBus*%
X105664000Y-84328000D03*
%TO.N,IBus*%
X99060000Y-80264000D03*
%TO.N,+12V*%
X96520000Y-79756000D03*
%TO.N,VCC*%
X158496000Y-82296000D03*
X154940000Y-106172000D03*
%TO.N,Net-(C3-Pad2)*%
X150876000Y-73660000D03*
X123952000Y-66040000D03*
%TO.N,+12V*%
X122428000Y-82296000D03*
X154432000Y-109220000D03*
%TO.N,Net-(U2-+)*%
X122428000Y-87376000D03*
X133604000Y-90424000D03*
%TO.N,GND*%
X120103500Y-79651500D03*
X156972000Y-72644000D03*
X159512000Y-89916000D03*
X158496000Y-98044000D03*
X164084000Y-98552000D03*
X162052000Y-83820000D03*
X154432000Y-88392000D03*
X157480000Y-89916000D03*
X149352000Y-89916000D03*
X149860000Y-93980000D03*
X148336000Y-72136000D03*
X112268000Y-68072000D03*
X112268000Y-80772000D03*
X114300000Y-85090000D03*
X125730000Y-88900000D03*
%TO.N,Net-(C12-Pad2)*%
X116332000Y-92456000D03*
X124968000Y-83820000D03*
%TD*%
%TA.AperFunction,Conductor*%
%TO.N,GND*%
G36*
X176472539Y-60980185D02*
G01*
X176518294Y-61032989D01*
X176529500Y-61084500D01*
X176529500Y-111635500D01*
X176509815Y-111702539D01*
X176457011Y-111748294D01*
X176405500Y-111759500D01*
X91564500Y-111759500D01*
X91497461Y-111739815D01*
X91451706Y-111687011D01*
X91440500Y-111635500D01*
X91440500Y-109094038D01*
X92379500Y-109094038D01*
X92379500Y-109094505D01*
X92379500Y-109345962D01*
X92406998Y-109519576D01*
X92418910Y-109594785D01*
X92496760Y-109834383D01*
X92611132Y-110058848D01*
X92759201Y-110262649D01*
X92759205Y-110262654D01*
X92937345Y-110440794D01*
X92937350Y-110440798D01*
X93115117Y-110569952D01*
X93141155Y-110588870D01*
X93284184Y-110661747D01*
X93365616Y-110703239D01*
X93365618Y-110703239D01*
X93365621Y-110703241D01*
X93605215Y-110781090D01*
X93854038Y-110820500D01*
X93854039Y-110820500D01*
X94105961Y-110820500D01*
X94105962Y-110820500D01*
X94354785Y-110781090D01*
X94594379Y-110703241D01*
X94818845Y-110588870D01*
X95022656Y-110440793D01*
X95200793Y-110262656D01*
X95348870Y-110058845D01*
X95463241Y-109834379D01*
X95541090Y-109594785D01*
X95580500Y-109345962D01*
X95580500Y-109094038D01*
X95546749Y-108880943D01*
X120049500Y-108880943D01*
X120049500Y-108881750D01*
X120049500Y-109039057D01*
X120089790Y-109189419D01*
X120090423Y-109191783D01*
X120090426Y-109191790D01*
X120169475Y-109328709D01*
X120169479Y-109328714D01*
X120169480Y-109328716D01*
X120281284Y-109440520D01*
X120281286Y-109440521D01*
X120281290Y-109440524D01*
X120354285Y-109482667D01*
X120418216Y-109519577D01*
X120570943Y-109560500D01*
X120570945Y-109560500D01*
X120729055Y-109560500D01*
X120729057Y-109560500D01*
X120881784Y-109519577D01*
X121018716Y-109440520D01*
X121130520Y-109328716D01*
X121209577Y-109191784D01*
X121250500Y-109039057D01*
X121250500Y-108880943D01*
X146719500Y-108880943D01*
X146719500Y-108881750D01*
X146719500Y-109039057D01*
X146759790Y-109189419D01*
X146760423Y-109191783D01*
X146760426Y-109191790D01*
X146839475Y-109328709D01*
X146839479Y-109328714D01*
X146839480Y-109328716D01*
X146951284Y-109440520D01*
X146951286Y-109440521D01*
X146951290Y-109440524D01*
X147024285Y-109482667D01*
X147088216Y-109519577D01*
X147240943Y-109560500D01*
X147240945Y-109560500D01*
X147399055Y-109560500D01*
X147399057Y-109560500D01*
X147551784Y-109519577D01*
X147688716Y-109440520D01*
X147800520Y-109328716D01*
X147879577Y-109191784D01*
X147895783Y-109131304D01*
X153531500Y-109131304D01*
X153531500Y-109308695D01*
X153566103Y-109482658D01*
X153566106Y-109482667D01*
X153633983Y-109646540D01*
X153633990Y-109646553D01*
X153732535Y-109794034D01*
X153732538Y-109794038D01*
X153857961Y-109919461D01*
X153857965Y-109919464D01*
X154005446Y-110018009D01*
X154005459Y-110018016D01*
X154096525Y-110055736D01*
X154169334Y-110085894D01*
X154169336Y-110085894D01*
X154169341Y-110085896D01*
X154343304Y-110120499D01*
X154343307Y-110120500D01*
X154343309Y-110120500D01*
X154520693Y-110120500D01*
X154520694Y-110120499D01*
X154578682Y-110108964D01*
X154694658Y-110085896D01*
X154694661Y-110085894D01*
X154694666Y-110085894D01*
X154858547Y-110018013D01*
X155006035Y-109919464D01*
X155131464Y-109794035D01*
X155230013Y-109646547D01*
X155297894Y-109482666D01*
X155306278Y-109440520D01*
X155325179Y-109345495D01*
X155332500Y-109308691D01*
X155332500Y-109131309D01*
X155328929Y-109113356D01*
X155328929Y-109113353D01*
X155325087Y-109094038D01*
X172389500Y-109094038D01*
X172389500Y-109094505D01*
X172389500Y-109345962D01*
X172416998Y-109519576D01*
X172428910Y-109594785D01*
X172506760Y-109834383D01*
X172621132Y-110058848D01*
X172769201Y-110262649D01*
X172769205Y-110262654D01*
X172947345Y-110440794D01*
X172947350Y-110440798D01*
X173125117Y-110569952D01*
X173151155Y-110588870D01*
X173294184Y-110661747D01*
X173375616Y-110703239D01*
X173375618Y-110703239D01*
X173375621Y-110703241D01*
X173615215Y-110781090D01*
X173864038Y-110820500D01*
X173864039Y-110820500D01*
X174115961Y-110820500D01*
X174115962Y-110820500D01*
X174364785Y-110781090D01*
X174604379Y-110703241D01*
X174828845Y-110588870D01*
X175032656Y-110440793D01*
X175210793Y-110262656D01*
X175358870Y-110058845D01*
X175473241Y-109834379D01*
X175551090Y-109594785D01*
X175590500Y-109345962D01*
X175590500Y-109094038D01*
X175551090Y-108845215D01*
X175473241Y-108605621D01*
X175473239Y-108605618D01*
X175473239Y-108605616D01*
X175411468Y-108484385D01*
X175358870Y-108381155D01*
X175314075Y-108319500D01*
X175210798Y-108177350D01*
X175210794Y-108177345D01*
X175032654Y-107999205D01*
X175032649Y-107999201D01*
X174828848Y-107851132D01*
X174828847Y-107851131D01*
X174828845Y-107851130D01*
X174758747Y-107815413D01*
X174604383Y-107736760D01*
X174364785Y-107658910D01*
X174115962Y-107619500D01*
X173864038Y-107619500D01*
X173739626Y-107639205D01*
X173615214Y-107658910D01*
X173375616Y-107736760D01*
X173151151Y-107851132D01*
X172947350Y-107999201D01*
X172947345Y-107999205D01*
X172769205Y-108177345D01*
X172769201Y-108177350D01*
X172621132Y-108381151D01*
X172506760Y-108605616D01*
X172428910Y-108845214D01*
X172398208Y-109039056D01*
X172389500Y-109094038D01*
X155325087Y-109094038D01*
X155297895Y-108957340D01*
X155297894Y-108957334D01*
X155270921Y-108892214D01*
X155230016Y-108793459D01*
X155230009Y-108793446D01*
X155131464Y-108645965D01*
X155131461Y-108645961D01*
X155006038Y-108520538D01*
X155006034Y-108520535D01*
X154858553Y-108421990D01*
X154858540Y-108421983D01*
X154694667Y-108354106D01*
X154694658Y-108354103D01*
X154520694Y-108319500D01*
X154520691Y-108319500D01*
X154343309Y-108319500D01*
X154343306Y-108319500D01*
X154169341Y-108354103D01*
X154169332Y-108354106D01*
X154005459Y-108421983D01*
X154005446Y-108421990D01*
X153857965Y-108520535D01*
X153857961Y-108520538D01*
X153732538Y-108645961D01*
X153732535Y-108645965D01*
X153633990Y-108793446D01*
X153633983Y-108793459D01*
X153566106Y-108957332D01*
X153566103Y-108957341D01*
X153531500Y-109131304D01*
X147895783Y-109131304D01*
X147920500Y-109039057D01*
X147920500Y-108880943D01*
X147879577Y-108728216D01*
X147832090Y-108645965D01*
X147800524Y-108591290D01*
X147800518Y-108591282D01*
X147688717Y-108479481D01*
X147688709Y-108479475D01*
X147551790Y-108400426D01*
X147551786Y-108400424D01*
X147551784Y-108400423D01*
X147399057Y-108359500D01*
X147240943Y-108359500D01*
X147088216Y-108400423D01*
X147088209Y-108400426D01*
X146951290Y-108479475D01*
X146951282Y-108479481D01*
X146839481Y-108591282D01*
X146839475Y-108591290D01*
X146760426Y-108728209D01*
X146760423Y-108728216D01*
X146719500Y-108880943D01*
X121250500Y-108880943D01*
X121209577Y-108728216D01*
X121162090Y-108645965D01*
X121130524Y-108591290D01*
X121130518Y-108591282D01*
X121018717Y-108479481D01*
X121018709Y-108479475D01*
X120881790Y-108400426D01*
X120881786Y-108400424D01*
X120881784Y-108400423D01*
X120729057Y-108359500D01*
X120570943Y-108359500D01*
X120418216Y-108400423D01*
X120418209Y-108400426D01*
X120281290Y-108479475D01*
X120281282Y-108479481D01*
X120169481Y-108591282D01*
X120169475Y-108591290D01*
X120090426Y-108728209D01*
X120090423Y-108728216D01*
X120049500Y-108880943D01*
X95546749Y-108880943D01*
X95541090Y-108845215D01*
X95463241Y-108605621D01*
X95463239Y-108605618D01*
X95463239Y-108605616D01*
X95401468Y-108484385D01*
X95348870Y-108381155D01*
X95304075Y-108319500D01*
X95200798Y-108177350D01*
X95200794Y-108177345D01*
X95022654Y-107999205D01*
X95022649Y-107999201D01*
X94818848Y-107851132D01*
X94818847Y-107851131D01*
X94818845Y-107851130D01*
X94748747Y-107815413D01*
X94594383Y-107736760D01*
X94354785Y-107658910D01*
X94105962Y-107619500D01*
X93854038Y-107619500D01*
X93729626Y-107639205D01*
X93605214Y-107658910D01*
X93365616Y-107736760D01*
X93141151Y-107851132D01*
X92937350Y-107999201D01*
X92937345Y-107999205D01*
X92759205Y-108177345D01*
X92759201Y-108177350D01*
X92611132Y-108381151D01*
X92496760Y-108605616D01*
X92418910Y-108845214D01*
X92388208Y-109039056D01*
X92379500Y-109094038D01*
X91440500Y-109094038D01*
X91440500Y-106083304D01*
X154039500Y-106083304D01*
X154039500Y-106260695D01*
X154074103Y-106434658D01*
X154074106Y-106434667D01*
X154141983Y-106598540D01*
X154141990Y-106598553D01*
X154240535Y-106746034D01*
X154240538Y-106746038D01*
X154365961Y-106871461D01*
X154365965Y-106871464D01*
X154513446Y-106970009D01*
X154513459Y-106970016D01*
X154636363Y-107020923D01*
X154677334Y-107037894D01*
X154677336Y-107037894D01*
X154677341Y-107037896D01*
X154851304Y-107072499D01*
X154851307Y-107072500D01*
X154851309Y-107072500D01*
X155028693Y-107072500D01*
X155028694Y-107072499D01*
X155086682Y-107060964D01*
X155202658Y-107037896D01*
X155202661Y-107037894D01*
X155202666Y-107037894D01*
X155366547Y-106970013D01*
X155514035Y-106871464D01*
X155639464Y-106746035D01*
X155738013Y-106598547D01*
X155805894Y-106434666D01*
X155840500Y-106260691D01*
X155840500Y-106083309D01*
X155840500Y-106083306D01*
X155840499Y-106083304D01*
X155805896Y-105909341D01*
X155805893Y-105909332D01*
X155738016Y-105745459D01*
X155738009Y-105745446D01*
X155639464Y-105597965D01*
X155639461Y-105597961D01*
X155514038Y-105472538D01*
X155514034Y-105472535D01*
X155366553Y-105373990D01*
X155366540Y-105373983D01*
X155202667Y-105306106D01*
X155202658Y-105306103D01*
X155028694Y-105271500D01*
X155028691Y-105271500D01*
X154851309Y-105271500D01*
X154851306Y-105271500D01*
X154677341Y-105306103D01*
X154677332Y-105306106D01*
X154513459Y-105373983D01*
X154513446Y-105373990D01*
X154365965Y-105472535D01*
X154365961Y-105472538D01*
X154240538Y-105597961D01*
X154240535Y-105597965D01*
X154141990Y-105745446D01*
X154141983Y-105745459D01*
X154074106Y-105909332D01*
X154074103Y-105909341D01*
X154039500Y-106083304D01*
X91440500Y-106083304D01*
X91440500Y-101880943D01*
X120049500Y-101880943D01*
X120049500Y-101881750D01*
X120049500Y-102039057D01*
X120089790Y-102189419D01*
X120090423Y-102191783D01*
X120090426Y-102191790D01*
X120169475Y-102328709D01*
X120169479Y-102328714D01*
X120169480Y-102328716D01*
X120281284Y-102440520D01*
X120281286Y-102440521D01*
X120281290Y-102440524D01*
X120408324Y-102513866D01*
X120418216Y-102519577D01*
X120570943Y-102560500D01*
X120570945Y-102560500D01*
X120729055Y-102560500D01*
X120729057Y-102560500D01*
X120881784Y-102519577D01*
X121018716Y-102440520D01*
X121130520Y-102328716D01*
X121209577Y-102191784D01*
X121250500Y-102039057D01*
X121250500Y-101880943D01*
X146719500Y-101880943D01*
X146719500Y-101881750D01*
X146719500Y-102039057D01*
X146759790Y-102189419D01*
X146760423Y-102191783D01*
X146760426Y-102191790D01*
X146839475Y-102328709D01*
X146839479Y-102328714D01*
X146839480Y-102328716D01*
X146951284Y-102440520D01*
X146951286Y-102440521D01*
X146951290Y-102440524D01*
X147078324Y-102513866D01*
X147088216Y-102519577D01*
X147240943Y-102560500D01*
X147240945Y-102560500D01*
X147399055Y-102560500D01*
X147399057Y-102560500D01*
X147551784Y-102519577D01*
X147688716Y-102440520D01*
X147800520Y-102328716D01*
X147879577Y-102191784D01*
X147920500Y-102039057D01*
X147920500Y-101880943D01*
X147879577Y-101728216D01*
X147879573Y-101728209D01*
X147800524Y-101591290D01*
X147800518Y-101591282D01*
X147688717Y-101479481D01*
X147688709Y-101479475D01*
X147551790Y-101400426D01*
X147551786Y-101400424D01*
X147551784Y-101400423D01*
X147399057Y-101359500D01*
X147240943Y-101359500D01*
X147088216Y-101400423D01*
X147088209Y-101400426D01*
X146951290Y-101479475D01*
X146951282Y-101479481D01*
X146839481Y-101591282D01*
X146839475Y-101591290D01*
X146760426Y-101728209D01*
X146760423Y-101728216D01*
X146719500Y-101880943D01*
X121250500Y-101880943D01*
X121209577Y-101728216D01*
X121209573Y-101728209D01*
X121130524Y-101591290D01*
X121130518Y-101591282D01*
X121018717Y-101479481D01*
X121018709Y-101479475D01*
X120881790Y-101400426D01*
X120881786Y-101400424D01*
X120881784Y-101400423D01*
X120729057Y-101359500D01*
X120570943Y-101359500D01*
X120418216Y-101400423D01*
X120418209Y-101400426D01*
X120281290Y-101479475D01*
X120281282Y-101479481D01*
X120169481Y-101591282D01*
X120169475Y-101591290D01*
X120090426Y-101728209D01*
X120090423Y-101728216D01*
X120049500Y-101880943D01*
X91440500Y-101880943D01*
X91440500Y-93383304D01*
X136259500Y-93383304D01*
X136259500Y-93560695D01*
X136294103Y-93734658D01*
X136294106Y-93734667D01*
X136361983Y-93898540D01*
X136361990Y-93898553D01*
X136460535Y-94046034D01*
X136460538Y-94046038D01*
X136585961Y-94171461D01*
X136585965Y-94171464D01*
X136733446Y-94270009D01*
X136733459Y-94270016D01*
X136856363Y-94320923D01*
X136897334Y-94337894D01*
X136897336Y-94337894D01*
X136897341Y-94337896D01*
X137071304Y-94372499D01*
X137071307Y-94372500D01*
X137071309Y-94372500D01*
X137248693Y-94372500D01*
X137248694Y-94372499D01*
X137306682Y-94360964D01*
X137422658Y-94337896D01*
X137422661Y-94337894D01*
X137422666Y-94337894D01*
X137586547Y-94270013D01*
X137734035Y-94171464D01*
X137859464Y-94046035D01*
X137958013Y-93898547D01*
X138025894Y-93734666D01*
X138060500Y-93560691D01*
X138060500Y-93383309D01*
X138060500Y-93383306D01*
X138060499Y-93383304D01*
X138799500Y-93383304D01*
X138799500Y-93560695D01*
X138834103Y-93734658D01*
X138834106Y-93734667D01*
X138901983Y-93898540D01*
X138901990Y-93898553D01*
X139000535Y-94046034D01*
X139000538Y-94046038D01*
X139125961Y-94171461D01*
X139125965Y-94171464D01*
X139273446Y-94270009D01*
X139273459Y-94270016D01*
X139396363Y-94320923D01*
X139437334Y-94337894D01*
X139437336Y-94337894D01*
X139437341Y-94337896D01*
X139611304Y-94372499D01*
X139611307Y-94372500D01*
X139611309Y-94372500D01*
X139788693Y-94372500D01*
X139788694Y-94372499D01*
X139846682Y-94360964D01*
X139962658Y-94337896D01*
X139962661Y-94337894D01*
X139962666Y-94337894D01*
X140126547Y-94270013D01*
X140274035Y-94171464D01*
X140399464Y-94046035D01*
X140498013Y-93898547D01*
X140565894Y-93734666D01*
X140600500Y-93560691D01*
X140600500Y-93383309D01*
X140600500Y-93383306D01*
X140600499Y-93383304D01*
X168263500Y-93383304D01*
X168263500Y-93560695D01*
X168298103Y-93734658D01*
X168298106Y-93734667D01*
X168365983Y-93898540D01*
X168365990Y-93898553D01*
X168464535Y-94046034D01*
X168464538Y-94046038D01*
X168589961Y-94171461D01*
X168589965Y-94171464D01*
X168737446Y-94270009D01*
X168737459Y-94270016D01*
X168860363Y-94320923D01*
X168901334Y-94337894D01*
X168901336Y-94337894D01*
X168901341Y-94337896D01*
X169075304Y-94372499D01*
X169075307Y-94372500D01*
X169075309Y-94372500D01*
X169252693Y-94372500D01*
X169252694Y-94372499D01*
X169310682Y-94360964D01*
X169426658Y-94337896D01*
X169426661Y-94337894D01*
X169426666Y-94337894D01*
X169590547Y-94270013D01*
X169738035Y-94171464D01*
X169863464Y-94046035D01*
X169962013Y-93898547D01*
X170029894Y-93734666D01*
X170064500Y-93560691D01*
X170064500Y-93383309D01*
X170064500Y-93383306D01*
X170064499Y-93383304D01*
X170029896Y-93209341D01*
X170029893Y-93209332D01*
X169962016Y-93045459D01*
X169962009Y-93045446D01*
X169863464Y-92897965D01*
X169863461Y-92897961D01*
X169738038Y-92772538D01*
X169738034Y-92772535D01*
X169590553Y-92673990D01*
X169590540Y-92673983D01*
X169426667Y-92606106D01*
X169426658Y-92606103D01*
X169252694Y-92571500D01*
X169252691Y-92571500D01*
X169075309Y-92571500D01*
X169075306Y-92571500D01*
X168901341Y-92606103D01*
X168901332Y-92606106D01*
X168737459Y-92673983D01*
X168737446Y-92673990D01*
X168589965Y-92772535D01*
X168589961Y-92772538D01*
X168464538Y-92897961D01*
X168464535Y-92897965D01*
X168365990Y-93045446D01*
X168365983Y-93045459D01*
X168298106Y-93209332D01*
X168298103Y-93209341D01*
X168263500Y-93383304D01*
X140600499Y-93383304D01*
X140565896Y-93209341D01*
X140565893Y-93209332D01*
X140498016Y-93045459D01*
X140498009Y-93045446D01*
X140399464Y-92897965D01*
X140399461Y-92897961D01*
X140274038Y-92772538D01*
X140274034Y-92772535D01*
X140126553Y-92673990D01*
X140126540Y-92673983D01*
X139962667Y-92606106D01*
X139962658Y-92606103D01*
X139788694Y-92571500D01*
X139788691Y-92571500D01*
X139611309Y-92571500D01*
X139611306Y-92571500D01*
X139437341Y-92606103D01*
X139437332Y-92606106D01*
X139273459Y-92673983D01*
X139273446Y-92673990D01*
X139125965Y-92772535D01*
X139125961Y-92772538D01*
X139000538Y-92897961D01*
X139000535Y-92897965D01*
X138901990Y-93045446D01*
X138901983Y-93045459D01*
X138834106Y-93209332D01*
X138834103Y-93209341D01*
X138799500Y-93383304D01*
X138060499Y-93383304D01*
X138025896Y-93209341D01*
X138025893Y-93209332D01*
X137958016Y-93045459D01*
X137958009Y-93045446D01*
X137859464Y-92897965D01*
X137859461Y-92897961D01*
X137734038Y-92772538D01*
X137734034Y-92772535D01*
X137586553Y-92673990D01*
X137586540Y-92673983D01*
X137422667Y-92606106D01*
X137422658Y-92606103D01*
X137248694Y-92571500D01*
X137248691Y-92571500D01*
X137071309Y-92571500D01*
X137071306Y-92571500D01*
X136897341Y-92606103D01*
X136897332Y-92606106D01*
X136733459Y-92673983D01*
X136733446Y-92673990D01*
X136585965Y-92772535D01*
X136585961Y-92772538D01*
X136460538Y-92897961D01*
X136460535Y-92897965D01*
X136361990Y-93045446D01*
X136361983Y-93045459D01*
X136294106Y-93209332D01*
X136294103Y-93209341D01*
X136259500Y-93383304D01*
X91440500Y-93383304D01*
X91440500Y-92367304D01*
X115431500Y-92367304D01*
X115431500Y-92544695D01*
X115466103Y-92718658D01*
X115466106Y-92718667D01*
X115533983Y-92882540D01*
X115533990Y-92882553D01*
X115632535Y-93030034D01*
X115632538Y-93030038D01*
X115757961Y-93155461D01*
X115757965Y-93155464D01*
X115905446Y-93254009D01*
X115905459Y-93254016D01*
X116028363Y-93304923D01*
X116069334Y-93321894D01*
X116069336Y-93321894D01*
X116069341Y-93321896D01*
X116243304Y-93356499D01*
X116243307Y-93356500D01*
X116243309Y-93356500D01*
X116420693Y-93356500D01*
X116420694Y-93356499D01*
X116478682Y-93344964D01*
X116594658Y-93321896D01*
X116594661Y-93321894D01*
X116594666Y-93321894D01*
X116669930Y-93290718D01*
X116737682Y-93262656D01*
X116758540Y-93254016D01*
X116758540Y-93254015D01*
X116758547Y-93254013D01*
X116906035Y-93155464D01*
X117031464Y-93030035D01*
X117130013Y-92882547D01*
X117197894Y-92718666D01*
X117206782Y-92673987D01*
X117232499Y-92544695D01*
X117232500Y-92544693D01*
X117232500Y-92367306D01*
X117232499Y-92367304D01*
X164199500Y-92367304D01*
X164199500Y-92544695D01*
X164234103Y-92718658D01*
X164234106Y-92718667D01*
X164301983Y-92882540D01*
X164301990Y-92882553D01*
X164400535Y-93030034D01*
X164400538Y-93030038D01*
X164525961Y-93155461D01*
X164525965Y-93155464D01*
X164673446Y-93254009D01*
X164673459Y-93254016D01*
X164796363Y-93304923D01*
X164837334Y-93321894D01*
X164837336Y-93321894D01*
X164837341Y-93321896D01*
X165011304Y-93356499D01*
X165011307Y-93356500D01*
X165011309Y-93356500D01*
X165188693Y-93356500D01*
X165188694Y-93356499D01*
X165246682Y-93344964D01*
X165362658Y-93321896D01*
X165362661Y-93321894D01*
X165362666Y-93321894D01*
X165437930Y-93290718D01*
X165505682Y-93262656D01*
X165526540Y-93254016D01*
X165526540Y-93254015D01*
X165526547Y-93254013D01*
X165674035Y-93155464D01*
X165799464Y-93030035D01*
X165898013Y-92882547D01*
X165965894Y-92718666D01*
X165974782Y-92673987D01*
X166000499Y-92544695D01*
X166000500Y-92544693D01*
X166000500Y-92367306D01*
X166000499Y-92367304D01*
X165965896Y-92193341D01*
X165965893Y-92193332D01*
X165898016Y-92029459D01*
X165898009Y-92029446D01*
X165799464Y-91881965D01*
X165799461Y-91881961D01*
X165674038Y-91756538D01*
X165674034Y-91756535D01*
X165526553Y-91657990D01*
X165526540Y-91657983D01*
X165362667Y-91590106D01*
X165362658Y-91590103D01*
X165188694Y-91555500D01*
X165188691Y-91555500D01*
X165011309Y-91555500D01*
X165011306Y-91555500D01*
X164837341Y-91590103D01*
X164837332Y-91590106D01*
X164673459Y-91657983D01*
X164673446Y-91657990D01*
X164525965Y-91756535D01*
X164525961Y-91756538D01*
X164400538Y-91881961D01*
X164400535Y-91881965D01*
X164301990Y-92029446D01*
X164301983Y-92029459D01*
X164234106Y-92193332D01*
X164234103Y-92193341D01*
X164199500Y-92367304D01*
X117232499Y-92367304D01*
X117197896Y-92193341D01*
X117197893Y-92193332D01*
X117130016Y-92029459D01*
X117130009Y-92029446D01*
X117031464Y-91881965D01*
X117031461Y-91881961D01*
X116906038Y-91756538D01*
X116906034Y-91756535D01*
X116758553Y-91657990D01*
X116758540Y-91657983D01*
X116594667Y-91590106D01*
X116594658Y-91590103D01*
X116420694Y-91555500D01*
X116420691Y-91555500D01*
X116243309Y-91555500D01*
X116243306Y-91555500D01*
X116069341Y-91590103D01*
X116069332Y-91590106D01*
X115905459Y-91657983D01*
X115905446Y-91657990D01*
X115757965Y-91756535D01*
X115757961Y-91756538D01*
X115632538Y-91881961D01*
X115632535Y-91881965D01*
X115533990Y-92029446D01*
X115533983Y-92029459D01*
X115466106Y-92193332D01*
X115466103Y-92193341D01*
X115431500Y-92367304D01*
X91440500Y-92367304D01*
X91440500Y-90335304D01*
X132703500Y-90335304D01*
X132703500Y-90512695D01*
X132738103Y-90686658D01*
X132738106Y-90686667D01*
X132805983Y-90850540D01*
X132805990Y-90850553D01*
X132904535Y-90998034D01*
X132904538Y-90998038D01*
X133029961Y-91123461D01*
X133029965Y-91123464D01*
X133177446Y-91222009D01*
X133177459Y-91222016D01*
X133300363Y-91272923D01*
X133341334Y-91289894D01*
X133341336Y-91289894D01*
X133341341Y-91289896D01*
X133515304Y-91324499D01*
X133515307Y-91324500D01*
X133515309Y-91324500D01*
X133692693Y-91324500D01*
X133692694Y-91324499D01*
X133750682Y-91312964D01*
X133866658Y-91289896D01*
X133866661Y-91289894D01*
X133866666Y-91289894D01*
X134030547Y-91222013D01*
X134178035Y-91123464D01*
X134303464Y-90998035D01*
X134402013Y-90850547D01*
X134469894Y-90686666D01*
X134504500Y-90512691D01*
X134504500Y-90335309D01*
X134504500Y-90335306D01*
X134504499Y-90335304D01*
X134469896Y-90161341D01*
X134469893Y-90161332D01*
X134402016Y-89997459D01*
X134402009Y-89997446D01*
X134303464Y-89849965D01*
X134303461Y-89849961D01*
X134178038Y-89724538D01*
X134178034Y-89724535D01*
X134030553Y-89625990D01*
X134030540Y-89625983D01*
X133866667Y-89558106D01*
X133866658Y-89558103D01*
X133692694Y-89523500D01*
X133692691Y-89523500D01*
X133515309Y-89523500D01*
X133515306Y-89523500D01*
X133341341Y-89558103D01*
X133341332Y-89558106D01*
X133177459Y-89625983D01*
X133177446Y-89625990D01*
X133029965Y-89724535D01*
X133029961Y-89724538D01*
X132904538Y-89849961D01*
X132904535Y-89849965D01*
X132805990Y-89997446D01*
X132805983Y-89997459D01*
X132738106Y-90161332D01*
X132738103Y-90161341D01*
X132703500Y-90335304D01*
X91440500Y-90335304D01*
X91440500Y-87287304D01*
X121527500Y-87287304D01*
X121527500Y-87464695D01*
X121562103Y-87638658D01*
X121562106Y-87638667D01*
X121629983Y-87802540D01*
X121629990Y-87802553D01*
X121728535Y-87950034D01*
X121728538Y-87950038D01*
X121853961Y-88075461D01*
X121853965Y-88075464D01*
X122001446Y-88174009D01*
X122001459Y-88174016D01*
X122124363Y-88224923D01*
X122165334Y-88241894D01*
X122165336Y-88241894D01*
X122165341Y-88241896D01*
X122339304Y-88276499D01*
X122339307Y-88276500D01*
X122339309Y-88276500D01*
X122516693Y-88276500D01*
X122516694Y-88276499D01*
X122574682Y-88264964D01*
X122690658Y-88241896D01*
X122690661Y-88241894D01*
X122690666Y-88241894D01*
X122854547Y-88174013D01*
X123002035Y-88075464D01*
X123127464Y-87950035D01*
X123226013Y-87802547D01*
X123293894Y-87638666D01*
X123328500Y-87464691D01*
X123328500Y-87287309D01*
X123328500Y-87287306D01*
X123328499Y-87287304D01*
X123293896Y-87113341D01*
X123293893Y-87113332D01*
X123226016Y-86949459D01*
X123226009Y-86949446D01*
X123127464Y-86801965D01*
X123127461Y-86801961D01*
X123002038Y-86676538D01*
X123002034Y-86676535D01*
X122854553Y-86577990D01*
X122854540Y-86577983D01*
X122690667Y-86510106D01*
X122690658Y-86510103D01*
X122516694Y-86475500D01*
X122516691Y-86475500D01*
X122339309Y-86475500D01*
X122339306Y-86475500D01*
X122165341Y-86510103D01*
X122165332Y-86510106D01*
X122001459Y-86577983D01*
X122001446Y-86577990D01*
X121853965Y-86676535D01*
X121853961Y-86676538D01*
X121728538Y-86801961D01*
X121728535Y-86801965D01*
X121629990Y-86949446D01*
X121629983Y-86949459D01*
X121562106Y-87113332D01*
X121562103Y-87113341D01*
X121527500Y-87287304D01*
X91440500Y-87287304D01*
X91440500Y-86280943D01*
X93639500Y-86280943D01*
X93639500Y-86281750D01*
X93639500Y-86439057D01*
X93679790Y-86589419D01*
X93680423Y-86591783D01*
X93680426Y-86591790D01*
X93759475Y-86728709D01*
X93759479Y-86728714D01*
X93759480Y-86728716D01*
X93871284Y-86840520D01*
X93871286Y-86840521D01*
X93871290Y-86840524D01*
X93998324Y-86913866D01*
X94008216Y-86919577D01*
X94160943Y-86960500D01*
X94160945Y-86960500D01*
X94319055Y-86960500D01*
X94319057Y-86960500D01*
X94471784Y-86919577D01*
X94608716Y-86840520D01*
X94720520Y-86728716D01*
X94799577Y-86591784D01*
X94840500Y-86439057D01*
X94840500Y-86280943D01*
X100639500Y-86280943D01*
X100639500Y-86281750D01*
X100639500Y-86439057D01*
X100679790Y-86589419D01*
X100680423Y-86591783D01*
X100680426Y-86591790D01*
X100759475Y-86728709D01*
X100759479Y-86728714D01*
X100759480Y-86728716D01*
X100871284Y-86840520D01*
X100871286Y-86840521D01*
X100871290Y-86840524D01*
X100998324Y-86913866D01*
X101008216Y-86919577D01*
X101160943Y-86960500D01*
X101160945Y-86960500D01*
X101319055Y-86960500D01*
X101319057Y-86960500D01*
X101471784Y-86919577D01*
X101608716Y-86840520D01*
X101720520Y-86728716D01*
X101799577Y-86591784D01*
X101840500Y-86439057D01*
X101840500Y-86280943D01*
X166129500Y-86280943D01*
X166129500Y-86281750D01*
X166129500Y-86439057D01*
X166169790Y-86589419D01*
X166170423Y-86591783D01*
X166170426Y-86591790D01*
X166249475Y-86728709D01*
X166249479Y-86728714D01*
X166249480Y-86728716D01*
X166361284Y-86840520D01*
X166361286Y-86840521D01*
X166361290Y-86840524D01*
X166488324Y-86913866D01*
X166498216Y-86919577D01*
X166650943Y-86960500D01*
X166650945Y-86960500D01*
X166809055Y-86960500D01*
X166809057Y-86960500D01*
X166961784Y-86919577D01*
X167098716Y-86840520D01*
X167210520Y-86728716D01*
X167289577Y-86591784D01*
X167330500Y-86439057D01*
X167330500Y-86280943D01*
X173129500Y-86280943D01*
X173129500Y-86281750D01*
X173129500Y-86439057D01*
X173169790Y-86589419D01*
X173170423Y-86591783D01*
X173170426Y-86591790D01*
X173249475Y-86728709D01*
X173249479Y-86728714D01*
X173249480Y-86728716D01*
X173361284Y-86840520D01*
X173361286Y-86840521D01*
X173361290Y-86840524D01*
X173488324Y-86913866D01*
X173498216Y-86919577D01*
X173650943Y-86960500D01*
X173650945Y-86960500D01*
X173809055Y-86960500D01*
X173809057Y-86960500D01*
X173961784Y-86919577D01*
X174098716Y-86840520D01*
X174210520Y-86728716D01*
X174289577Y-86591784D01*
X174330500Y-86439057D01*
X174330500Y-86280943D01*
X174289577Y-86128216D01*
X174289573Y-86128209D01*
X174210524Y-85991290D01*
X174210518Y-85991282D01*
X174098717Y-85879481D01*
X174098709Y-85879475D01*
X173961790Y-85800426D01*
X173961786Y-85800424D01*
X173961784Y-85800423D01*
X173809057Y-85759500D01*
X173650943Y-85759500D01*
X173498216Y-85800423D01*
X173498209Y-85800426D01*
X173361290Y-85879475D01*
X173361282Y-85879481D01*
X173249481Y-85991282D01*
X173249475Y-85991290D01*
X173170426Y-86128209D01*
X173170423Y-86128216D01*
X173129500Y-86280943D01*
X167330500Y-86280943D01*
X167289577Y-86128216D01*
X167289573Y-86128209D01*
X167210524Y-85991290D01*
X167210518Y-85991282D01*
X167098717Y-85879481D01*
X167098709Y-85879475D01*
X166961790Y-85800426D01*
X166961786Y-85800424D01*
X166961784Y-85800423D01*
X166809057Y-85759500D01*
X166650943Y-85759500D01*
X166498216Y-85800423D01*
X166498209Y-85800426D01*
X166361290Y-85879475D01*
X166361282Y-85879481D01*
X166249481Y-85991282D01*
X166249475Y-85991290D01*
X166170426Y-86128209D01*
X166170423Y-86128216D01*
X166129500Y-86280943D01*
X101840500Y-86280943D01*
X101799577Y-86128216D01*
X101799573Y-86128209D01*
X101720524Y-85991290D01*
X101720518Y-85991282D01*
X101608717Y-85879481D01*
X101608709Y-85879475D01*
X101471790Y-85800426D01*
X101471786Y-85800424D01*
X101471784Y-85800423D01*
X101319057Y-85759500D01*
X101160943Y-85759500D01*
X101008216Y-85800423D01*
X101008209Y-85800426D01*
X100871290Y-85879475D01*
X100871282Y-85879481D01*
X100759481Y-85991282D01*
X100759475Y-85991290D01*
X100680426Y-86128209D01*
X100680423Y-86128216D01*
X100639500Y-86280943D01*
X94840500Y-86280943D01*
X94799577Y-86128216D01*
X94799573Y-86128209D01*
X94720524Y-85991290D01*
X94720518Y-85991282D01*
X94608717Y-85879481D01*
X94608709Y-85879475D01*
X94471790Y-85800426D01*
X94471786Y-85800424D01*
X94471784Y-85800423D01*
X94319057Y-85759500D01*
X94160943Y-85759500D01*
X94008216Y-85800423D01*
X94008209Y-85800426D01*
X93871290Y-85879475D01*
X93871282Y-85879481D01*
X93759481Y-85991282D01*
X93759475Y-85991290D01*
X93680426Y-86128209D01*
X93680423Y-86128216D01*
X93639500Y-86280943D01*
X91440500Y-86280943D01*
X91440500Y-84239304D01*
X104763500Y-84239304D01*
X104763500Y-84416695D01*
X104798103Y-84590658D01*
X104798106Y-84590667D01*
X104865983Y-84754540D01*
X104865990Y-84754553D01*
X104964535Y-84902034D01*
X104964538Y-84902038D01*
X105089961Y-85027461D01*
X105089965Y-85027464D01*
X105237446Y-85126009D01*
X105237459Y-85126016D01*
X105360363Y-85176923D01*
X105401334Y-85193894D01*
X105401336Y-85193894D01*
X105401341Y-85193896D01*
X105575304Y-85228499D01*
X105575307Y-85228500D01*
X105575309Y-85228500D01*
X105752693Y-85228500D01*
X105752694Y-85228499D01*
X105810682Y-85216964D01*
X105926658Y-85193896D01*
X105926661Y-85193894D01*
X105926666Y-85193894D01*
X106090547Y-85126013D01*
X106238035Y-85027464D01*
X106363464Y-84902035D01*
X106462013Y-84754547D01*
X106529894Y-84590666D01*
X106564500Y-84416691D01*
X106564500Y-84239309D01*
X106564500Y-84239306D01*
X106564499Y-84239304D01*
X106529896Y-84065341D01*
X106529893Y-84065332D01*
X106462016Y-83901459D01*
X106462014Y-83901455D01*
X106462013Y-83901453D01*
X106363464Y-83753965D01*
X106363461Y-83753961D01*
X106340804Y-83731304D01*
X124067500Y-83731304D01*
X124067500Y-83908695D01*
X124102103Y-84082658D01*
X124102106Y-84082667D01*
X124169983Y-84246540D01*
X124169990Y-84246553D01*
X124268535Y-84394034D01*
X124268538Y-84394038D01*
X124393961Y-84519461D01*
X124393965Y-84519464D01*
X124541446Y-84618009D01*
X124541459Y-84618016D01*
X124664363Y-84668923D01*
X124705334Y-84685894D01*
X124705336Y-84685894D01*
X124705341Y-84685896D01*
X124879304Y-84720499D01*
X124879307Y-84720500D01*
X124879309Y-84720500D01*
X125056693Y-84720500D01*
X125056694Y-84720499D01*
X125114682Y-84708964D01*
X125230658Y-84685896D01*
X125230661Y-84685894D01*
X125230666Y-84685894D01*
X125394547Y-84618013D01*
X125542035Y-84519464D01*
X125667464Y-84394035D01*
X125766013Y-84246547D01*
X125833894Y-84082666D01*
X125837341Y-84065341D01*
X125868499Y-83908695D01*
X125868500Y-83908693D01*
X125868500Y-83731306D01*
X125868499Y-83731304D01*
X125833896Y-83557341D01*
X125833893Y-83557332D01*
X125766016Y-83393459D01*
X125766009Y-83393446D01*
X125667464Y-83245965D01*
X125667461Y-83245961D01*
X125542038Y-83120538D01*
X125542034Y-83120535D01*
X125394553Y-83021990D01*
X125394540Y-83021983D01*
X125230667Y-82954106D01*
X125230658Y-82954103D01*
X125056694Y-82919500D01*
X125056691Y-82919500D01*
X124879309Y-82919500D01*
X124879306Y-82919500D01*
X124705341Y-82954103D01*
X124705332Y-82954106D01*
X124541459Y-83021983D01*
X124541446Y-83021990D01*
X124393965Y-83120535D01*
X124393961Y-83120538D01*
X124268538Y-83245961D01*
X124268535Y-83245965D01*
X124169990Y-83393446D01*
X124169983Y-83393459D01*
X124102106Y-83557332D01*
X124102103Y-83557341D01*
X124067500Y-83731304D01*
X106340804Y-83731304D01*
X106238038Y-83628538D01*
X106238034Y-83628535D01*
X106090553Y-83529990D01*
X106090540Y-83529983D01*
X105926667Y-83462106D01*
X105926658Y-83462103D01*
X105752694Y-83427500D01*
X105752691Y-83427500D01*
X105575309Y-83427500D01*
X105575306Y-83427500D01*
X105401341Y-83462103D01*
X105401332Y-83462106D01*
X105237459Y-83529983D01*
X105237446Y-83529990D01*
X105089965Y-83628535D01*
X105089961Y-83628538D01*
X104964538Y-83753961D01*
X104964535Y-83753965D01*
X104865990Y-83901446D01*
X104865983Y-83901459D01*
X104798106Y-84065332D01*
X104798103Y-84065341D01*
X104763500Y-84239304D01*
X91440500Y-84239304D01*
X91440500Y-82207304D01*
X121527500Y-82207304D01*
X121527500Y-82384695D01*
X121562103Y-82558658D01*
X121562106Y-82558667D01*
X121629983Y-82722540D01*
X121629990Y-82722553D01*
X121728535Y-82870034D01*
X121728538Y-82870038D01*
X121853961Y-82995461D01*
X121853965Y-82995464D01*
X122001446Y-83094009D01*
X122001459Y-83094016D01*
X122124363Y-83144923D01*
X122165334Y-83161894D01*
X122165336Y-83161894D01*
X122165341Y-83161896D01*
X122339304Y-83196499D01*
X122339307Y-83196500D01*
X122339309Y-83196500D01*
X122516693Y-83196500D01*
X122516694Y-83196499D01*
X122574682Y-83184964D01*
X122690658Y-83161896D01*
X122690661Y-83161894D01*
X122690666Y-83161894D01*
X122854547Y-83094013D01*
X123002035Y-82995464D01*
X123127464Y-82870035D01*
X123226013Y-82722547D01*
X123293894Y-82558666D01*
X123328500Y-82384691D01*
X123328500Y-82207309D01*
X123328500Y-82207306D01*
X123328499Y-82207304D01*
X157595500Y-82207304D01*
X157595500Y-82384695D01*
X157630103Y-82558658D01*
X157630106Y-82558667D01*
X157697983Y-82722540D01*
X157697990Y-82722553D01*
X157796535Y-82870034D01*
X157796538Y-82870038D01*
X157921961Y-82995461D01*
X157921965Y-82995464D01*
X158069446Y-83094009D01*
X158069459Y-83094016D01*
X158192363Y-83144923D01*
X158233334Y-83161894D01*
X158233336Y-83161894D01*
X158233341Y-83161896D01*
X158407304Y-83196499D01*
X158407307Y-83196500D01*
X158407309Y-83196500D01*
X158584693Y-83196500D01*
X158584694Y-83196499D01*
X158642682Y-83184964D01*
X158758658Y-83161896D01*
X158758661Y-83161894D01*
X158758666Y-83161894D01*
X158922547Y-83094013D01*
X159070035Y-82995464D01*
X159195464Y-82870035D01*
X159294013Y-82722547D01*
X159361894Y-82558666D01*
X159396500Y-82384691D01*
X159396500Y-82207309D01*
X159396500Y-82207306D01*
X159396499Y-82207304D01*
X159361896Y-82033341D01*
X159361893Y-82033332D01*
X159294016Y-81869459D01*
X159294009Y-81869446D01*
X159195464Y-81721965D01*
X159195461Y-81721961D01*
X159070038Y-81596538D01*
X159070034Y-81596535D01*
X158922553Y-81497990D01*
X158922540Y-81497983D01*
X158758667Y-81430106D01*
X158758658Y-81430103D01*
X158584694Y-81395500D01*
X158584691Y-81395500D01*
X158407309Y-81395500D01*
X158407306Y-81395500D01*
X158233341Y-81430103D01*
X158233332Y-81430106D01*
X158069459Y-81497983D01*
X158069446Y-81497990D01*
X157921965Y-81596535D01*
X157921961Y-81596538D01*
X157796538Y-81721961D01*
X157796535Y-81721965D01*
X157697990Y-81869446D01*
X157697983Y-81869459D01*
X157630106Y-82033332D01*
X157630103Y-82033341D01*
X157595500Y-82207304D01*
X123328499Y-82207304D01*
X123293896Y-82033341D01*
X123293893Y-82033332D01*
X123226016Y-81869459D01*
X123226009Y-81869446D01*
X123127464Y-81721965D01*
X123127461Y-81721961D01*
X123002038Y-81596538D01*
X123002034Y-81596535D01*
X122854553Y-81497990D01*
X122854540Y-81497983D01*
X122690667Y-81430106D01*
X122690658Y-81430103D01*
X122516694Y-81395500D01*
X122516691Y-81395500D01*
X122339309Y-81395500D01*
X122339306Y-81395500D01*
X122165341Y-81430103D01*
X122165332Y-81430106D01*
X122001459Y-81497983D01*
X122001446Y-81497990D01*
X121853965Y-81596535D01*
X121853961Y-81596538D01*
X121728538Y-81721961D01*
X121728535Y-81721965D01*
X121629990Y-81869446D01*
X121629983Y-81869459D01*
X121562106Y-82033332D01*
X121562103Y-82033341D01*
X121527500Y-82207304D01*
X91440500Y-82207304D01*
X91440500Y-79667304D01*
X95619500Y-79667304D01*
X95619500Y-79844695D01*
X95654103Y-80018658D01*
X95654106Y-80018667D01*
X95721983Y-80182540D01*
X95721990Y-80182553D01*
X95820535Y-80330034D01*
X95820538Y-80330038D01*
X95945961Y-80455461D01*
X95945965Y-80455464D01*
X96093446Y-80554009D01*
X96093459Y-80554016D01*
X96216363Y-80604923D01*
X96257334Y-80621894D01*
X96257336Y-80621894D01*
X96257341Y-80621896D01*
X96431304Y-80656499D01*
X96431307Y-80656500D01*
X96431309Y-80656500D01*
X96608693Y-80656500D01*
X96608694Y-80656499D01*
X96666682Y-80644964D01*
X96782658Y-80621896D01*
X96782661Y-80621894D01*
X96782666Y-80621894D01*
X96946547Y-80554013D01*
X97094035Y-80455464D01*
X97219464Y-80330035D01*
X97318013Y-80182547D01*
X97321013Y-80175304D01*
X98159500Y-80175304D01*
X98159500Y-80352695D01*
X98194103Y-80526658D01*
X98194106Y-80526667D01*
X98261983Y-80690540D01*
X98261990Y-80690553D01*
X98360535Y-80838034D01*
X98360538Y-80838038D01*
X98485961Y-80963461D01*
X98485965Y-80963464D01*
X98633446Y-81062009D01*
X98633459Y-81062016D01*
X98756363Y-81112923D01*
X98797334Y-81129894D01*
X98797336Y-81129894D01*
X98797341Y-81129896D01*
X98971304Y-81164499D01*
X98971307Y-81164500D01*
X98971309Y-81164500D01*
X99148693Y-81164500D01*
X99148694Y-81164499D01*
X99206682Y-81152964D01*
X99322658Y-81129896D01*
X99322661Y-81129894D01*
X99322666Y-81129894D01*
X99486547Y-81062013D01*
X99634035Y-80963464D01*
X99759464Y-80838035D01*
X99858013Y-80690547D01*
X99925894Y-80526666D01*
X99960500Y-80352691D01*
X99960500Y-80175309D01*
X99960500Y-80175306D01*
X99960499Y-80175304D01*
X99925896Y-80001341D01*
X99925893Y-80001332D01*
X99858016Y-79837459D01*
X99858009Y-79837446D01*
X99759464Y-79689965D01*
X99759461Y-79689961D01*
X99634038Y-79564538D01*
X99634034Y-79564535D01*
X99486553Y-79465990D01*
X99486540Y-79465983D01*
X99322667Y-79398106D01*
X99322658Y-79398103D01*
X99148694Y-79363500D01*
X99148691Y-79363500D01*
X98971309Y-79363500D01*
X98971306Y-79363500D01*
X98797341Y-79398103D01*
X98797332Y-79398106D01*
X98633459Y-79465983D01*
X98633446Y-79465990D01*
X98485965Y-79564535D01*
X98485961Y-79564538D01*
X98360538Y-79689961D01*
X98360535Y-79689965D01*
X98261990Y-79837446D01*
X98261983Y-79837459D01*
X98194106Y-80001332D01*
X98194103Y-80001341D01*
X98159500Y-80175304D01*
X97321013Y-80175304D01*
X97385894Y-80018666D01*
X97389341Y-80001341D01*
X97420499Y-79844695D01*
X97420500Y-79844693D01*
X97420500Y-79667306D01*
X97420499Y-79667304D01*
X97385896Y-79493341D01*
X97385893Y-79493332D01*
X97318016Y-79329459D01*
X97318009Y-79329446D01*
X97219464Y-79181965D01*
X97219461Y-79181961D01*
X97094038Y-79056538D01*
X97094034Y-79056535D01*
X96946553Y-78957990D01*
X96946540Y-78957983D01*
X96782667Y-78890106D01*
X96782658Y-78890103D01*
X96608694Y-78855500D01*
X96608691Y-78855500D01*
X96431309Y-78855500D01*
X96431306Y-78855500D01*
X96257341Y-78890103D01*
X96257332Y-78890106D01*
X96093459Y-78957983D01*
X96093446Y-78957990D01*
X95945965Y-79056535D01*
X95945961Y-79056538D01*
X95820538Y-79181961D01*
X95820535Y-79181965D01*
X95721990Y-79329446D01*
X95721983Y-79329459D01*
X95654106Y-79493332D01*
X95654103Y-79493341D01*
X95619500Y-79667304D01*
X91440500Y-79667304D01*
X91440500Y-76093753D01*
X112680000Y-76093753D01*
X112680000Y-76306246D01*
X112713242Y-76516127D01*
X112713242Y-76516130D01*
X112778904Y-76718217D01*
X112875375Y-76907550D01*
X112914728Y-76961716D01*
X113547037Y-76329408D01*
X113564075Y-76392993D01*
X113629901Y-76507007D01*
X113722993Y-76600099D01*
X113837007Y-76665925D01*
X113900590Y-76682962D01*
X113268282Y-77315269D01*
X113268282Y-77315270D01*
X113322449Y-77354624D01*
X113511782Y-77451095D01*
X113713870Y-77516757D01*
X113923754Y-77550000D01*
X114136246Y-77550000D01*
X114346127Y-77516757D01*
X114346130Y-77516757D01*
X114548217Y-77451095D01*
X114737554Y-77354622D01*
X114791716Y-77315270D01*
X114791717Y-77315270D01*
X114159408Y-76682962D01*
X114222993Y-76665925D01*
X114337007Y-76600099D01*
X114430099Y-76507007D01*
X114495925Y-76392993D01*
X114512962Y-76329409D01*
X115145270Y-76961717D01*
X115145270Y-76961716D01*
X115184622Y-76907555D01*
X115189232Y-76898507D01*
X115237205Y-76847709D01*
X115305025Y-76830912D01*
X115371161Y-76853447D01*
X115410204Y-76898504D01*
X115414949Y-76907817D01*
X115539890Y-77079786D01*
X115690213Y-77230109D01*
X115862179Y-77355048D01*
X115862181Y-77355049D01*
X115862184Y-77355051D01*
X116051588Y-77451557D01*
X116253757Y-77517246D01*
X116463713Y-77550500D01*
X116463714Y-77550500D01*
X116676286Y-77550500D01*
X116676287Y-77550500D01*
X116886243Y-77517246D01*
X117088412Y-77451557D01*
X117277816Y-77355051D01*
X117449792Y-77230104D01*
X117563329Y-77116566D01*
X117624648Y-77083084D01*
X117694340Y-77088068D01*
X117750274Y-77129939D01*
X117767189Y-77160917D01*
X117816202Y-77292328D01*
X117816206Y-77292335D01*
X117902452Y-77407544D01*
X117902455Y-77407547D01*
X118017664Y-77493793D01*
X118017671Y-77493797D01*
X118152517Y-77544091D01*
X118152516Y-77544091D01*
X118159444Y-77544835D01*
X118212127Y-77550500D01*
X120007872Y-77550499D01*
X120067483Y-77544091D01*
X120202331Y-77493796D01*
X120317546Y-77407546D01*
X120403796Y-77292331D01*
X120454091Y-77157483D01*
X120460500Y-77097873D01*
X120460499Y-75302128D01*
X120454091Y-75242517D01*
X120452810Y-75239083D01*
X120403797Y-75107671D01*
X120403793Y-75107664D01*
X120317547Y-74992455D01*
X120317544Y-74992452D01*
X120202335Y-74906206D01*
X120202328Y-74906202D01*
X120067482Y-74855908D01*
X120067483Y-74855908D01*
X120007883Y-74849501D01*
X120007881Y-74849500D01*
X120007873Y-74849500D01*
X120007864Y-74849500D01*
X118212129Y-74849500D01*
X118212123Y-74849501D01*
X118152516Y-74855908D01*
X118017671Y-74906202D01*
X118017664Y-74906206D01*
X117902455Y-74992452D01*
X117902452Y-74992455D01*
X117816206Y-75107664D01*
X117816203Y-75107669D01*
X117767189Y-75239083D01*
X117725317Y-75295016D01*
X117659853Y-75319433D01*
X117591580Y-75304581D01*
X117563326Y-75283430D01*
X117449786Y-75169890D01*
X117277820Y-75044951D01*
X117088414Y-74948444D01*
X117088413Y-74948443D01*
X117088412Y-74948443D01*
X116886243Y-74882754D01*
X116886241Y-74882753D01*
X116886240Y-74882753D01*
X116724957Y-74857208D01*
X116676287Y-74849500D01*
X116463713Y-74849500D01*
X116415042Y-74857208D01*
X116253760Y-74882753D01*
X116051585Y-74948444D01*
X115862179Y-75044951D01*
X115690213Y-75169890D01*
X115539890Y-75320213D01*
X115414949Y-75492182D01*
X115410202Y-75501499D01*
X115362227Y-75552293D01*
X115294405Y-75569087D01*
X115228271Y-75546548D01*
X115189234Y-75501495D01*
X115184626Y-75492452D01*
X115145270Y-75438282D01*
X115145269Y-75438282D01*
X114512962Y-76070590D01*
X114495925Y-76007007D01*
X114430099Y-75892993D01*
X114337007Y-75799901D01*
X114222993Y-75734075D01*
X114159409Y-75717037D01*
X114791716Y-75084728D01*
X114737550Y-75045375D01*
X114548217Y-74948904D01*
X114346129Y-74883242D01*
X114136246Y-74850000D01*
X113923754Y-74850000D01*
X113713872Y-74883242D01*
X113713869Y-74883242D01*
X113511782Y-74948904D01*
X113322439Y-75045380D01*
X113268282Y-75084727D01*
X113268282Y-75084728D01*
X113900591Y-75717037D01*
X113837007Y-75734075D01*
X113722993Y-75799901D01*
X113629901Y-75892993D01*
X113564075Y-76007007D01*
X113547037Y-76070591D01*
X112914728Y-75438282D01*
X112914727Y-75438282D01*
X112875380Y-75492439D01*
X112778904Y-75681782D01*
X112713242Y-75883869D01*
X112713242Y-75883872D01*
X112680000Y-76093753D01*
X91440500Y-76093753D01*
X91440500Y-73571304D01*
X149975500Y-73571304D01*
X149975500Y-73748695D01*
X150010103Y-73922658D01*
X150010106Y-73922667D01*
X150077983Y-74086540D01*
X150077990Y-74086553D01*
X150176535Y-74234034D01*
X150176538Y-74234038D01*
X150301961Y-74359461D01*
X150301965Y-74359464D01*
X150449446Y-74458009D01*
X150449459Y-74458016D01*
X150572363Y-74508923D01*
X150613334Y-74525894D01*
X150613336Y-74525894D01*
X150613341Y-74525896D01*
X150787304Y-74560499D01*
X150787307Y-74560500D01*
X150787309Y-74560500D01*
X150964693Y-74560500D01*
X150964694Y-74560499D01*
X151022682Y-74548964D01*
X151138658Y-74525896D01*
X151138661Y-74525894D01*
X151138666Y-74525894D01*
X151302547Y-74458013D01*
X151450035Y-74359464D01*
X151575464Y-74234035D01*
X151674013Y-74086547D01*
X151741894Y-73922666D01*
X151776500Y-73748691D01*
X151776500Y-73571309D01*
X151776500Y-73571306D01*
X151776499Y-73571304D01*
X151741896Y-73397341D01*
X151741893Y-73397332D01*
X151674016Y-73233459D01*
X151674009Y-73233446D01*
X151575464Y-73085965D01*
X151575461Y-73085961D01*
X151450038Y-72960538D01*
X151450034Y-72960535D01*
X151302553Y-72861990D01*
X151302540Y-72861983D01*
X151138667Y-72794106D01*
X151138658Y-72794103D01*
X150964694Y-72759500D01*
X150964691Y-72759500D01*
X150787309Y-72759500D01*
X150787306Y-72759500D01*
X150613341Y-72794103D01*
X150613332Y-72794106D01*
X150449459Y-72861983D01*
X150449446Y-72861990D01*
X150301965Y-72960535D01*
X150301961Y-72960538D01*
X150176538Y-73085961D01*
X150176535Y-73085965D01*
X150077990Y-73233446D01*
X150077983Y-73233459D01*
X150010106Y-73397332D01*
X150010103Y-73397341D01*
X149975500Y-73571304D01*
X91440500Y-73571304D01*
X91440500Y-71013713D01*
X112904500Y-71013713D01*
X112904500Y-71226286D01*
X112927850Y-71373716D01*
X112937754Y-71436243D01*
X112981046Y-71569482D01*
X113003444Y-71638414D01*
X113099951Y-71827820D01*
X113224890Y-71999786D01*
X113375213Y-72150109D01*
X113547179Y-72275048D01*
X113547181Y-72275049D01*
X113547184Y-72275051D01*
X113736588Y-72371557D01*
X113938757Y-72437246D01*
X114148713Y-72470500D01*
X114148714Y-72470500D01*
X114361286Y-72470500D01*
X114361287Y-72470500D01*
X114571243Y-72437246D01*
X114773412Y-72371557D01*
X114962816Y-72275051D01*
X115049138Y-72212335D01*
X115134786Y-72150109D01*
X115134788Y-72150106D01*
X115134792Y-72150104D01*
X115285104Y-71999792D01*
X115285106Y-71999788D01*
X115285109Y-71999786D01*
X115410048Y-71827820D01*
X115410047Y-71827820D01*
X115410051Y-71827816D01*
X115414514Y-71819054D01*
X115462488Y-71768259D01*
X115530308Y-71751463D01*
X115596444Y-71773999D01*
X115635484Y-71819054D01*
X115635736Y-71819547D01*
X115639951Y-71827820D01*
X115764890Y-71999786D01*
X115915213Y-72150109D01*
X116087179Y-72275048D01*
X116087181Y-72275049D01*
X116087184Y-72275051D01*
X116276588Y-72371557D01*
X116478757Y-72437246D01*
X116688713Y-72470500D01*
X116688714Y-72470500D01*
X116901286Y-72470500D01*
X116901287Y-72470500D01*
X117111243Y-72437246D01*
X117313412Y-72371557D01*
X117502816Y-72275051D01*
X117674792Y-72150104D01*
X117788329Y-72036566D01*
X117849648Y-72003084D01*
X117919340Y-72008068D01*
X117975274Y-72049939D01*
X117992189Y-72080917D01*
X118041202Y-72212328D01*
X118041206Y-72212335D01*
X118127452Y-72327544D01*
X118127455Y-72327547D01*
X118242664Y-72413793D01*
X118242671Y-72413797D01*
X118377517Y-72464091D01*
X118377516Y-72464091D01*
X118384444Y-72464835D01*
X118437127Y-72470500D01*
X120232872Y-72470499D01*
X120292483Y-72464091D01*
X120427331Y-72413796D01*
X120542546Y-72327546D01*
X120628796Y-72212331D01*
X120679091Y-72077483D01*
X120685500Y-72017873D01*
X120685499Y-70222128D01*
X120679091Y-70162517D01*
X120677810Y-70159083D01*
X120628797Y-70027671D01*
X120628793Y-70027664D01*
X120542547Y-69912455D01*
X120542544Y-69912452D01*
X120427335Y-69826206D01*
X120427328Y-69826202D01*
X120292482Y-69775908D01*
X120292483Y-69775908D01*
X120232883Y-69769501D01*
X120232881Y-69769500D01*
X120232873Y-69769500D01*
X120232864Y-69769500D01*
X118437129Y-69769500D01*
X118437123Y-69769501D01*
X118377516Y-69775908D01*
X118242671Y-69826202D01*
X118242664Y-69826206D01*
X118127455Y-69912452D01*
X118127452Y-69912455D01*
X118041206Y-70027664D01*
X118041203Y-70027669D01*
X117992189Y-70159083D01*
X117950317Y-70215016D01*
X117884853Y-70239433D01*
X117816580Y-70224581D01*
X117788326Y-70203430D01*
X117674786Y-70089890D01*
X117502820Y-69964951D01*
X117313414Y-69868444D01*
X117313413Y-69868443D01*
X117313412Y-69868443D01*
X117111243Y-69802754D01*
X117111241Y-69802753D01*
X117111240Y-69802753D01*
X116949957Y-69777208D01*
X116901287Y-69769500D01*
X116688713Y-69769500D01*
X116640042Y-69777208D01*
X116478760Y-69802753D01*
X116276585Y-69868444D01*
X116087179Y-69964951D01*
X115915213Y-70089890D01*
X115764890Y-70240213D01*
X115639949Y-70412182D01*
X115635484Y-70420946D01*
X115587509Y-70471742D01*
X115519688Y-70488536D01*
X115453553Y-70465998D01*
X115414516Y-70420946D01*
X115410050Y-70412182D01*
X115285109Y-70240213D01*
X115134786Y-70089890D01*
X114962820Y-69964951D01*
X114773414Y-69868444D01*
X114773413Y-69868443D01*
X114773412Y-69868443D01*
X114571243Y-69802754D01*
X114571241Y-69802753D01*
X114571240Y-69802753D01*
X114409957Y-69777208D01*
X114361287Y-69769500D01*
X114148713Y-69769500D01*
X114100042Y-69777208D01*
X113938760Y-69802753D01*
X113736585Y-69868444D01*
X113547179Y-69964951D01*
X113375213Y-70089890D01*
X113224890Y-70240213D01*
X113099951Y-70412179D01*
X113003444Y-70601585D01*
X112937753Y-70803760D01*
X112904500Y-71013713D01*
X91440500Y-71013713D01*
X91440500Y-65951304D01*
X123051500Y-65951304D01*
X123051500Y-66128695D01*
X123086103Y-66302658D01*
X123086106Y-66302667D01*
X123153983Y-66466540D01*
X123153990Y-66466553D01*
X123252535Y-66614034D01*
X123252538Y-66614038D01*
X123377961Y-66739461D01*
X123377965Y-66739464D01*
X123525446Y-66838009D01*
X123525459Y-66838016D01*
X123617382Y-66876091D01*
X123689334Y-66905894D01*
X123689336Y-66905894D01*
X123689341Y-66905896D01*
X123863304Y-66940499D01*
X123863307Y-66940500D01*
X123863309Y-66940500D01*
X124040693Y-66940500D01*
X124040694Y-66940499D01*
X124098682Y-66928964D01*
X124214658Y-66905896D01*
X124214661Y-66905894D01*
X124214666Y-66905894D01*
X124378547Y-66838013D01*
X124526035Y-66739464D01*
X124651464Y-66614035D01*
X124750013Y-66466547D01*
X124817894Y-66302666D01*
X124852500Y-66128691D01*
X124852500Y-65951309D01*
X124852500Y-65951306D01*
X124852499Y-65951304D01*
X124817896Y-65777341D01*
X124817893Y-65777332D01*
X124750016Y-65613459D01*
X124750014Y-65613455D01*
X124750013Y-65613453D01*
X124651464Y-65465965D01*
X124651461Y-65465961D01*
X124611213Y-65425713D01*
X127808500Y-65425713D01*
X127808500Y-65638287D01*
X127841754Y-65848243D01*
X127875242Y-65951309D01*
X127907444Y-66050414D01*
X128003951Y-66239820D01*
X128128890Y-66411786D01*
X128279213Y-66562109D01*
X128451182Y-66687050D01*
X128459946Y-66691516D01*
X128510742Y-66739491D01*
X128527536Y-66807312D01*
X128504998Y-66873447D01*
X128459946Y-66912484D01*
X128451182Y-66916949D01*
X128279213Y-67041890D01*
X128128890Y-67192213D01*
X128003951Y-67364179D01*
X127907444Y-67553585D01*
X127841753Y-67755760D01*
X127808500Y-67965713D01*
X127808500Y-68178286D01*
X127841753Y-68388239D01*
X127907444Y-68590414D01*
X128003951Y-68779820D01*
X128128890Y-68951786D01*
X128242430Y-69065326D01*
X128275915Y-69126649D01*
X128270931Y-69196341D01*
X128229059Y-69252274D01*
X128198083Y-69269189D01*
X128066669Y-69318203D01*
X128066664Y-69318206D01*
X127951455Y-69404452D01*
X127951452Y-69404455D01*
X127865206Y-69519664D01*
X127865202Y-69519671D01*
X127814908Y-69654517D01*
X127808501Y-69714116D01*
X127808501Y-69714123D01*
X127808500Y-69714135D01*
X127808500Y-71509870D01*
X127808501Y-71509876D01*
X127814908Y-71569483D01*
X127865202Y-71704328D01*
X127865206Y-71704335D01*
X127951452Y-71819544D01*
X127951455Y-71819547D01*
X128066664Y-71905793D01*
X128066671Y-71905797D01*
X128201517Y-71956091D01*
X128201516Y-71956091D01*
X128208444Y-71956835D01*
X128261127Y-71962500D01*
X130056872Y-71962499D01*
X130116483Y-71956091D01*
X130251331Y-71905796D01*
X130366546Y-71819546D01*
X130452796Y-71704331D01*
X130467255Y-71665562D01*
X130478029Y-71636678D01*
X130503091Y-71569482D01*
X130509500Y-71509873D01*
X130509499Y-69714128D01*
X130503091Y-69654517D01*
X130452796Y-69519669D01*
X130452795Y-69519668D01*
X130452793Y-69519664D01*
X130366547Y-69404455D01*
X130366544Y-69404452D01*
X130251335Y-69318206D01*
X130251328Y-69318202D01*
X130119917Y-69269189D01*
X130063983Y-69227318D01*
X130039566Y-69161853D01*
X130054418Y-69093580D01*
X130075563Y-69065332D01*
X130189104Y-68951792D01*
X130314051Y-68779816D01*
X130410557Y-68590412D01*
X130476246Y-68388243D01*
X130509500Y-68178287D01*
X130509500Y-67965713D01*
X130476246Y-67755757D01*
X130410557Y-67553588D01*
X130314051Y-67364184D01*
X130314049Y-67364181D01*
X130314048Y-67364179D01*
X130189109Y-67192213D01*
X130038786Y-67041890D01*
X129866820Y-66916951D01*
X129866115Y-66916591D01*
X129858054Y-66912485D01*
X129807259Y-66864512D01*
X129790463Y-66796692D01*
X129812999Y-66730556D01*
X129858054Y-66691515D01*
X129866816Y-66687051D01*
X129953138Y-66624335D01*
X130038786Y-66562109D01*
X130038788Y-66562106D01*
X130038792Y-66562104D01*
X130189104Y-66411792D01*
X130189106Y-66411788D01*
X130189109Y-66411786D01*
X130314048Y-66239820D01*
X130314047Y-66239820D01*
X130314051Y-66239816D01*
X130410557Y-66050412D01*
X130476246Y-65848243D01*
X130509500Y-65638287D01*
X130509500Y-65425713D01*
X130476246Y-65215757D01*
X130410557Y-65013588D01*
X130314051Y-64824184D01*
X130300077Y-64804950D01*
X130226511Y-64703694D01*
X130226508Y-64703691D01*
X130189107Y-64652213D01*
X130189104Y-64652208D01*
X130171031Y-64634135D01*
X142286500Y-64634135D01*
X142286500Y-66429870D01*
X142286501Y-66429876D01*
X142292908Y-66489483D01*
X142343202Y-66624328D01*
X142343206Y-66624335D01*
X142429452Y-66739544D01*
X142429455Y-66739547D01*
X142544664Y-66825793D01*
X142544671Y-66825797D01*
X142676082Y-66874810D01*
X142732016Y-66916681D01*
X142756433Y-66982145D01*
X142741582Y-67050418D01*
X142720431Y-67078673D01*
X142606889Y-67192215D01*
X142481951Y-67364179D01*
X142385444Y-67553585D01*
X142319753Y-67755760D01*
X142286500Y-67965713D01*
X142286500Y-68178286D01*
X142319753Y-68388239D01*
X142385444Y-68590414D01*
X142481951Y-68779820D01*
X142606890Y-68951786D01*
X142757213Y-69102109D01*
X142929179Y-69227048D01*
X142929181Y-69227049D01*
X142929184Y-69227051D01*
X142938493Y-69231794D01*
X142989290Y-69279766D01*
X143006087Y-69347587D01*
X142983552Y-69413722D01*
X142938505Y-69452760D01*
X142929446Y-69457376D01*
X142929440Y-69457380D01*
X142875282Y-69496727D01*
X142875282Y-69496728D01*
X143507591Y-70129037D01*
X143444007Y-70146075D01*
X143329993Y-70211901D01*
X143236901Y-70304993D01*
X143171075Y-70419007D01*
X143154037Y-70482591D01*
X142521728Y-69850282D01*
X142521727Y-69850282D01*
X142482380Y-69904439D01*
X142385904Y-70093782D01*
X142320242Y-70295869D01*
X142320242Y-70295872D01*
X142287000Y-70505753D01*
X142287000Y-70718246D01*
X142320242Y-70928127D01*
X142320242Y-70928130D01*
X142385904Y-71130217D01*
X142482375Y-71319550D01*
X142521728Y-71373716D01*
X143154037Y-70741408D01*
X143171075Y-70804993D01*
X143236901Y-70919007D01*
X143329993Y-71012099D01*
X143444007Y-71077925D01*
X143507590Y-71094962D01*
X142875282Y-71727269D01*
X142875282Y-71727270D01*
X142929449Y-71766624D01*
X143118782Y-71863095D01*
X143320870Y-71928757D01*
X143530754Y-71962000D01*
X143743246Y-71962000D01*
X143953127Y-71928757D01*
X143953130Y-71928757D01*
X144155217Y-71863095D01*
X144344554Y-71766622D01*
X144398716Y-71727270D01*
X144398717Y-71727270D01*
X143766408Y-71094962D01*
X143829993Y-71077925D01*
X143944007Y-71012099D01*
X144037099Y-70919007D01*
X144102925Y-70804993D01*
X144119962Y-70741409D01*
X144752270Y-71373717D01*
X144752270Y-71373716D01*
X144791622Y-71319554D01*
X144888095Y-71130217D01*
X144953757Y-70928130D01*
X144953757Y-70928127D01*
X144987000Y-70718246D01*
X144987000Y-70505753D01*
X144953757Y-70295872D01*
X144953757Y-70295869D01*
X144888095Y-70093782D01*
X144791624Y-69904449D01*
X144752270Y-69850282D01*
X144752269Y-69850282D01*
X144119962Y-70482590D01*
X144102925Y-70419007D01*
X144037099Y-70304993D01*
X143944007Y-70211901D01*
X143829993Y-70146075D01*
X143766409Y-70129037D01*
X144398716Y-69496728D01*
X144344547Y-69457373D01*
X144344547Y-69457372D01*
X144335500Y-69452763D01*
X144284706Y-69404788D01*
X144267912Y-69336966D01*
X144290451Y-69270832D01*
X144335508Y-69231793D01*
X144344816Y-69227051D01*
X144434554Y-69161853D01*
X144516786Y-69102109D01*
X144516788Y-69102106D01*
X144516792Y-69102104D01*
X144667104Y-68951792D01*
X144667106Y-68951788D01*
X144667109Y-68951786D01*
X144792048Y-68779820D01*
X144792047Y-68779820D01*
X144792051Y-68779816D01*
X144888557Y-68590412D01*
X144954246Y-68388243D01*
X144987500Y-68178287D01*
X144987500Y-67965713D01*
X144954246Y-67755757D01*
X144888557Y-67553588D01*
X144792051Y-67364184D01*
X144792049Y-67364181D01*
X144792048Y-67364179D01*
X144667109Y-67192213D01*
X144553569Y-67078673D01*
X144520084Y-67017350D01*
X144525068Y-66947658D01*
X144566940Y-66891725D01*
X144597915Y-66874810D01*
X144729331Y-66825796D01*
X144844546Y-66739546D01*
X144930796Y-66624331D01*
X144981091Y-66489483D01*
X144987500Y-66429873D01*
X144987499Y-64634128D01*
X144981091Y-64574517D01*
X144967766Y-64538792D01*
X144930797Y-64439671D01*
X144930793Y-64439664D01*
X144844547Y-64324455D01*
X144844544Y-64324452D01*
X144729335Y-64238206D01*
X144729328Y-64238202D01*
X144594482Y-64187908D01*
X144594483Y-64187908D01*
X144534883Y-64181501D01*
X144534881Y-64181500D01*
X144534873Y-64181500D01*
X144534864Y-64181500D01*
X142739129Y-64181500D01*
X142739123Y-64181501D01*
X142679516Y-64187908D01*
X142544671Y-64238202D01*
X142544664Y-64238206D01*
X142429455Y-64324452D01*
X142429452Y-64324455D01*
X142343206Y-64439664D01*
X142343202Y-64439671D01*
X142292908Y-64574517D01*
X142286501Y-64634116D01*
X142286501Y-64634123D01*
X142286500Y-64634135D01*
X130171031Y-64634135D01*
X130038792Y-64501896D01*
X130038786Y-64501890D01*
X129866820Y-64376951D01*
X129677414Y-64280444D01*
X129677413Y-64280443D01*
X129677412Y-64280443D01*
X129475243Y-64214754D01*
X129475241Y-64214753D01*
X129475240Y-64214753D01*
X129313957Y-64189208D01*
X129265287Y-64181500D01*
X129052713Y-64181500D01*
X129004042Y-64189208D01*
X128842760Y-64214753D01*
X128640585Y-64280444D01*
X128451179Y-64376951D01*
X128279213Y-64501890D01*
X128128890Y-64652213D01*
X128003951Y-64824179D01*
X127907444Y-65013585D01*
X127841753Y-65215760D01*
X127837599Y-65241990D01*
X127808500Y-65425713D01*
X124611213Y-65425713D01*
X124526038Y-65340538D01*
X124526034Y-65340535D01*
X124378553Y-65241990D01*
X124378540Y-65241983D01*
X124214667Y-65174106D01*
X124214658Y-65174103D01*
X124040694Y-65139500D01*
X124040691Y-65139500D01*
X123863309Y-65139500D01*
X123863306Y-65139500D01*
X123689341Y-65174103D01*
X123689332Y-65174106D01*
X123525459Y-65241983D01*
X123525446Y-65241990D01*
X123377965Y-65340535D01*
X123377961Y-65340538D01*
X123252538Y-65465961D01*
X123252535Y-65465965D01*
X123153990Y-65613446D01*
X123153983Y-65613459D01*
X123086106Y-65777332D01*
X123086103Y-65777341D01*
X123051500Y-65951304D01*
X91440500Y-65951304D01*
X91440500Y-63374038D01*
X92379500Y-63374038D01*
X92379500Y-63625961D01*
X92418910Y-63874785D01*
X92496760Y-64114383D01*
X92559850Y-64238202D01*
X92603797Y-64324454D01*
X92611132Y-64338848D01*
X92759201Y-64542649D01*
X92759205Y-64542654D01*
X92937345Y-64720794D01*
X92937350Y-64720798D01*
X93079643Y-64824179D01*
X93141155Y-64868870D01*
X93284184Y-64941747D01*
X93365616Y-64983239D01*
X93365618Y-64983239D01*
X93365621Y-64983241D01*
X93605215Y-65061090D01*
X93854038Y-65100500D01*
X93854039Y-65100500D01*
X94105961Y-65100500D01*
X94105962Y-65100500D01*
X94354785Y-65061090D01*
X94594379Y-64983241D01*
X94818845Y-64868870D01*
X95022656Y-64720793D01*
X95200793Y-64542656D01*
X95348870Y-64338845D01*
X95463241Y-64114379D01*
X95541090Y-63874785D01*
X95580500Y-63625962D01*
X95580500Y-63374038D01*
X172389500Y-63374038D01*
X172389500Y-63625961D01*
X172428910Y-63874785D01*
X172506760Y-64114383D01*
X172569850Y-64238202D01*
X172613797Y-64324454D01*
X172621132Y-64338848D01*
X172769201Y-64542649D01*
X172769205Y-64542654D01*
X172947345Y-64720794D01*
X172947350Y-64720798D01*
X173089643Y-64824179D01*
X173151155Y-64868870D01*
X173294184Y-64941747D01*
X173375616Y-64983239D01*
X173375618Y-64983239D01*
X173375621Y-64983241D01*
X173615215Y-65061090D01*
X173864038Y-65100500D01*
X173864039Y-65100500D01*
X174115961Y-65100500D01*
X174115962Y-65100500D01*
X174364785Y-65061090D01*
X174604379Y-64983241D01*
X174828845Y-64868870D01*
X175032656Y-64720793D01*
X175210793Y-64542656D01*
X175358870Y-64338845D01*
X175473241Y-64114379D01*
X175551090Y-63874785D01*
X175590500Y-63625962D01*
X175590500Y-63374038D01*
X175551090Y-63125215D01*
X175473241Y-62885621D01*
X175473239Y-62885618D01*
X175473239Y-62885616D01*
X175431747Y-62804184D01*
X175358870Y-62661155D01*
X175339952Y-62635117D01*
X175210798Y-62457350D01*
X175210794Y-62457345D01*
X175032654Y-62279205D01*
X175032649Y-62279201D01*
X174828848Y-62131132D01*
X174828847Y-62131131D01*
X174828845Y-62131130D01*
X174758747Y-62095413D01*
X174604383Y-62016760D01*
X174364785Y-61938910D01*
X174115962Y-61899500D01*
X173864038Y-61899500D01*
X173739626Y-61919205D01*
X173615214Y-61938910D01*
X173375616Y-62016760D01*
X173151151Y-62131132D01*
X172947350Y-62279201D01*
X172947345Y-62279205D01*
X172769205Y-62457345D01*
X172769201Y-62457350D01*
X172621132Y-62661151D01*
X172506760Y-62885616D01*
X172428910Y-63125214D01*
X172389500Y-63374038D01*
X95580500Y-63374038D01*
X95541090Y-63125215D01*
X95463241Y-62885621D01*
X95463239Y-62885618D01*
X95463239Y-62885616D01*
X95421747Y-62804184D01*
X95348870Y-62661155D01*
X95329952Y-62635117D01*
X95200798Y-62457350D01*
X95200794Y-62457345D01*
X95022654Y-62279205D01*
X95022649Y-62279201D01*
X94818848Y-62131132D01*
X94818847Y-62131131D01*
X94818845Y-62131130D01*
X94748747Y-62095413D01*
X94594383Y-62016760D01*
X94354785Y-61938910D01*
X94105962Y-61899500D01*
X93854038Y-61899500D01*
X93729626Y-61919205D01*
X93605214Y-61938910D01*
X93365616Y-62016760D01*
X93141151Y-62131132D01*
X92937350Y-62279201D01*
X92937345Y-62279205D01*
X92759205Y-62457345D01*
X92759201Y-62457350D01*
X92611132Y-62661151D01*
X92496760Y-62885616D01*
X92418910Y-63125214D01*
X92379500Y-63374038D01*
X91440500Y-63374038D01*
X91440500Y-61084500D01*
X91460185Y-61017461D01*
X91512989Y-60971706D01*
X91564500Y-60960500D01*
X176405500Y-60960500D01*
X176472539Y-60980185D01*
G37*
%TD.AperFunction*%
%TD*%
M02*
