%TF.GenerationSoftware,KiCad,Pcbnew,9.0.2*%
%TF.CreationDate,2025-12-24T14:08:25+02:00*%
%TF.ProjectId,party_line,70617274-795f-46c6-996e-652e6b696361,rev?*%
%TF.SameCoordinates,Original*%
%TF.FileFunction,Copper,L1,Top*%
%TF.FilePolarity,Positive*%
%FSLAX46Y46*%
G04 Gerber Fmt 4.6, Leading zero omitted, Abs format (unit mm)*
G04 Created by KiCad (PCBNEW 9.0.2) date 2025-12-24 14:08:25*
%MOMM*%
%LPD*%
G01*
G04 APERTURE LIST*
G04 Aperture macros list*
%AMRoundRect*
0 Rectangle with rounded corners*
0 $1 Rounding radius*
0 $2 $3 $4 $5 $6 $7 $8 $9 X,Y pos of 4 corners*
0 Add a 4 corners polygon primitive as box body*
4,1,4,$2,$3,$4,$5,$6,$7,$8,$9,$2,$3,0*
0 Add four circle primitives for the rounded corners*
1,1,$1+$1,$2,$3*
1,1,$1+$1,$4,$5*
1,1,$1+$1,$6,$7*
1,1,$1+$1,$8,$9*
0 Add four rect primitives between the rounded corners*
20,1,$1+$1,$2,$3,$4,$5,0*
20,1,$1+$1,$4,$5,$6,$7,0*
20,1,$1+$1,$6,$7,$8,$9,0*
20,1,$1+$1,$8,$9,$2,$3,0*%
G04 Aperture macros list end*
%ADD10C,0.300000*%
%TA.AperFunction,NonConductor*%
%ADD11C,0.300000*%
%TD*%
%TA.AperFunction,NonConductor*%
%ADD12C,0.200000*%
%TD*%
%TA.AperFunction,SMDPad,CuDef*%
%ADD13RoundRect,0.250000X0.550000X-1.412500X0.550000X1.412500X-0.550000X1.412500X-0.550000X-1.412500X0*%
%TD*%
%TA.AperFunction,SMDPad,CuDef*%
%ADD14RoundRect,0.225000X-0.525000X1.275000X-0.525000X-1.275000X0.525000X-1.275000X0.525000X1.275000X0*%
%TD*%
%TA.AperFunction,SMDPad,CuDef*%
%ADD15RoundRect,0.225000X1.275000X0.525000X-1.275000X0.525000X-1.275000X-0.525000X1.275000X-0.525000X0*%
%TD*%
%TA.AperFunction,SMDPad,CuDef*%
%ADD16RoundRect,0.250000X-0.350000X-0.450000X0.350000X-0.450000X0.350000X0.450000X-0.350000X0.450000X0*%
%TD*%
%TA.AperFunction,SMDPad,CuDef*%
%ADD17RoundRect,0.250000X0.450000X-0.350000X0.450000X0.350000X-0.450000X0.350000X-0.450000X-0.350000X0*%
%TD*%
%TA.AperFunction,ComponentPad*%
%ADD18R,1.700000X1.700000*%
%TD*%
%TA.AperFunction,ComponentPad*%
%ADD19C,1.700000*%
%TD*%
%TA.AperFunction,SMDPad,CuDef*%
%ADD20RoundRect,0.250000X-0.337500X-0.475000X0.337500X-0.475000X0.337500X0.475000X-0.337500X0.475000X0*%
%TD*%
%TA.AperFunction,SMDPad,CuDef*%
%ADD21RoundRect,0.250000X1.412500X0.550000X-1.412500X0.550000X-1.412500X-0.550000X1.412500X-0.550000X0*%
%TD*%
%TA.AperFunction,SMDPad,CuDef*%
%ADD22RoundRect,0.150000X0.150000X-0.675000X0.150000X0.675000X-0.150000X0.675000X-0.150000X-0.675000X0*%
%TD*%
%TA.AperFunction,SMDPad,CuDef*%
%ADD23RoundRect,0.250000X0.650000X-0.412500X0.650000X0.412500X-0.650000X0.412500X-0.650000X-0.412500X0*%
%TD*%
%TA.AperFunction,SMDPad,CuDef*%
%ADD24RoundRect,0.250000X-0.450000X0.350000X-0.450000X-0.350000X0.450000X-0.350000X0.450000X0.350000X0*%
%TD*%
%TA.AperFunction,SMDPad,CuDef*%
%ADD25RoundRect,0.250000X-1.412500X-0.550000X1.412500X-0.550000X1.412500X0.550000X-1.412500X0.550000X0*%
%TD*%
%TA.AperFunction,SMDPad,CuDef*%
%ADD26RoundRect,0.250001X0.799999X-1.999999X0.799999X1.999999X-0.799999X1.999999X-0.799999X-1.999999X0*%
%TD*%
%TA.AperFunction,SMDPad,CuDef*%
%ADD27RoundRect,0.225000X0.525000X-1.275000X0.525000X1.275000X-0.525000X1.275000X-0.525000X-1.275000X0*%
%TD*%
%TA.AperFunction,SMDPad,CuDef*%
%ADD28RoundRect,0.195000X0.805000X-0.455000X0.805000X0.455000X-0.805000X0.455000X-0.805000X-0.455000X0*%
%TD*%
%TA.AperFunction,SMDPad,CuDef*%
%ADD29RoundRect,0.300000X-0.700000X-0.700000X0.700000X-0.700000X0.700000X0.700000X-0.700000X0.700000X0*%
%TD*%
%TA.AperFunction,SMDPad,CuDef*%
%ADD30RoundRect,0.195000X-0.805000X-0.455000X0.805000X-0.455000X0.805000X0.455000X-0.805000X0.455000X0*%
%TD*%
%TA.AperFunction,SMDPad,CuDef*%
%ADD31RoundRect,0.250000X0.475000X-0.337500X0.475000X0.337500X-0.475000X0.337500X-0.475000X-0.337500X0*%
%TD*%
%TA.AperFunction,SMDPad,CuDef*%
%ADD32RoundRect,0.150000X-0.825000X-0.150000X0.825000X-0.150000X0.825000X0.150000X-0.825000X0.150000X0*%
%TD*%
%TA.AperFunction,ViaPad*%
%ADD33C,0.800000*%
%TD*%
%TA.AperFunction,Conductor*%
%ADD34C,0.500000*%
%TD*%
%TA.AperFunction,Conductor*%
%ADD35C,1.000000*%
%TD*%
G04 APERTURE END LIST*
D10*
D11*
X131056429Y-114869185D02*
X131127857Y-114797757D01*
X131127857Y-114797757D02*
X131270715Y-114726328D01*
X131270715Y-114726328D02*
X131627857Y-114726328D01*
X131627857Y-114726328D02*
X131770715Y-114797757D01*
X131770715Y-114797757D02*
X131842143Y-114869185D01*
X131842143Y-114869185D02*
X131913572Y-115012042D01*
X131913572Y-115012042D02*
X131913572Y-115154900D01*
X131913572Y-115154900D02*
X131842143Y-115369185D01*
X131842143Y-115369185D02*
X130985000Y-116226328D01*
X130985000Y-116226328D02*
X131913572Y-116226328D01*
X133199286Y-114726328D02*
X132913571Y-114726328D01*
X132913571Y-114726328D02*
X132770714Y-114797757D01*
X132770714Y-114797757D02*
X132699286Y-114869185D01*
X132699286Y-114869185D02*
X132556428Y-115083471D01*
X132556428Y-115083471D02*
X132485000Y-115369185D01*
X132485000Y-115369185D02*
X132485000Y-115940614D01*
X132485000Y-115940614D02*
X132556428Y-116083471D01*
X132556428Y-116083471D02*
X132627857Y-116154900D01*
X132627857Y-116154900D02*
X132770714Y-116226328D01*
X132770714Y-116226328D02*
X133056428Y-116226328D01*
X133056428Y-116226328D02*
X133199286Y-116154900D01*
X133199286Y-116154900D02*
X133270714Y-116083471D01*
X133270714Y-116083471D02*
X133342143Y-115940614D01*
X133342143Y-115940614D02*
X133342143Y-115583471D01*
X133342143Y-115583471D02*
X133270714Y-115440614D01*
X133270714Y-115440614D02*
X133199286Y-115369185D01*
X133199286Y-115369185D02*
X133056428Y-115297757D01*
X133056428Y-115297757D02*
X132770714Y-115297757D01*
X132770714Y-115297757D02*
X132627857Y-115369185D01*
X132627857Y-115369185D02*
X132556428Y-115440614D01*
X132556428Y-115440614D02*
X132485000Y-115583471D01*
X133984999Y-116083471D02*
X134056428Y-116154900D01*
X134056428Y-116154900D02*
X133984999Y-116226328D01*
X133984999Y-116226328D02*
X133913571Y-116154900D01*
X133913571Y-116154900D02*
X133984999Y-116083471D01*
X133984999Y-116083471D02*
X133984999Y-116226328D01*
X135342143Y-114726328D02*
X135056428Y-114726328D01*
X135056428Y-114726328D02*
X134913571Y-114797757D01*
X134913571Y-114797757D02*
X134842143Y-114869185D01*
X134842143Y-114869185D02*
X134699285Y-115083471D01*
X134699285Y-115083471D02*
X134627857Y-115369185D01*
X134627857Y-115369185D02*
X134627857Y-115940614D01*
X134627857Y-115940614D02*
X134699285Y-116083471D01*
X134699285Y-116083471D02*
X134770714Y-116154900D01*
X134770714Y-116154900D02*
X134913571Y-116226328D01*
X134913571Y-116226328D02*
X135199285Y-116226328D01*
X135199285Y-116226328D02*
X135342143Y-116154900D01*
X135342143Y-116154900D02*
X135413571Y-116083471D01*
X135413571Y-116083471D02*
X135485000Y-115940614D01*
X135485000Y-115940614D02*
X135485000Y-115583471D01*
X135485000Y-115583471D02*
X135413571Y-115440614D01*
X135413571Y-115440614D02*
X135342143Y-115369185D01*
X135342143Y-115369185D02*
X135199285Y-115297757D01*
X135199285Y-115297757D02*
X134913571Y-115297757D01*
X134913571Y-115297757D02*
X134770714Y-115369185D01*
X134770714Y-115369185D02*
X134699285Y-115440614D01*
X134699285Y-115440614D02*
X134627857Y-115583471D01*
X135984999Y-114726328D02*
X136984999Y-114726328D01*
X136984999Y-114726328D02*
X136342142Y-116226328D01*
D12*
X147320000Y-109460000D02*
X147320000Y-117934420D01*
X120650000Y-117934420D02*
X120650000Y-109460000D01*
X147320000Y-117348000D02*
X120650000Y-117348000D01*
X147320000Y-117348000D02*
X146193496Y-117934421D01*
X147320000Y-117348000D02*
X146193496Y-116761579D01*
X120650000Y-117348000D02*
X121776504Y-116761579D01*
X120650000Y-117348000D02*
X121776504Y-117934421D01*
D10*
D11*
X157726429Y-114869185D02*
X157797857Y-114797757D01*
X157797857Y-114797757D02*
X157940715Y-114726328D01*
X157940715Y-114726328D02*
X158297857Y-114726328D01*
X158297857Y-114726328D02*
X158440715Y-114797757D01*
X158440715Y-114797757D02*
X158512143Y-114869185D01*
X158512143Y-114869185D02*
X158583572Y-115012042D01*
X158583572Y-115012042D02*
X158583572Y-115154900D01*
X158583572Y-115154900D02*
X158512143Y-115369185D01*
X158512143Y-115369185D02*
X157655000Y-116226328D01*
X157655000Y-116226328D02*
X158583572Y-116226328D01*
X159869286Y-114726328D02*
X159583571Y-114726328D01*
X159583571Y-114726328D02*
X159440714Y-114797757D01*
X159440714Y-114797757D02*
X159369286Y-114869185D01*
X159369286Y-114869185D02*
X159226428Y-115083471D01*
X159226428Y-115083471D02*
X159155000Y-115369185D01*
X159155000Y-115369185D02*
X159155000Y-115940614D01*
X159155000Y-115940614D02*
X159226428Y-116083471D01*
X159226428Y-116083471D02*
X159297857Y-116154900D01*
X159297857Y-116154900D02*
X159440714Y-116226328D01*
X159440714Y-116226328D02*
X159726428Y-116226328D01*
X159726428Y-116226328D02*
X159869286Y-116154900D01*
X159869286Y-116154900D02*
X159940714Y-116083471D01*
X159940714Y-116083471D02*
X160012143Y-115940614D01*
X160012143Y-115940614D02*
X160012143Y-115583471D01*
X160012143Y-115583471D02*
X159940714Y-115440614D01*
X159940714Y-115440614D02*
X159869286Y-115369185D01*
X159869286Y-115369185D02*
X159726428Y-115297757D01*
X159726428Y-115297757D02*
X159440714Y-115297757D01*
X159440714Y-115297757D02*
X159297857Y-115369185D01*
X159297857Y-115369185D02*
X159226428Y-115440614D01*
X159226428Y-115440614D02*
X159155000Y-115583471D01*
X160654999Y-116083471D02*
X160726428Y-116154900D01*
X160726428Y-116154900D02*
X160654999Y-116226328D01*
X160654999Y-116226328D02*
X160583571Y-116154900D01*
X160583571Y-116154900D02*
X160654999Y-116083471D01*
X160654999Y-116083471D02*
X160654999Y-116226328D01*
X162012143Y-114726328D02*
X161726428Y-114726328D01*
X161726428Y-114726328D02*
X161583571Y-114797757D01*
X161583571Y-114797757D02*
X161512143Y-114869185D01*
X161512143Y-114869185D02*
X161369285Y-115083471D01*
X161369285Y-115083471D02*
X161297857Y-115369185D01*
X161297857Y-115369185D02*
X161297857Y-115940614D01*
X161297857Y-115940614D02*
X161369285Y-116083471D01*
X161369285Y-116083471D02*
X161440714Y-116154900D01*
X161440714Y-116154900D02*
X161583571Y-116226328D01*
X161583571Y-116226328D02*
X161869285Y-116226328D01*
X161869285Y-116226328D02*
X162012143Y-116154900D01*
X162012143Y-116154900D02*
X162083571Y-116083471D01*
X162083571Y-116083471D02*
X162155000Y-115940614D01*
X162155000Y-115940614D02*
X162155000Y-115583471D01*
X162155000Y-115583471D02*
X162083571Y-115440614D01*
X162083571Y-115440614D02*
X162012143Y-115369185D01*
X162012143Y-115369185D02*
X161869285Y-115297757D01*
X161869285Y-115297757D02*
X161583571Y-115297757D01*
X161583571Y-115297757D02*
X161440714Y-115369185D01*
X161440714Y-115369185D02*
X161369285Y-115440614D01*
X161369285Y-115440614D02*
X161297857Y-115583471D01*
X162654999Y-114726328D02*
X163654999Y-114726328D01*
X163654999Y-114726328D02*
X163012142Y-116226328D01*
D12*
X173990000Y-109720000D02*
X173990000Y-117934420D01*
X147320000Y-117934420D02*
X147320000Y-109470000D01*
X173990000Y-117348000D02*
X147320000Y-117348000D01*
X173990000Y-117348000D02*
X172863496Y-117934421D01*
X173990000Y-117348000D02*
X172863496Y-116761579D01*
X147320000Y-117348000D02*
X148446504Y-116761579D01*
X147320000Y-117348000D02*
X148446504Y-117934421D01*
D13*
%TO.P,C4,1*%
%TO.N,VCC*%
X156845000Y-80007500D03*
%TO.P,C4,2*%
%TO.N,GND*%
X156845000Y-74932500D03*
%TD*%
D14*
%TO.P,J1,R1*%
%TO.N,IBus*%
X169230000Y-89860000D03*
%TO.P,J1,R2*%
%TO.N,PBus*%
X165230000Y-89860000D03*
%TO.P,J1,S*%
%TO.N,GND*%
X163830000Y-82860000D03*
%TO.P,J1,T*%
%TO.N,+12V*%
X172230000Y-89860000D03*
%TD*%
D15*
%TO.P,J4,R1*%
%TO.N,Out_R*%
X117150000Y-104460000D03*
%TO.P,J4,R2*%
%TO.N,GND*%
X117150000Y-100460000D03*
%TO.P,J4,S*%
%TO.N,Mic*%
X124150000Y-99060000D03*
%TO.P,J4,T*%
%TO.N,Out_L*%
X117150000Y-107460000D03*
%TD*%
D16*
%TO.P,R17,1*%
%TO.N,GND*%
X131604000Y-74168000D03*
%TO.P,R17,2*%
%TO.N,Net-(SW2-B)*%
X133604000Y-74168000D03*
%TD*%
D17*
%TO.P,R14,1*%
%TO.N,GND*%
X129540000Y-93710000D03*
%TO.P,R14,2*%
%TO.N,Net-(C12-Pad1)*%
X129540000Y-91710000D03*
%TD*%
%TO.P,R15,1*%
%TO.N,Out_L*%
X119380000Y-93710000D03*
%TO.P,R15,2*%
%TO.N,Net-(C12-Pad1)*%
X119380000Y-91710000D03*
%TD*%
D15*
%TO.P,J3,R1*%
%TO.N,PIn_B*%
X143820000Y-104460000D03*
%TO.P,J3,R2*%
%TO.N,GND*%
X143820000Y-100460000D03*
%TO.P,J3,S*%
X150820000Y-99060000D03*
%TO.P,J3,T*%
%TO.N,PIn_A*%
X143820000Y-107460000D03*
%TD*%
D18*
%TO.P,RV3,1,1*%
%TO.N,Net-(SW1-B)*%
X119110000Y-76200000D03*
D19*
%TO.P,RV3,2,2*%
%TO.N,Net-(U2--)*%
X116570000Y-76200000D03*
%TO.P,RV3,3,3*%
%TO.N,GND*%
X114030000Y-76200000D03*
%TD*%
D20*
%TO.P,C3,1*%
%TO.N,Net-(U1A--)*%
X145582500Y-80645000D03*
%TO.P,C3,2*%
%TO.N,Net-(C3-Pad2)*%
X147657500Y-80645000D03*
%TD*%
D18*
%TO.P,SW2,1,A*%
%TO.N,PIn_B*%
X129159000Y-70612000D03*
D19*
%TO.P,SW2,2,B*%
%TO.N,Net-(SW2-B)*%
X129159000Y-68072000D03*
%TO.P,SW2,3,C*%
%TO.N,PIn_A*%
X129159000Y-65532000D03*
%TD*%
D21*
%TO.P,C9,1*%
%TO.N,PBus*%
X172209500Y-77216000D03*
%TO.P,C9,2*%
%TO.N,Net-(C7-Pad2)*%
X167134500Y-77216000D03*
%TD*%
D16*
%TO.P,R10,1*%
%TO.N,GND*%
X121412000Y-79756000D03*
%TO.P,R10,2*%
%TO.N,Net-(SW1-A)*%
X123412000Y-79756000D03*
%TD*%
D17*
%TO.P,R16,1*%
%TO.N,Out_R*%
X124968000Y-93710000D03*
%TO.P,R16,2*%
%TO.N,Net-(C12-Pad1)*%
X124968000Y-91710000D03*
%TD*%
D13*
%TO.P,C7,1*%
%TO.N,Net-(SW2-B)*%
X136144000Y-70609500D03*
%TO.P,C7,2*%
%TO.N,Net-(C7-Pad2)*%
X136144000Y-65534500D03*
%TD*%
D18*
%TO.P,RV2,1,1*%
%TO.N,Net-(C7-Pad2)*%
X143637000Y-65532000D03*
D19*
%TO.P,RV2,2,2*%
%TO.N,Net-(U2-+)*%
X143637000Y-68072000D03*
%TO.P,RV2,3,3*%
%TO.N,GND*%
X143637000Y-70612000D03*
%TD*%
D17*
%TO.P,R6,1*%
%TO.N,VCC*%
X156845000Y-104505000D03*
%TO.P,R6,2*%
%TO.N,VBias*%
X156845000Y-102505000D03*
%TD*%
D22*
%TO.P,U2,1,GAIN*%
%TO.N,unconnected-(U2-GAIN-Pad1)*%
X120015000Y-88985000D03*
%TO.P,U2,2,-*%
%TO.N,Net-(U2--)*%
X121285000Y-88985000D03*
%TO.P,U2,3,+*%
%TO.N,Net-(U2-+)*%
X122555000Y-88985000D03*
%TO.P,U2,4,GND*%
%TO.N,GND*%
X123825000Y-88985000D03*
%TO.P,U2,5*%
%TO.N,Net-(C12-Pad2)*%
X123825000Y-83735000D03*
%TO.P,U2,6,V+*%
%TO.N,+12V*%
X122555000Y-83735000D03*
%TO.P,U2,7,BYPASS*%
%TO.N,unconnected-(U2-BYPASS-Pad7)*%
X121285000Y-83735000D03*
%TO.P,U2,8,GAIN*%
%TO.N,unconnected-(U2-GAIN-Pad8)*%
X120015000Y-83735000D03*
%TD*%
D23*
%TO.P,C6,1*%
%TO.N,Net-(C3-Pad2)*%
X121285000Y-66967500D03*
%TO.P,C6,2*%
%TO.N,Net-(C6-Pad2)*%
X121285000Y-63842500D03*
%TD*%
D24*
%TO.P,R13,1*%
%TO.N,Net-(C11-Pad1)*%
X114300000Y-91710000D03*
%TO.P,R13,2*%
%TO.N,Net-(C12-Pad2)*%
X114300000Y-93710000D03*
%TD*%
%TO.P,R3,1*%
%TO.N,VBias*%
X151065000Y-79645000D03*
%TO.P,R3,2*%
%TO.N,Net-(U1A-+)*%
X151065000Y-81645000D03*
%TD*%
%TO.P,R2,1*%
%TO.N,Net-(R2-Pad1)*%
X159512000Y-86884000D03*
%TO.P,R2,2*%
%TO.N,GND*%
X159512000Y-88884000D03*
%TD*%
D25*
%TO.P,C1,1*%
%TO.N,Net-(C1-Pad1)*%
X141542500Y-87630000D03*
%TO.P,C1,2*%
%TO.N,Mic*%
X146617500Y-87630000D03*
%TD*%
D26*
%TO.P,C2,1*%
%TO.N,VBias*%
X165735000Y-106470000D03*
%TO.P,C2,2*%
%TO.N,GND*%
X165735000Y-99270000D03*
%TD*%
D17*
%TO.P,R5,1*%
%TO.N,+12V*%
X156845000Y-109585000D03*
%TO.P,R5,2*%
%TO.N,VCC*%
X156845000Y-107585000D03*
%TD*%
%TO.P,R8,1*%
%TO.N,GND*%
X112395000Y-66405000D03*
%TO.P,R8,2*%
%TO.N,Net-(C6-Pad2)*%
X112395000Y-64405000D03*
%TD*%
D16*
%TO.P,R1,1*%
%TO.N,Mic*%
X146255000Y-93980000D03*
%TO.P,R1,2*%
%TO.N,GND*%
X148255000Y-93980000D03*
%TD*%
%TO.P,R4,1*%
%TO.N,Net-(C1-Pad1)*%
X140540000Y-80645000D03*
%TO.P,R4,2*%
%TO.N,Net-(U1A--)*%
X142540000Y-80645000D03*
%TD*%
D27*
%TO.P,J2,R1*%
%TO.N,IBus*%
X98740000Y-82860000D03*
%TO.P,J2,R2*%
%TO.N,PBus*%
X102740000Y-82860000D03*
%TO.P,J2,S*%
%TO.N,GND*%
X104140000Y-89860000D03*
%TO.P,J2,T*%
%TO.N,+12V*%
X95740000Y-82860000D03*
%TD*%
D28*
%TO.P,RV1,1,1*%
%TO.N,Net-(U1A--)*%
X145890000Y-77500000D03*
D29*
%TO.P,RV1,2,2*%
%TO.N,Net-(C3-Pad2)*%
X149890000Y-76200000D03*
D30*
%TO.P,RV1,3,3*%
X145890000Y-74900000D03*
%TD*%
D17*
%TO.P,R11,1*%
%TO.N,GND*%
X148209000Y-70596000D03*
%TO.P,R11,2*%
%TO.N,Net-(U2-+)*%
X148209000Y-68596000D03*
%TD*%
D21*
%TO.P,C10,1*%
%TO.N,IBus*%
X169161500Y-67056000D03*
%TO.P,C10,2*%
%TO.N,Net-(SW1-B)*%
X164086500Y-67056000D03*
%TD*%
D16*
%TO.P,R12,1*%
%TO.N,GND*%
X114300000Y-80645000D03*
%TO.P,R12,2*%
%TO.N,Net-(U2--)*%
X116300000Y-80645000D03*
%TD*%
D24*
%TO.P,R9,1*%
%TO.N,Net-(C6-Pad2)*%
X116840000Y-64405000D03*
%TO.P,R9,2*%
%TO.N,Net-(SW1-C)*%
X116840000Y-66405000D03*
%TD*%
D31*
%TO.P,C11,1*%
%TO.N,Net-(C11-Pad1)*%
X114300000Y-88667500D03*
%TO.P,C11,2*%
%TO.N,GND*%
X114300000Y-86592500D03*
%TD*%
D18*
%TO.P,SW1,1,A*%
%TO.N,Net-(SW1-A)*%
X119335000Y-71120000D03*
D19*
%TO.P,SW1,2,B*%
%TO.N,Net-(SW1-B)*%
X116795000Y-71120000D03*
%TO.P,SW1,3,C*%
%TO.N,Net-(SW1-C)*%
X114255000Y-71120000D03*
%TD*%
D20*
%TO.P,C5,1*%
%TO.N,VCC*%
X158474500Y-83820000D03*
%TO.P,C5,2*%
%TO.N,GND*%
X160549500Y-83820000D03*
%TD*%
D17*
%TO.P,R7,1*%
%TO.N,VBias*%
X156845000Y-100060000D03*
%TO.P,R7,2*%
%TO.N,GND*%
X156845000Y-98060000D03*
%TD*%
D32*
%TO.P,U1,1*%
%TO.N,Net-(C3-Pad2)*%
X151130000Y-85725000D03*
%TO.P,U1,2,-*%
%TO.N,Net-(U1A--)*%
X151130000Y-86995000D03*
%TO.P,U1,3,+*%
%TO.N,Net-(U1A-+)*%
X151130000Y-88265000D03*
%TO.P,U1,4,V-*%
%TO.N,GND*%
X151130000Y-89535000D03*
%TO.P,U1,5,+*%
X156080000Y-89535000D03*
%TO.P,U1,6,-*%
X156080000Y-88265000D03*
%TO.P,U1,7*%
%TO.N,Net-(R2-Pad1)*%
X156080000Y-86995000D03*
%TO.P,U1,8,V+*%
%TO.N,VCC*%
X156080000Y-85725000D03*
%TD*%
D13*
%TO.P,C12,1*%
%TO.N,Net-(C12-Pad1)*%
X130810000Y-87630000D03*
%TO.P,C12,2*%
%TO.N,Net-(C12-Pad2)*%
X130810000Y-82555000D03*
%TD*%
D33*
%TO.N,GND*%
X131572000Y-72644000D03*
X131572000Y-93472000D03*
X162560000Y-81788000D03*
%TO.N,PBus*%
X165100000Y-92456000D03*
%TO.N,IBus*%
X169164000Y-93472000D03*
%TO.N,PIn_A*%
X137160000Y-93472000D03*
%TO.N,PIn_B*%
X139700000Y-93472000D03*
%TO.N,GND*%
X141224000Y-100584000D03*
X151384000Y-100584000D03*
X114300000Y-100584000D03*
X104140000Y-92456000D03*
%TO.N,PBus*%
X105664000Y-84328000D03*
%TO.N,IBus*%
X99060000Y-80264000D03*
%TO.N,+12V*%
X96520000Y-79756000D03*
%TO.N,VCC*%
X158496000Y-82296000D03*
X154940000Y-106172000D03*
%TO.N,Net-(C3-Pad2)*%
X150876000Y-73660000D03*
X123952000Y-66040000D03*
%TO.N,+12V*%
X122428000Y-82296000D03*
X154432000Y-109220000D03*
%TO.N,Net-(U2-+)*%
X122428000Y-87376000D03*
X133604000Y-90424000D03*
%TO.N,GND*%
X120103500Y-79651500D03*
X156972000Y-72644000D03*
X159512000Y-89916000D03*
X158496000Y-98044000D03*
X164084000Y-98552000D03*
X162052000Y-83820000D03*
X154432000Y-88392000D03*
X157480000Y-89916000D03*
X149352000Y-89916000D03*
X149860000Y-93980000D03*
X148336000Y-72136000D03*
X112268000Y-68072000D03*
X112268000Y-80772000D03*
X114300000Y-85090000D03*
X125730000Y-88900000D03*
%TO.N,Net-(C12-Pad2)*%
X116332000Y-92456000D03*
X124968000Y-83820000D03*
%TD*%
D34*
%TO.N,Net-(U2-+)*%
X138684000Y-71628000D02*
X138684000Y-85344000D01*
X138684000Y-85344000D02*
X133604000Y-90424000D01*
X142240000Y-68072000D02*
X138684000Y-71628000D01*
X143637000Y-68072000D02*
X142240000Y-68072000D01*
D35*
%TO.N,Net-(SW1-A)*%
X123412000Y-72104000D02*
X123412000Y-79756000D01*
X122428000Y-71120000D02*
X123412000Y-72104000D01*
X119335000Y-71120000D02*
X122428000Y-71120000D01*
X119335000Y-71583000D02*
X119335000Y-71120000D01*
%TO.N,GND*%
X131604000Y-72676000D02*
X131572000Y-72644000D01*
X131604000Y-74168000D02*
X131604000Y-72676000D01*
%TO.N,Net-(SW2-B)*%
X136144000Y-73152000D02*
X136144000Y-70609500D01*
X135128000Y-74168000D02*
X136144000Y-73152000D01*
X133604000Y-74168000D02*
X135128000Y-74168000D01*
%TO.N,GND*%
X131334000Y-93710000D02*
X131572000Y-93472000D01*
X129540000Y-93710000D02*
X131334000Y-93710000D01*
%TO.N,Out_R*%
X112776000Y-100294384D02*
X112776000Y-103124000D01*
X112776000Y-103124000D02*
X114112000Y-104460000D01*
X114518384Y-98552000D02*
X112776000Y-100294384D01*
X114112000Y-104460000D02*
X117150000Y-104460000D01*
X118872000Y-98552000D02*
X114518384Y-98552000D01*
X124968000Y-93710000D02*
X123714000Y-93710000D01*
X123714000Y-93710000D02*
X118872000Y-98552000D01*
%TO.N,Out_L*%
X111252000Y-99822000D02*
X117364000Y-93710000D01*
X111252000Y-105664000D02*
X111252000Y-99822000D01*
X113048000Y-107460000D02*
X111252000Y-105664000D01*
X117364000Y-93710000D02*
X119380000Y-93710000D01*
X117150000Y-107460000D02*
X113048000Y-107460000D01*
%TO.N,PBus*%
X171701500Y-77724000D02*
X172209500Y-77216000D01*
X171701500Y-78234500D02*
X171701500Y-77724000D01*
X164084000Y-87884000D02*
X164084000Y-85852000D01*
X164084000Y-85852000D02*
X171701500Y-78234500D01*
X165230000Y-89030000D02*
X164084000Y-87884000D01*
X165230000Y-89860000D02*
X165230000Y-89030000D01*
%TO.N,IBus*%
X175260000Y-79756000D02*
X169230000Y-85786000D01*
X169230000Y-85786000D02*
X169230000Y-89860000D01*
X175260000Y-73154500D02*
X175260000Y-79756000D01*
X169161500Y-67056000D02*
X175260000Y-73154500D01*
%TO.N,Net-(SW1-B)*%
X162308500Y-67056000D02*
X164086500Y-67056000D01*
X158752500Y-63500000D02*
X162308500Y-67056000D01*
%TO.N,Net-(C7-Pad2)*%
X160020000Y-76708000D02*
X160528000Y-77216000D01*
X160528000Y-77216000D02*
X167134500Y-77216000D01*
%TO.N,GND*%
X163632000Y-82860000D02*
X162560000Y-81788000D01*
X163830000Y-82860000D02*
X163632000Y-82860000D01*
%TO.N,PBus*%
X165100000Y-92456000D02*
X165100000Y-89990000D01*
X165100000Y-89990000D02*
X165230000Y-89860000D01*
%TO.N,IBus*%
X169164000Y-89926000D02*
X169230000Y-89860000D01*
X169164000Y-93472000D02*
X169164000Y-89926000D01*
%TO.N,+12V*%
X172212000Y-105664000D02*
X172212000Y-104648000D01*
X167640000Y-110236000D02*
X172212000Y-105664000D01*
X172212000Y-104648000D02*
X172230000Y-104630000D01*
X163068000Y-110236000D02*
X167640000Y-110236000D01*
X172230000Y-104630000D02*
X172230000Y-89860000D01*
X162417000Y-109585000D02*
X163068000Y-110236000D01*
X156845000Y-109585000D02*
X162417000Y-109585000D01*
%TO.N,PIn_A*%
X137160000Y-105664000D02*
X137160000Y-93472000D01*
X138956000Y-107460000D02*
X137160000Y-105664000D01*
X143820000Y-107460000D02*
X138956000Y-107460000D01*
%TO.N,PIn_B*%
X139700000Y-101840000D02*
X139700000Y-93472000D01*
X142320000Y-104460000D02*
X139700000Y-101840000D01*
X143820000Y-104460000D02*
X142320000Y-104460000D01*
%TO.N,GND*%
X141348000Y-100460000D02*
X141224000Y-100584000D01*
X143820000Y-100460000D02*
X141348000Y-100460000D01*
X150820000Y-100020000D02*
X151384000Y-100584000D01*
X150820000Y-99060000D02*
X150820000Y-100020000D01*
%TO.N,Mic*%
X128524000Y-99060000D02*
X135636000Y-91948000D01*
X124150000Y-99060000D02*
X128524000Y-99060000D01*
%TO.N,GND*%
X114424000Y-100460000D02*
X114300000Y-100584000D01*
X117150000Y-100460000D02*
X114424000Y-100460000D01*
X104140000Y-89860000D02*
X104140000Y-92456000D01*
%TO.N,PBus*%
X105664000Y-84328000D02*
X104208000Y-84328000D01*
X104208000Y-84328000D02*
X102740000Y-82860000D01*
%TO.N,IBus*%
X99060000Y-82540000D02*
X98740000Y-82860000D01*
X99060000Y-80264000D02*
X99060000Y-82540000D01*
%TO.N,+12V*%
X96520000Y-79756000D02*
X96520000Y-82080000D01*
X96520000Y-82080000D02*
X95740000Y-82860000D01*
%TO.N,Mic*%
X135636000Y-91948000D02*
X144223000Y-91948000D01*
X144223000Y-91948000D02*
X146255000Y-93980000D01*
%TO.N,VCC*%
X157469250Y-82814750D02*
X157977250Y-82814750D01*
X157977250Y-82814750D02*
X158496000Y-82296000D01*
X157469250Y-82814750D02*
X158474500Y-83820000D01*
X156845000Y-106172000D02*
X154940000Y-106172000D01*
X156845000Y-107585000D02*
X156845000Y-106172000D01*
X156845000Y-106172000D02*
X156845000Y-104505000D01*
%TO.N,Net-(SW2-B)*%
X133606500Y-68072000D02*
X136144000Y-70609500D01*
X129159000Y-68072000D02*
X133606500Y-68072000D01*
%TO.N,Net-(C3-Pad2)*%
X149636000Y-74900000D02*
X148590000Y-74900000D01*
X150876000Y-73660000D02*
X149636000Y-74900000D01*
X123024500Y-66967500D02*
X123952000Y-66040000D01*
X121285000Y-66967500D02*
X123024500Y-66967500D01*
D34*
%TO.N,Net-(C12-Pad2)*%
X124460000Y-81280000D02*
X129535000Y-81280000D01*
%TO.N,+12V*%
X122555000Y-82423000D02*
X122428000Y-82296000D01*
X122555000Y-83735000D02*
X122555000Y-82423000D01*
D35*
X154797000Y-109585000D02*
X154432000Y-109220000D01*
X156845000Y-109585000D02*
X154797000Y-109585000D01*
D34*
%TO.N,Net-(U2-+)*%
X122428000Y-88858000D02*
X122555000Y-88985000D01*
X122428000Y-87376000D02*
X122428000Y-88858000D01*
%TO.N,VBias*%
X153416000Y-87884000D02*
X153924000Y-87376000D01*
X153416000Y-97536000D02*
X153416000Y-87884000D01*
X155940000Y-100060000D02*
X153416000Y-97536000D01*
X153924000Y-87376000D02*
X153924000Y-82504000D01*
X156845000Y-100060000D02*
X155940000Y-100060000D01*
X153924000Y-82504000D02*
X151065000Y-79645000D01*
D35*
%TO.N,Net-(SW1-B)*%
X116795000Y-70657000D02*
X116795000Y-71120000D01*
X118364000Y-69088000D02*
X116795000Y-70657000D01*
X123952000Y-69088000D02*
X118364000Y-69088000D01*
X127508000Y-62992000D02*
X125984000Y-64516000D01*
X125984000Y-67056000D02*
X123952000Y-69088000D01*
X139192000Y-62992000D02*
X127508000Y-62992000D01*
X125984000Y-64516000D02*
X125984000Y-67056000D01*
X139700000Y-63500000D02*
X139192000Y-62992000D01*
X158752500Y-63500000D02*
X139700000Y-63500000D01*
%TO.N,Net-(C7-Pad2)*%
X160020000Y-71628000D02*
X153924000Y-65532000D01*
X153924000Y-65532000D02*
X143637000Y-65532000D01*
X160020000Y-76708000D02*
X160020000Y-71628000D01*
%TO.N,GND*%
X120208000Y-79756000D02*
X120103500Y-79651500D01*
X121412000Y-79756000D02*
X120208000Y-79756000D01*
X156845000Y-72771000D02*
X156972000Y-72644000D01*
X156845000Y-74932500D02*
X156845000Y-72771000D01*
X159512000Y-88884000D02*
X159512000Y-89916000D01*
D34*
%TO.N,Net-(U1A-+)*%
X152908000Y-84328000D02*
X152908000Y-87376000D01*
X151065000Y-82485000D02*
X152908000Y-84328000D01*
X152019000Y-88265000D02*
X151130000Y-88265000D01*
X151065000Y-81645000D02*
X151065000Y-82485000D01*
X152908000Y-87376000D02*
X152019000Y-88265000D01*
D35*
%TO.N,Net-(C3-Pad2)*%
X147828000Y-78262000D02*
X147828000Y-80474500D01*
X147828000Y-80474500D02*
X147657500Y-80645000D01*
X149890000Y-76200000D02*
X147828000Y-78262000D01*
D34*
%TO.N,Net-(U2--)*%
X116300000Y-82772000D02*
X116300000Y-80645000D01*
X121285000Y-88985000D02*
X121285000Y-87757000D01*
X121285000Y-87757000D02*
X116300000Y-82772000D01*
D35*
%TO.N,VBias*%
X165735000Y-106470000D02*
X161770000Y-102505000D01*
X161770000Y-102505000D02*
X156845000Y-102505000D01*
X156845000Y-102505000D02*
X156845000Y-100060000D01*
%TO.N,GND*%
X158480000Y-98060000D02*
X158496000Y-98044000D01*
X156845000Y-98060000D02*
X158480000Y-98060000D01*
X164802000Y-99270000D02*
X164084000Y-98552000D01*
X165735000Y-99270000D02*
X164802000Y-99270000D01*
X160549500Y-83820000D02*
X162052000Y-83820000D01*
%TO.N,VCC*%
X156845000Y-82190500D02*
X157469250Y-82814750D01*
X156845000Y-80007500D02*
X156845000Y-82190500D01*
D34*
X158474500Y-84857500D02*
X158474500Y-83820000D01*
X157607000Y-85725000D02*
X158474500Y-84857500D01*
X156080000Y-85725000D02*
X157607000Y-85725000D01*
%TO.N,Net-(R2-Pad1)*%
X159401000Y-86995000D02*
X159512000Y-86884000D01*
X156080000Y-86995000D02*
X159401000Y-86995000D01*
%TO.N,GND*%
X154559000Y-88265000D02*
X154432000Y-88392000D01*
X156080000Y-88265000D02*
X154559000Y-88265000D01*
X157099000Y-89535000D02*
X157480000Y-89916000D01*
X156080000Y-89535000D02*
X157099000Y-89535000D01*
X149733000Y-89535000D02*
X149352000Y-89916000D01*
X151130000Y-89535000D02*
X149733000Y-89535000D01*
D35*
%TO.N,Mic*%
X146255000Y-87992500D02*
X146617500Y-87630000D01*
X146255000Y-93980000D02*
X146255000Y-87992500D01*
%TO.N,GND*%
X148255000Y-93980000D02*
X149860000Y-93980000D01*
D34*
%TO.N,Net-(U1A--)*%
X145582500Y-83098500D02*
X145582500Y-80645000D01*
X149479000Y-86995000D02*
X145582500Y-83098500D01*
X151130000Y-86995000D02*
X149479000Y-86995000D01*
%TO.N,Net-(C3-Pad2)*%
X149733000Y-85725000D02*
X147657500Y-83649500D01*
X151130000Y-85725000D02*
X149733000Y-85725000D01*
X147657500Y-83649500D02*
X147657500Y-80645000D01*
D35*
%TO.N,Net-(C1-Pad1)*%
X141542500Y-87630000D02*
X140540000Y-86627500D01*
X140540000Y-86627500D02*
X140540000Y-80645000D01*
%TO.N,Net-(U1A--)*%
X142540000Y-80645000D02*
X145582500Y-80645000D01*
X145582500Y-77807500D02*
X145890000Y-77500000D01*
X145582500Y-80645000D02*
X145582500Y-77807500D01*
%TO.N,Net-(C3-Pad2)*%
X148590000Y-74900000D02*
X149890000Y-76200000D01*
X145890000Y-74900000D02*
X148590000Y-74900000D01*
%TO.N,GND*%
X148209000Y-72009000D02*
X148336000Y-72136000D01*
X148209000Y-70596000D02*
X148209000Y-72009000D01*
%TO.N,Net-(U2-+)*%
X147685000Y-68072000D02*
X148209000Y-68596000D01*
X143637000Y-68072000D02*
X147685000Y-68072000D01*
%TO.N,Net-(C7-Pad2)*%
X143634500Y-65534500D02*
X143637000Y-65532000D01*
X136144000Y-65534500D02*
X143634500Y-65534500D01*
%TO.N,Net-(SW1-B)*%
X119110000Y-74914000D02*
X119110000Y-76200000D01*
X116795000Y-71120000D02*
X116795000Y-72599000D01*
X116795000Y-72599000D02*
X119110000Y-74914000D01*
%TO.N,Net-(SW1-C)*%
X114255000Y-68990000D02*
X116840000Y-66405000D01*
X114255000Y-71120000D02*
X114255000Y-68990000D01*
%TO.N,Net-(C6-Pad2)*%
X117402500Y-63842500D02*
X116840000Y-64405000D01*
X121285000Y-63842500D02*
X117402500Y-63842500D01*
X112395000Y-64405000D02*
X116840000Y-64405000D01*
%TO.N,GND*%
X112395000Y-67945000D02*
X112268000Y-68072000D01*
X112395000Y-66405000D02*
X112395000Y-67945000D01*
X112395000Y-80645000D02*
X112268000Y-80772000D01*
X114300000Y-80645000D02*
X112395000Y-80645000D01*
%TO.N,Net-(U2--)*%
X116570000Y-80375000D02*
X116300000Y-80645000D01*
X116570000Y-76200000D02*
X116570000Y-80375000D01*
D34*
%TO.N,GND*%
X114300000Y-86592500D02*
X114300000Y-85090000D01*
X125645000Y-88985000D02*
X125730000Y-88900000D01*
X123825000Y-88985000D02*
X125645000Y-88985000D01*
%TO.N,Net-(C12-Pad2)*%
X123825000Y-81915000D02*
X124460000Y-81280000D01*
X129535000Y-81280000D02*
X130810000Y-82555000D01*
X123825000Y-83735000D02*
X123825000Y-81915000D01*
D35*
%TO.N,Net-(C12-Pad1)*%
X130810000Y-90440000D02*
X129540000Y-91710000D01*
X130810000Y-87630000D02*
X130810000Y-90440000D01*
X124460000Y-91710000D02*
X129540000Y-91710000D01*
X119380000Y-91710000D02*
X124460000Y-91710000D01*
%TO.N,Net-(C11-Pad1)*%
X114300000Y-91710000D02*
X114300000Y-88667500D01*
D34*
%TO.N,Net-(C12-Pad2)*%
X114300000Y-93710000D02*
X115078000Y-93710000D01*
X124968000Y-83820000D02*
X123910000Y-83820000D01*
X115078000Y-93710000D02*
X116332000Y-92456000D01*
X123910000Y-83820000D02*
X123825000Y-83735000D01*
%TD*%
M02*
