%TF.GenerationSoftware,KiCad,Pcbnew,9.0.2*%
%TF.CreationDate,2025-12-24T14:08:25+02:00*%
%TF.ProjectId,party_line,70617274-795f-46c6-996e-652e6b696361,rev?*%
%TF.SameCoordinates,Original*%
%TF.FileFunction,Copper,L3,Inr*%
%TF.FilePolarity,Positive*%
%FSLAX46Y46*%
G04 Gerber Fmt 4.6, Leading zero omitted, Abs format (unit mm)*
G04 Created by KiCad (PCBNEW 9.0.2) date 2025-12-24 14:08:25*
%MOMM*%
%LPD*%
G01*
G04 APERTURE LIST*
%TA.AperFunction,ComponentPad*%
%ADD10R,1.700000X1.700000*%
%TD*%
%TA.AperFunction,ComponentPad*%
%ADD11C,1.700000*%
%TD*%
%TA.AperFunction,ViaPad*%
%ADD12C,0.800000*%
%TD*%
G04 APERTURE END LIST*
D10*
%TO.N,Net-(SW1-B)*%
%TO.C,RV3*%
X119110000Y-76200000D03*
D11*
%TO.N,Net-(U2--)*%
X116570000Y-76200000D03*
%TO.N,GND*%
X114030000Y-76200000D03*
%TD*%
D10*
%TO.N,PIn_B*%
%TO.C,SW2*%
X129159000Y-70612000D03*
D11*
%TO.N,Net-(SW2-B)*%
X129159000Y-68072000D03*
%TO.N,PIn_A*%
X129159000Y-65532000D03*
%TD*%
D10*
%TO.N,Net-(C7-Pad2)*%
%TO.C,RV2*%
X143637000Y-65532000D03*
D11*
%TO.N,Net-(U2-+)*%
X143637000Y-68072000D03*
%TO.N,GND*%
X143637000Y-70612000D03*
%TD*%
D10*
%TO.N,Net-(SW1-A)*%
%TO.C,SW1*%
X119335000Y-71120000D03*
D11*
%TO.N,Net-(SW1-B)*%
X116795000Y-71120000D03*
%TO.N,Net-(SW1-C)*%
X114255000Y-71120000D03*
%TD*%
D12*
%TO.N,GND*%
X131572000Y-72644000D03*
X131572000Y-93472000D03*
X162560000Y-81788000D03*
%TO.N,PBus*%
X165100000Y-92456000D03*
%TO.N,IBus*%
X169164000Y-93472000D03*
%TO.N,PIn_A*%
X137160000Y-93472000D03*
%TO.N,PIn_B*%
X139700000Y-93472000D03*
%TO.N,GND*%
X141224000Y-100584000D03*
X151384000Y-100584000D03*
X114300000Y-100584000D03*
X104140000Y-92456000D03*
%TO.N,PBus*%
X105664000Y-84328000D03*
%TO.N,IBus*%
X99060000Y-80264000D03*
%TO.N,+12V*%
X96520000Y-79756000D03*
%TO.N,VCC*%
X158496000Y-82296000D03*
X154940000Y-106172000D03*
%TO.N,Net-(C3-Pad2)*%
X150876000Y-73660000D03*
X123952000Y-66040000D03*
%TO.N,+12V*%
X122428000Y-82296000D03*
X154432000Y-109220000D03*
%TO.N,Net-(U2-+)*%
X122428000Y-87376000D03*
X133604000Y-90424000D03*
%TO.N,GND*%
X120103500Y-79651500D03*
X156972000Y-72644000D03*
X159512000Y-89916000D03*
X158496000Y-98044000D03*
X164084000Y-98552000D03*
X162052000Y-83820000D03*
X154432000Y-88392000D03*
X157480000Y-89916000D03*
X149352000Y-89916000D03*
X149860000Y-93980000D03*
X148336000Y-72136000D03*
X112268000Y-68072000D03*
X112268000Y-80772000D03*
X114300000Y-85090000D03*
X125730000Y-88900000D03*
%TO.N,Net-(C12-Pad2)*%
X116332000Y-92456000D03*
X124968000Y-83820000D03*
%TD*%
%TA.AperFunction,Conductor*%
%TO.N,VCC*%
G36*
X176472539Y-60980185D02*
G01*
X176518294Y-61032989D01*
X176529500Y-61084500D01*
X176529500Y-111635500D01*
X176509815Y-111702539D01*
X176457011Y-111748294D01*
X176405500Y-111759500D01*
X91564500Y-111759500D01*
X91497461Y-111739815D01*
X91451706Y-111687011D01*
X91440500Y-111635500D01*
X91440500Y-109094038D01*
X92379500Y-109094038D01*
X92379500Y-109094505D01*
X92379500Y-109345962D01*
X92406998Y-109519576D01*
X92418910Y-109594785D01*
X92496760Y-109834383D01*
X92611132Y-110058848D01*
X92759201Y-110262649D01*
X92759205Y-110262654D01*
X92937345Y-110440794D01*
X92937350Y-110440798D01*
X93115117Y-110569952D01*
X93141155Y-110588870D01*
X93284184Y-110661747D01*
X93365616Y-110703239D01*
X93365618Y-110703239D01*
X93365621Y-110703241D01*
X93605215Y-110781090D01*
X93854038Y-110820500D01*
X93854039Y-110820500D01*
X94105961Y-110820500D01*
X94105962Y-110820500D01*
X94354785Y-110781090D01*
X94594379Y-110703241D01*
X94818845Y-110588870D01*
X95022656Y-110440793D01*
X95200793Y-110262656D01*
X95348870Y-110058845D01*
X95463241Y-109834379D01*
X95541090Y-109594785D01*
X95580500Y-109345962D01*
X95580500Y-109094038D01*
X95546749Y-108880943D01*
X120049500Y-108880943D01*
X120049500Y-108881750D01*
X120049500Y-109039057D01*
X120089790Y-109189419D01*
X120090423Y-109191783D01*
X120090426Y-109191790D01*
X120169475Y-109328709D01*
X120169479Y-109328714D01*
X120169480Y-109328716D01*
X120281284Y-109440520D01*
X120281286Y-109440521D01*
X120281290Y-109440524D01*
X120354285Y-109482667D01*
X120418216Y-109519577D01*
X120570943Y-109560500D01*
X120570945Y-109560500D01*
X120729055Y-109560500D01*
X120729057Y-109560500D01*
X120881784Y-109519577D01*
X121018716Y-109440520D01*
X121130520Y-109328716D01*
X121209577Y-109191784D01*
X121250500Y-109039057D01*
X121250500Y-108880943D01*
X146719500Y-108880943D01*
X146719500Y-108881750D01*
X146719500Y-109039057D01*
X146759790Y-109189419D01*
X146760423Y-109191783D01*
X146760426Y-109191790D01*
X146839475Y-109328709D01*
X146839479Y-109328714D01*
X146839480Y-109328716D01*
X146951284Y-109440520D01*
X146951286Y-109440521D01*
X146951290Y-109440524D01*
X147024285Y-109482667D01*
X147088216Y-109519577D01*
X147240943Y-109560500D01*
X147240945Y-109560500D01*
X147399055Y-109560500D01*
X147399057Y-109560500D01*
X147551784Y-109519577D01*
X147688716Y-109440520D01*
X147800520Y-109328716D01*
X147879577Y-109191784D01*
X147895783Y-109131304D01*
X153531500Y-109131304D01*
X153531500Y-109308695D01*
X153566103Y-109482658D01*
X153566106Y-109482667D01*
X153633983Y-109646540D01*
X153633990Y-109646553D01*
X153732535Y-109794034D01*
X153732538Y-109794038D01*
X153857961Y-109919461D01*
X153857965Y-109919464D01*
X154005446Y-110018009D01*
X154005459Y-110018016D01*
X154096525Y-110055736D01*
X154169334Y-110085894D01*
X154169336Y-110085894D01*
X154169341Y-110085896D01*
X154343304Y-110120499D01*
X154343307Y-110120500D01*
X154343309Y-110120500D01*
X154520693Y-110120500D01*
X154520694Y-110120499D01*
X154578682Y-110108964D01*
X154694658Y-110085896D01*
X154694661Y-110085894D01*
X154694666Y-110085894D01*
X154858547Y-110018013D01*
X155006035Y-109919464D01*
X155131464Y-109794035D01*
X155230013Y-109646547D01*
X155297894Y-109482666D01*
X155306278Y-109440520D01*
X155325179Y-109345495D01*
X155332500Y-109308691D01*
X155332500Y-109131309D01*
X155328929Y-109113356D01*
X155328929Y-109113353D01*
X155325087Y-109094038D01*
X172389500Y-109094038D01*
X172389500Y-109094505D01*
X172389500Y-109345962D01*
X172416998Y-109519576D01*
X172428910Y-109594785D01*
X172506760Y-109834383D01*
X172621132Y-110058848D01*
X172769201Y-110262649D01*
X172769205Y-110262654D01*
X172947345Y-110440794D01*
X172947350Y-110440798D01*
X173125117Y-110569952D01*
X173151155Y-110588870D01*
X173294184Y-110661747D01*
X173375616Y-110703239D01*
X173375618Y-110703239D01*
X173375621Y-110703241D01*
X173615215Y-110781090D01*
X173864038Y-110820500D01*
X173864039Y-110820500D01*
X174115961Y-110820500D01*
X174115962Y-110820500D01*
X174364785Y-110781090D01*
X174604379Y-110703241D01*
X174828845Y-110588870D01*
X175032656Y-110440793D01*
X175210793Y-110262656D01*
X175358870Y-110058845D01*
X175473241Y-109834379D01*
X175551090Y-109594785D01*
X175590500Y-109345962D01*
X175590500Y-109094038D01*
X175551090Y-108845215D01*
X175473241Y-108605621D01*
X175473239Y-108605618D01*
X175473239Y-108605616D01*
X175411468Y-108484385D01*
X175358870Y-108381155D01*
X175314075Y-108319500D01*
X175210798Y-108177350D01*
X175210794Y-108177345D01*
X175032654Y-107999205D01*
X175032649Y-107999201D01*
X174828848Y-107851132D01*
X174828847Y-107851131D01*
X174828845Y-107851130D01*
X174758747Y-107815413D01*
X174604383Y-107736760D01*
X174364785Y-107658910D01*
X174115962Y-107619500D01*
X173864038Y-107619500D01*
X173739626Y-107639205D01*
X173615214Y-107658910D01*
X173375616Y-107736760D01*
X173151151Y-107851132D01*
X172947350Y-107999201D01*
X172947345Y-107999205D01*
X172769205Y-108177345D01*
X172769201Y-108177350D01*
X172621132Y-108381151D01*
X172506760Y-108605616D01*
X172428910Y-108845214D01*
X172398208Y-109039056D01*
X172389500Y-109094038D01*
X155325087Y-109094038D01*
X155297895Y-108957340D01*
X155297894Y-108957334D01*
X155270921Y-108892214D01*
X155230016Y-108793459D01*
X155230009Y-108793446D01*
X155131464Y-108645965D01*
X155131461Y-108645961D01*
X155006038Y-108520538D01*
X155006034Y-108520535D01*
X154858553Y-108421990D01*
X154858540Y-108421983D01*
X154694667Y-108354106D01*
X154694658Y-108354103D01*
X154520694Y-108319500D01*
X154520691Y-108319500D01*
X154343309Y-108319500D01*
X154343306Y-108319500D01*
X154169341Y-108354103D01*
X154169332Y-108354106D01*
X154005459Y-108421983D01*
X154005446Y-108421990D01*
X153857965Y-108520535D01*
X153857961Y-108520538D01*
X153732538Y-108645961D01*
X153732535Y-108645965D01*
X153633990Y-108793446D01*
X153633983Y-108793459D01*
X153566106Y-108957332D01*
X153566103Y-108957341D01*
X153531500Y-109131304D01*
X147895783Y-109131304D01*
X147920500Y-109039057D01*
X147920500Y-108880943D01*
X147879577Y-108728216D01*
X147832090Y-108645965D01*
X147800524Y-108591290D01*
X147800518Y-108591282D01*
X147688717Y-108479481D01*
X147688709Y-108479475D01*
X147551790Y-108400426D01*
X147551786Y-108400424D01*
X147551784Y-108400423D01*
X147399057Y-108359500D01*
X147240943Y-108359500D01*
X147088216Y-108400423D01*
X147088209Y-108400426D01*
X146951290Y-108479475D01*
X146951282Y-108479481D01*
X146839481Y-108591282D01*
X146839475Y-108591290D01*
X146760426Y-108728209D01*
X146760423Y-108728216D01*
X146719500Y-108880943D01*
X121250500Y-108880943D01*
X121209577Y-108728216D01*
X121162090Y-108645965D01*
X121130524Y-108591290D01*
X121130518Y-108591282D01*
X121018717Y-108479481D01*
X121018709Y-108479475D01*
X120881790Y-108400426D01*
X120881786Y-108400424D01*
X120881784Y-108400423D01*
X120729057Y-108359500D01*
X120570943Y-108359500D01*
X120418216Y-108400423D01*
X120418209Y-108400426D01*
X120281290Y-108479475D01*
X120281282Y-108479481D01*
X120169481Y-108591282D01*
X120169475Y-108591290D01*
X120090426Y-108728209D01*
X120090423Y-108728216D01*
X120049500Y-108880943D01*
X95546749Y-108880943D01*
X95541090Y-108845215D01*
X95463241Y-108605621D01*
X95463239Y-108605618D01*
X95463239Y-108605616D01*
X95401468Y-108484385D01*
X95348870Y-108381155D01*
X95304075Y-108319500D01*
X95200798Y-108177350D01*
X95200794Y-108177345D01*
X95022654Y-107999205D01*
X95022649Y-107999201D01*
X94818848Y-107851132D01*
X94818847Y-107851131D01*
X94818845Y-107851130D01*
X94748747Y-107815413D01*
X94594383Y-107736760D01*
X94354785Y-107658910D01*
X94105962Y-107619500D01*
X93854038Y-107619500D01*
X93729626Y-107639205D01*
X93605214Y-107658910D01*
X93365616Y-107736760D01*
X93141151Y-107851132D01*
X92937350Y-107999201D01*
X92937345Y-107999205D01*
X92759205Y-108177345D01*
X92759201Y-108177350D01*
X92611132Y-108381151D01*
X92496760Y-108605616D01*
X92418910Y-108845214D01*
X92388208Y-109039056D01*
X92379500Y-109094038D01*
X91440500Y-109094038D01*
X91440500Y-101880943D01*
X120049500Y-101880943D01*
X120049500Y-101881750D01*
X120049500Y-102039057D01*
X120089790Y-102189419D01*
X120090423Y-102191783D01*
X120090426Y-102191790D01*
X120169475Y-102328709D01*
X120169479Y-102328714D01*
X120169480Y-102328716D01*
X120281284Y-102440520D01*
X120281286Y-102440521D01*
X120281290Y-102440524D01*
X120408324Y-102513866D01*
X120418216Y-102519577D01*
X120570943Y-102560500D01*
X120570945Y-102560500D01*
X120729055Y-102560500D01*
X120729057Y-102560500D01*
X120881784Y-102519577D01*
X121018716Y-102440520D01*
X121130520Y-102328716D01*
X121209577Y-102191784D01*
X121250500Y-102039057D01*
X121250500Y-101880943D01*
X146719500Y-101880943D01*
X146719500Y-101881750D01*
X146719500Y-102039057D01*
X146759790Y-102189419D01*
X146760423Y-102191783D01*
X146760426Y-102191790D01*
X146839475Y-102328709D01*
X146839479Y-102328714D01*
X146839480Y-102328716D01*
X146951284Y-102440520D01*
X146951286Y-102440521D01*
X146951290Y-102440524D01*
X147078324Y-102513866D01*
X147088216Y-102519577D01*
X147240943Y-102560500D01*
X147240945Y-102560500D01*
X147399055Y-102560500D01*
X147399057Y-102560500D01*
X147551784Y-102519577D01*
X147688716Y-102440520D01*
X147800520Y-102328716D01*
X147879577Y-102191784D01*
X147920500Y-102039057D01*
X147920500Y-101880943D01*
X147879577Y-101728216D01*
X147879573Y-101728209D01*
X147800524Y-101591290D01*
X147800518Y-101591282D01*
X147688717Y-101479481D01*
X147688709Y-101479475D01*
X147551790Y-101400426D01*
X147551786Y-101400424D01*
X147551784Y-101400423D01*
X147399057Y-101359500D01*
X147240943Y-101359500D01*
X147088216Y-101400423D01*
X147088209Y-101400426D01*
X146951290Y-101479475D01*
X146951282Y-101479481D01*
X146839481Y-101591282D01*
X146839475Y-101591290D01*
X146760426Y-101728209D01*
X146760423Y-101728216D01*
X146719500Y-101880943D01*
X121250500Y-101880943D01*
X121209577Y-101728216D01*
X121209573Y-101728209D01*
X121130524Y-101591290D01*
X121130518Y-101591282D01*
X121018717Y-101479481D01*
X121018709Y-101479475D01*
X120881790Y-101400426D01*
X120881786Y-101400424D01*
X120881784Y-101400423D01*
X120729057Y-101359500D01*
X120570943Y-101359500D01*
X120418216Y-101400423D01*
X120418209Y-101400426D01*
X120281290Y-101479475D01*
X120281282Y-101479481D01*
X120169481Y-101591282D01*
X120169475Y-101591290D01*
X120090426Y-101728209D01*
X120090423Y-101728216D01*
X120049500Y-101880943D01*
X91440500Y-101880943D01*
X91440500Y-100495304D01*
X113399500Y-100495304D01*
X113399500Y-100672695D01*
X113434103Y-100846658D01*
X113434106Y-100846667D01*
X113501983Y-101010540D01*
X113501990Y-101010553D01*
X113600535Y-101158034D01*
X113600538Y-101158038D01*
X113725961Y-101283461D01*
X113725965Y-101283464D01*
X113873446Y-101382009D01*
X113873459Y-101382016D01*
X113996363Y-101432923D01*
X114037334Y-101449894D01*
X114037336Y-101449894D01*
X114037341Y-101449896D01*
X114211304Y-101484499D01*
X114211307Y-101484500D01*
X114211309Y-101484500D01*
X114388693Y-101484500D01*
X114388694Y-101484499D01*
X114446682Y-101472964D01*
X114562658Y-101449896D01*
X114562661Y-101449894D01*
X114562666Y-101449894D01*
X114726547Y-101382013D01*
X114874035Y-101283464D01*
X114999464Y-101158035D01*
X115098013Y-101010547D01*
X115165894Y-100846666D01*
X115200500Y-100672691D01*
X115200500Y-100495309D01*
X115200500Y-100495306D01*
X115200499Y-100495304D01*
X140323500Y-100495304D01*
X140323500Y-100672695D01*
X140358103Y-100846658D01*
X140358106Y-100846667D01*
X140425983Y-101010540D01*
X140425990Y-101010553D01*
X140524535Y-101158034D01*
X140524538Y-101158038D01*
X140649961Y-101283461D01*
X140649965Y-101283464D01*
X140797446Y-101382009D01*
X140797459Y-101382016D01*
X140920363Y-101432923D01*
X140961334Y-101449894D01*
X140961336Y-101449894D01*
X140961341Y-101449896D01*
X141135304Y-101484499D01*
X141135307Y-101484500D01*
X141135309Y-101484500D01*
X141312693Y-101484500D01*
X141312694Y-101484499D01*
X141370682Y-101472964D01*
X141486658Y-101449896D01*
X141486661Y-101449894D01*
X141486666Y-101449894D01*
X141650547Y-101382013D01*
X141798035Y-101283464D01*
X141923464Y-101158035D01*
X142022013Y-101010547D01*
X142089894Y-100846666D01*
X142124500Y-100672691D01*
X142124500Y-100495309D01*
X142124500Y-100495306D01*
X142124499Y-100495304D01*
X150483500Y-100495304D01*
X150483500Y-100672695D01*
X150518103Y-100846658D01*
X150518106Y-100846667D01*
X150585983Y-101010540D01*
X150585990Y-101010553D01*
X150684535Y-101158034D01*
X150684538Y-101158038D01*
X150809961Y-101283461D01*
X150809965Y-101283464D01*
X150957446Y-101382009D01*
X150957459Y-101382016D01*
X151080363Y-101432923D01*
X151121334Y-101449894D01*
X151121336Y-101449894D01*
X151121341Y-101449896D01*
X151295304Y-101484499D01*
X151295307Y-101484500D01*
X151295309Y-101484500D01*
X151472693Y-101484500D01*
X151472694Y-101484499D01*
X151530682Y-101472964D01*
X151646658Y-101449896D01*
X151646661Y-101449894D01*
X151646666Y-101449894D01*
X151810547Y-101382013D01*
X151958035Y-101283464D01*
X152083464Y-101158035D01*
X152182013Y-101010547D01*
X152249894Y-100846666D01*
X152284500Y-100672691D01*
X152284500Y-100495309D01*
X152284500Y-100495306D01*
X152284499Y-100495304D01*
X152249896Y-100321341D01*
X152249893Y-100321332D01*
X152182016Y-100157459D01*
X152182009Y-100157446D01*
X152083464Y-100009965D01*
X152083461Y-100009961D01*
X151958038Y-99884538D01*
X151958034Y-99884535D01*
X151810553Y-99785990D01*
X151810540Y-99785983D01*
X151646667Y-99718106D01*
X151646658Y-99718103D01*
X151472694Y-99683500D01*
X151472691Y-99683500D01*
X151295309Y-99683500D01*
X151295306Y-99683500D01*
X151121341Y-99718103D01*
X151121332Y-99718106D01*
X150957459Y-99785983D01*
X150957446Y-99785990D01*
X150809965Y-99884535D01*
X150809961Y-99884538D01*
X150684538Y-100009961D01*
X150684535Y-100009965D01*
X150585990Y-100157446D01*
X150585983Y-100157459D01*
X150518106Y-100321332D01*
X150518103Y-100321341D01*
X150483500Y-100495304D01*
X142124499Y-100495304D01*
X142089896Y-100321341D01*
X142089893Y-100321332D01*
X142022016Y-100157459D01*
X142022009Y-100157446D01*
X141923464Y-100009965D01*
X141923461Y-100009961D01*
X141798038Y-99884538D01*
X141798034Y-99884535D01*
X141650553Y-99785990D01*
X141650540Y-99785983D01*
X141486667Y-99718106D01*
X141486658Y-99718103D01*
X141312694Y-99683500D01*
X141312691Y-99683500D01*
X141135309Y-99683500D01*
X141135306Y-99683500D01*
X140961341Y-99718103D01*
X140961332Y-99718106D01*
X140797459Y-99785983D01*
X140797446Y-99785990D01*
X140649965Y-99884535D01*
X140649961Y-99884538D01*
X140524538Y-100009961D01*
X140524535Y-100009965D01*
X140425990Y-100157446D01*
X140425983Y-100157459D01*
X140358106Y-100321332D01*
X140358103Y-100321341D01*
X140323500Y-100495304D01*
X115200499Y-100495304D01*
X115165896Y-100321341D01*
X115165893Y-100321332D01*
X115098016Y-100157459D01*
X115098009Y-100157446D01*
X114999464Y-100009965D01*
X114999461Y-100009961D01*
X114874038Y-99884538D01*
X114874034Y-99884535D01*
X114726553Y-99785990D01*
X114726540Y-99785983D01*
X114562667Y-99718106D01*
X114562658Y-99718103D01*
X114388694Y-99683500D01*
X114388691Y-99683500D01*
X114211309Y-99683500D01*
X114211306Y-99683500D01*
X114037341Y-99718103D01*
X114037332Y-99718106D01*
X113873459Y-99785983D01*
X113873446Y-99785990D01*
X113725965Y-99884535D01*
X113725961Y-99884538D01*
X113600538Y-100009961D01*
X113600535Y-100009965D01*
X113501990Y-100157446D01*
X113501983Y-100157459D01*
X113434106Y-100321332D01*
X113434103Y-100321341D01*
X113399500Y-100495304D01*
X91440500Y-100495304D01*
X91440500Y-97955304D01*
X157595500Y-97955304D01*
X157595500Y-98132695D01*
X157630103Y-98306658D01*
X157630106Y-98306667D01*
X157697983Y-98470540D01*
X157697990Y-98470553D01*
X157796535Y-98618034D01*
X157796538Y-98618038D01*
X157921961Y-98743461D01*
X157921965Y-98743464D01*
X158069446Y-98842009D01*
X158069459Y-98842016D01*
X158192363Y-98892923D01*
X158233334Y-98909894D01*
X158233336Y-98909894D01*
X158233341Y-98909896D01*
X158407304Y-98944499D01*
X158407307Y-98944500D01*
X158407309Y-98944500D01*
X158584693Y-98944500D01*
X158584694Y-98944499D01*
X158642682Y-98932964D01*
X158758658Y-98909896D01*
X158758661Y-98909894D01*
X158758666Y-98909894D01*
X158922547Y-98842013D01*
X159070035Y-98743464D01*
X159195464Y-98618035D01*
X159294013Y-98470547D01*
X159297013Y-98463304D01*
X163183500Y-98463304D01*
X163183500Y-98640695D01*
X163218103Y-98814658D01*
X163218106Y-98814667D01*
X163285983Y-98978540D01*
X163285990Y-98978553D01*
X163384535Y-99126034D01*
X163384538Y-99126038D01*
X163509961Y-99251461D01*
X163509965Y-99251464D01*
X163657446Y-99350009D01*
X163657459Y-99350016D01*
X163780363Y-99400923D01*
X163821334Y-99417894D01*
X163821336Y-99417894D01*
X163821341Y-99417896D01*
X163995304Y-99452499D01*
X163995307Y-99452500D01*
X163995309Y-99452500D01*
X164172693Y-99452500D01*
X164172694Y-99452499D01*
X164230682Y-99440964D01*
X164346658Y-99417896D01*
X164346661Y-99417894D01*
X164346666Y-99417894D01*
X164510547Y-99350013D01*
X164658035Y-99251464D01*
X164783464Y-99126035D01*
X164882013Y-98978547D01*
X164949894Y-98814666D01*
X164984500Y-98640691D01*
X164984500Y-98463309D01*
X164984500Y-98463306D01*
X164984499Y-98463304D01*
X164949896Y-98289341D01*
X164949893Y-98289332D01*
X164882016Y-98125459D01*
X164882009Y-98125446D01*
X164783464Y-97977965D01*
X164783461Y-97977961D01*
X164658038Y-97852538D01*
X164658034Y-97852535D01*
X164510553Y-97753990D01*
X164510540Y-97753983D01*
X164346667Y-97686106D01*
X164346658Y-97686103D01*
X164172694Y-97651500D01*
X164172691Y-97651500D01*
X163995309Y-97651500D01*
X163995306Y-97651500D01*
X163821341Y-97686103D01*
X163821332Y-97686106D01*
X163657459Y-97753983D01*
X163657446Y-97753990D01*
X163509965Y-97852535D01*
X163509961Y-97852538D01*
X163384538Y-97977961D01*
X163384535Y-97977965D01*
X163285990Y-98125446D01*
X163285983Y-98125459D01*
X163218106Y-98289332D01*
X163218103Y-98289341D01*
X163183500Y-98463304D01*
X159297013Y-98463304D01*
X159361894Y-98306666D01*
X159365341Y-98289341D01*
X159396499Y-98132695D01*
X159396500Y-98132693D01*
X159396500Y-97955306D01*
X159396499Y-97955304D01*
X159361896Y-97781341D01*
X159361893Y-97781332D01*
X159294016Y-97617459D01*
X159294009Y-97617446D01*
X159195464Y-97469965D01*
X159195461Y-97469961D01*
X159070038Y-97344538D01*
X159070034Y-97344535D01*
X158922553Y-97245990D01*
X158922540Y-97245983D01*
X158758667Y-97178106D01*
X158758658Y-97178103D01*
X158584694Y-97143500D01*
X158584691Y-97143500D01*
X158407309Y-97143500D01*
X158407306Y-97143500D01*
X158233341Y-97178103D01*
X158233332Y-97178106D01*
X158069459Y-97245983D01*
X158069446Y-97245990D01*
X157921965Y-97344535D01*
X157921961Y-97344538D01*
X157796538Y-97469961D01*
X157796535Y-97469965D01*
X157697990Y-97617446D01*
X157697983Y-97617459D01*
X157630106Y-97781332D01*
X157630103Y-97781341D01*
X157595500Y-97955304D01*
X91440500Y-97955304D01*
X91440500Y-93383304D01*
X130671500Y-93383304D01*
X130671500Y-93560695D01*
X130706103Y-93734658D01*
X130706106Y-93734667D01*
X130773983Y-93898540D01*
X130773990Y-93898553D01*
X130872535Y-94046034D01*
X130872538Y-94046038D01*
X130997961Y-94171461D01*
X130997965Y-94171464D01*
X131145446Y-94270009D01*
X131145459Y-94270016D01*
X131268363Y-94320923D01*
X131309334Y-94337894D01*
X131309336Y-94337894D01*
X131309341Y-94337896D01*
X131483304Y-94372499D01*
X131483307Y-94372500D01*
X131483309Y-94372500D01*
X131660693Y-94372500D01*
X131660694Y-94372499D01*
X131718682Y-94360964D01*
X131834658Y-94337896D01*
X131834661Y-94337894D01*
X131834666Y-94337894D01*
X131998547Y-94270013D01*
X132146035Y-94171464D01*
X132271464Y-94046035D01*
X132370013Y-93898547D01*
X132437894Y-93734666D01*
X132441341Y-93717341D01*
X132472499Y-93560695D01*
X132472500Y-93560693D01*
X132472500Y-93383306D01*
X132472499Y-93383304D01*
X136259500Y-93383304D01*
X136259500Y-93560695D01*
X136294103Y-93734658D01*
X136294106Y-93734667D01*
X136361983Y-93898540D01*
X136361990Y-93898553D01*
X136460535Y-94046034D01*
X136460538Y-94046038D01*
X136585961Y-94171461D01*
X136585965Y-94171464D01*
X136733446Y-94270009D01*
X136733459Y-94270016D01*
X136856363Y-94320923D01*
X136897334Y-94337894D01*
X136897336Y-94337894D01*
X136897341Y-94337896D01*
X137071304Y-94372499D01*
X137071307Y-94372500D01*
X137071309Y-94372500D01*
X137248693Y-94372500D01*
X137248694Y-94372499D01*
X137306682Y-94360964D01*
X137422658Y-94337896D01*
X137422661Y-94337894D01*
X137422666Y-94337894D01*
X137586547Y-94270013D01*
X137734035Y-94171464D01*
X137859464Y-94046035D01*
X137958013Y-93898547D01*
X138025894Y-93734666D01*
X138029341Y-93717341D01*
X138060499Y-93560695D01*
X138060500Y-93560693D01*
X138060500Y-93383306D01*
X138060499Y-93383304D01*
X138799500Y-93383304D01*
X138799500Y-93560695D01*
X138834103Y-93734658D01*
X138834106Y-93734667D01*
X138901983Y-93898540D01*
X138901990Y-93898553D01*
X139000535Y-94046034D01*
X139000538Y-94046038D01*
X139125961Y-94171461D01*
X139125965Y-94171464D01*
X139273446Y-94270009D01*
X139273459Y-94270016D01*
X139396363Y-94320923D01*
X139437334Y-94337894D01*
X139437336Y-94337894D01*
X139437341Y-94337896D01*
X139611304Y-94372499D01*
X139611307Y-94372500D01*
X139611309Y-94372500D01*
X139788693Y-94372500D01*
X139788694Y-94372499D01*
X139846682Y-94360964D01*
X139962658Y-94337896D01*
X139962661Y-94337894D01*
X139962666Y-94337894D01*
X140126547Y-94270013D01*
X140274035Y-94171464D01*
X140399464Y-94046035D01*
X140498013Y-93898547D01*
X140501013Y-93891304D01*
X148959500Y-93891304D01*
X148959500Y-94068695D01*
X148994103Y-94242658D01*
X148994106Y-94242667D01*
X149061983Y-94406540D01*
X149061990Y-94406553D01*
X149160535Y-94554034D01*
X149160538Y-94554038D01*
X149285961Y-94679461D01*
X149285965Y-94679464D01*
X149433446Y-94778009D01*
X149433459Y-94778016D01*
X149556363Y-94828923D01*
X149597334Y-94845894D01*
X149597336Y-94845894D01*
X149597341Y-94845896D01*
X149771304Y-94880499D01*
X149771307Y-94880500D01*
X149771309Y-94880500D01*
X149948693Y-94880500D01*
X149948694Y-94880499D01*
X150006682Y-94868964D01*
X150122658Y-94845896D01*
X150122661Y-94845894D01*
X150122666Y-94845894D01*
X150286547Y-94778013D01*
X150434035Y-94679464D01*
X150559464Y-94554035D01*
X150658013Y-94406547D01*
X150725894Y-94242666D01*
X150760500Y-94068691D01*
X150760500Y-93891309D01*
X150760500Y-93891306D01*
X150760499Y-93891304D01*
X150725896Y-93717341D01*
X150725893Y-93717332D01*
X150658016Y-93553459D01*
X150658009Y-93553446D01*
X150559464Y-93405965D01*
X150559461Y-93405961D01*
X150536804Y-93383304D01*
X168263500Y-93383304D01*
X168263500Y-93560695D01*
X168298103Y-93734658D01*
X168298106Y-93734667D01*
X168365983Y-93898540D01*
X168365990Y-93898553D01*
X168464535Y-94046034D01*
X168464538Y-94046038D01*
X168589961Y-94171461D01*
X168589965Y-94171464D01*
X168737446Y-94270009D01*
X168737459Y-94270016D01*
X168860363Y-94320923D01*
X168901334Y-94337894D01*
X168901336Y-94337894D01*
X168901341Y-94337896D01*
X169075304Y-94372499D01*
X169075307Y-94372500D01*
X169075309Y-94372500D01*
X169252693Y-94372500D01*
X169252694Y-94372499D01*
X169310682Y-94360964D01*
X169426658Y-94337896D01*
X169426661Y-94337894D01*
X169426666Y-94337894D01*
X169590547Y-94270013D01*
X169738035Y-94171464D01*
X169863464Y-94046035D01*
X169962013Y-93898547D01*
X170029894Y-93734666D01*
X170033341Y-93717341D01*
X170064499Y-93560695D01*
X170064500Y-93560693D01*
X170064500Y-93383306D01*
X170064499Y-93383304D01*
X170029896Y-93209341D01*
X170029893Y-93209332D01*
X169962016Y-93045459D01*
X169962009Y-93045446D01*
X169863464Y-92897965D01*
X169863461Y-92897961D01*
X169738038Y-92772538D01*
X169738034Y-92772535D01*
X169590553Y-92673990D01*
X169590540Y-92673983D01*
X169426667Y-92606106D01*
X169426658Y-92606103D01*
X169252694Y-92571500D01*
X169252691Y-92571500D01*
X169075309Y-92571500D01*
X169075306Y-92571500D01*
X168901341Y-92606103D01*
X168901332Y-92606106D01*
X168737459Y-92673983D01*
X168737446Y-92673990D01*
X168589965Y-92772535D01*
X168589961Y-92772538D01*
X168464538Y-92897961D01*
X168464535Y-92897965D01*
X168365990Y-93045446D01*
X168365983Y-93045459D01*
X168298106Y-93209332D01*
X168298103Y-93209341D01*
X168263500Y-93383304D01*
X150536804Y-93383304D01*
X150434038Y-93280538D01*
X150434034Y-93280535D01*
X150286553Y-93181990D01*
X150286540Y-93181983D01*
X150122667Y-93114106D01*
X150122658Y-93114103D01*
X149948694Y-93079500D01*
X149948691Y-93079500D01*
X149771309Y-93079500D01*
X149771306Y-93079500D01*
X149597341Y-93114103D01*
X149597332Y-93114106D01*
X149433459Y-93181983D01*
X149433446Y-93181990D01*
X149285965Y-93280535D01*
X149285961Y-93280538D01*
X149160538Y-93405961D01*
X149160535Y-93405965D01*
X149061990Y-93553446D01*
X149061983Y-93553459D01*
X148994106Y-93717332D01*
X148994103Y-93717341D01*
X148959500Y-93891304D01*
X140501013Y-93891304D01*
X140565894Y-93734666D01*
X140569341Y-93717341D01*
X140600499Y-93560695D01*
X140600500Y-93560693D01*
X140600500Y-93383306D01*
X140600499Y-93383304D01*
X140565896Y-93209341D01*
X140565893Y-93209332D01*
X140498016Y-93045459D01*
X140498009Y-93045446D01*
X140399464Y-92897965D01*
X140399461Y-92897961D01*
X140274038Y-92772538D01*
X140274034Y-92772535D01*
X140126553Y-92673990D01*
X140126540Y-92673983D01*
X139962667Y-92606106D01*
X139962658Y-92606103D01*
X139788694Y-92571500D01*
X139788691Y-92571500D01*
X139611309Y-92571500D01*
X139611306Y-92571500D01*
X139437341Y-92606103D01*
X139437332Y-92606106D01*
X139273459Y-92673983D01*
X139273446Y-92673990D01*
X139125965Y-92772535D01*
X139125961Y-92772538D01*
X139000538Y-92897961D01*
X139000535Y-92897965D01*
X138901990Y-93045446D01*
X138901983Y-93045459D01*
X138834106Y-93209332D01*
X138834103Y-93209341D01*
X138799500Y-93383304D01*
X138060499Y-93383304D01*
X138025896Y-93209341D01*
X138025893Y-93209332D01*
X137958016Y-93045459D01*
X137958009Y-93045446D01*
X137859464Y-92897965D01*
X137859461Y-92897961D01*
X137734038Y-92772538D01*
X137734034Y-92772535D01*
X137586553Y-92673990D01*
X137586540Y-92673983D01*
X137422667Y-92606106D01*
X137422658Y-92606103D01*
X137248694Y-92571500D01*
X137248691Y-92571500D01*
X137071309Y-92571500D01*
X137071306Y-92571500D01*
X136897341Y-92606103D01*
X136897332Y-92606106D01*
X136733459Y-92673983D01*
X136733446Y-92673990D01*
X136585965Y-92772535D01*
X136585961Y-92772538D01*
X136460538Y-92897961D01*
X136460535Y-92897965D01*
X136361990Y-93045446D01*
X136361983Y-93045459D01*
X136294106Y-93209332D01*
X136294103Y-93209341D01*
X136259500Y-93383304D01*
X132472499Y-93383304D01*
X132437896Y-93209341D01*
X132437893Y-93209332D01*
X132370016Y-93045459D01*
X132370009Y-93045446D01*
X132271464Y-92897965D01*
X132271461Y-92897961D01*
X132146038Y-92772538D01*
X132146034Y-92772535D01*
X131998553Y-92673990D01*
X131998540Y-92673983D01*
X131834667Y-92606106D01*
X131834658Y-92606103D01*
X131660694Y-92571500D01*
X131660691Y-92571500D01*
X131483309Y-92571500D01*
X131483306Y-92571500D01*
X131309341Y-92606103D01*
X131309332Y-92606106D01*
X131145459Y-92673983D01*
X131145446Y-92673990D01*
X130997965Y-92772535D01*
X130997961Y-92772538D01*
X130872538Y-92897961D01*
X130872535Y-92897965D01*
X130773990Y-93045446D01*
X130773983Y-93045459D01*
X130706106Y-93209332D01*
X130706103Y-93209341D01*
X130671500Y-93383304D01*
X91440500Y-93383304D01*
X91440500Y-92367304D01*
X103239500Y-92367304D01*
X103239500Y-92544695D01*
X103274103Y-92718658D01*
X103274106Y-92718667D01*
X103341983Y-92882540D01*
X103341990Y-92882553D01*
X103440535Y-93030034D01*
X103440538Y-93030038D01*
X103565961Y-93155461D01*
X103565965Y-93155464D01*
X103713446Y-93254009D01*
X103713459Y-93254016D01*
X103836363Y-93304923D01*
X103877334Y-93321894D01*
X103877336Y-93321894D01*
X103877341Y-93321896D01*
X104051304Y-93356499D01*
X104051307Y-93356500D01*
X104051309Y-93356500D01*
X104228693Y-93356500D01*
X104228694Y-93356499D01*
X104286682Y-93344964D01*
X104402658Y-93321896D01*
X104402661Y-93321894D01*
X104402666Y-93321894D01*
X104566547Y-93254013D01*
X104714035Y-93155464D01*
X104839464Y-93030035D01*
X104938013Y-92882547D01*
X105005894Y-92718666D01*
X105014782Y-92673987D01*
X105040499Y-92544695D01*
X105040500Y-92544693D01*
X105040500Y-92367306D01*
X105040499Y-92367304D01*
X115431500Y-92367304D01*
X115431500Y-92544695D01*
X115466103Y-92718658D01*
X115466106Y-92718667D01*
X115533983Y-92882540D01*
X115533990Y-92882553D01*
X115632535Y-93030034D01*
X115632538Y-93030038D01*
X115757961Y-93155461D01*
X115757965Y-93155464D01*
X115905446Y-93254009D01*
X115905459Y-93254016D01*
X116028363Y-93304923D01*
X116069334Y-93321894D01*
X116069336Y-93321894D01*
X116069341Y-93321896D01*
X116243304Y-93356499D01*
X116243307Y-93356500D01*
X116243309Y-93356500D01*
X116420693Y-93356500D01*
X116420694Y-93356499D01*
X116478682Y-93344964D01*
X116594658Y-93321896D01*
X116594661Y-93321894D01*
X116594666Y-93321894D01*
X116669930Y-93290718D01*
X116737682Y-93262656D01*
X116758540Y-93254016D01*
X116758540Y-93254015D01*
X116758547Y-93254013D01*
X116906035Y-93155464D01*
X117031464Y-93030035D01*
X117130013Y-92882547D01*
X117197894Y-92718666D01*
X117206782Y-92673987D01*
X117232499Y-92544695D01*
X117232500Y-92544693D01*
X117232500Y-92367306D01*
X117232499Y-92367304D01*
X164199500Y-92367304D01*
X164199500Y-92544695D01*
X164234103Y-92718658D01*
X164234106Y-92718667D01*
X164301983Y-92882540D01*
X164301990Y-92882553D01*
X164400535Y-93030034D01*
X164400538Y-93030038D01*
X164525961Y-93155461D01*
X164525965Y-93155464D01*
X164673446Y-93254009D01*
X164673459Y-93254016D01*
X164796363Y-93304923D01*
X164837334Y-93321894D01*
X164837336Y-93321894D01*
X164837341Y-93321896D01*
X165011304Y-93356499D01*
X165011307Y-93356500D01*
X165011309Y-93356500D01*
X165188693Y-93356500D01*
X165188694Y-93356499D01*
X165246682Y-93344964D01*
X165362658Y-93321896D01*
X165362661Y-93321894D01*
X165362666Y-93321894D01*
X165437930Y-93290718D01*
X165505682Y-93262656D01*
X165526540Y-93254016D01*
X165526540Y-93254015D01*
X165526547Y-93254013D01*
X165674035Y-93155464D01*
X165799464Y-93030035D01*
X165898013Y-92882547D01*
X165965894Y-92718666D01*
X165974782Y-92673987D01*
X166000499Y-92544695D01*
X166000500Y-92544693D01*
X166000500Y-92367306D01*
X166000499Y-92367304D01*
X165965896Y-92193341D01*
X165965893Y-92193332D01*
X165898016Y-92029459D01*
X165898009Y-92029446D01*
X165799464Y-91881965D01*
X165799461Y-91881961D01*
X165674038Y-91756538D01*
X165674034Y-91756535D01*
X165526553Y-91657990D01*
X165526540Y-91657983D01*
X165362667Y-91590106D01*
X165362658Y-91590103D01*
X165188694Y-91555500D01*
X165188691Y-91555500D01*
X165011309Y-91555500D01*
X165011306Y-91555500D01*
X164837341Y-91590103D01*
X164837332Y-91590106D01*
X164673459Y-91657983D01*
X164673446Y-91657990D01*
X164525965Y-91756535D01*
X164525961Y-91756538D01*
X164400538Y-91881961D01*
X164400535Y-91881965D01*
X164301990Y-92029446D01*
X164301983Y-92029459D01*
X164234106Y-92193332D01*
X164234103Y-92193341D01*
X164199500Y-92367304D01*
X117232499Y-92367304D01*
X117197896Y-92193341D01*
X117197893Y-92193332D01*
X117130016Y-92029459D01*
X117130009Y-92029446D01*
X117031464Y-91881965D01*
X117031461Y-91881961D01*
X116906038Y-91756538D01*
X116906034Y-91756535D01*
X116758553Y-91657990D01*
X116758540Y-91657983D01*
X116594667Y-91590106D01*
X116594658Y-91590103D01*
X116420694Y-91555500D01*
X116420691Y-91555500D01*
X116243309Y-91555500D01*
X116243306Y-91555500D01*
X116069341Y-91590103D01*
X116069332Y-91590106D01*
X115905459Y-91657983D01*
X115905446Y-91657990D01*
X115757965Y-91756535D01*
X115757961Y-91756538D01*
X115632538Y-91881961D01*
X115632535Y-91881965D01*
X115533990Y-92029446D01*
X115533983Y-92029459D01*
X115466106Y-92193332D01*
X115466103Y-92193341D01*
X115431500Y-92367304D01*
X105040499Y-92367304D01*
X105005896Y-92193341D01*
X105005893Y-92193332D01*
X104938016Y-92029459D01*
X104938009Y-92029446D01*
X104839464Y-91881965D01*
X104839461Y-91881961D01*
X104714038Y-91756538D01*
X104714034Y-91756535D01*
X104566553Y-91657990D01*
X104566540Y-91657983D01*
X104402667Y-91590106D01*
X104402658Y-91590103D01*
X104228694Y-91555500D01*
X104228691Y-91555500D01*
X104051309Y-91555500D01*
X104051306Y-91555500D01*
X103877341Y-91590103D01*
X103877332Y-91590106D01*
X103713459Y-91657983D01*
X103713446Y-91657990D01*
X103565965Y-91756535D01*
X103565961Y-91756538D01*
X103440538Y-91881961D01*
X103440535Y-91881965D01*
X103341990Y-92029446D01*
X103341983Y-92029459D01*
X103274106Y-92193332D01*
X103274103Y-92193341D01*
X103239500Y-92367304D01*
X91440500Y-92367304D01*
X91440500Y-90335304D01*
X132703500Y-90335304D01*
X132703500Y-90512695D01*
X132738103Y-90686658D01*
X132738106Y-90686667D01*
X132805983Y-90850540D01*
X132805990Y-90850553D01*
X132904535Y-90998034D01*
X132904538Y-90998038D01*
X133029961Y-91123461D01*
X133029965Y-91123464D01*
X133177446Y-91222009D01*
X133177459Y-91222016D01*
X133300363Y-91272923D01*
X133341334Y-91289894D01*
X133341336Y-91289894D01*
X133341341Y-91289896D01*
X133515304Y-91324499D01*
X133515307Y-91324500D01*
X133515309Y-91324500D01*
X133692693Y-91324500D01*
X133692694Y-91324499D01*
X133750682Y-91312964D01*
X133866658Y-91289896D01*
X133866661Y-91289894D01*
X133866666Y-91289894D01*
X134030547Y-91222013D01*
X134178035Y-91123464D01*
X134303464Y-90998035D01*
X134402013Y-90850547D01*
X134469894Y-90686666D01*
X134504500Y-90512691D01*
X134504500Y-90335309D01*
X134504500Y-90335306D01*
X134504499Y-90335304D01*
X134469896Y-90161341D01*
X134469893Y-90161332D01*
X134402016Y-89997459D01*
X134402014Y-89997455D01*
X134402013Y-89997453D01*
X134303464Y-89849965D01*
X134303461Y-89849961D01*
X134280804Y-89827304D01*
X148451500Y-89827304D01*
X148451500Y-90004695D01*
X148486103Y-90178658D01*
X148486106Y-90178667D01*
X148553983Y-90342540D01*
X148553990Y-90342553D01*
X148652535Y-90490034D01*
X148652538Y-90490038D01*
X148777961Y-90615461D01*
X148777965Y-90615464D01*
X148925446Y-90714009D01*
X148925459Y-90714016D01*
X149048363Y-90764923D01*
X149089334Y-90781894D01*
X149089336Y-90781894D01*
X149089341Y-90781896D01*
X149263304Y-90816499D01*
X149263307Y-90816500D01*
X149263309Y-90816500D01*
X149440693Y-90816500D01*
X149440694Y-90816499D01*
X149498682Y-90804964D01*
X149614658Y-90781896D01*
X149614661Y-90781894D01*
X149614666Y-90781894D01*
X149778547Y-90714013D01*
X149926035Y-90615464D01*
X150051464Y-90490035D01*
X150150013Y-90342547D01*
X150217894Y-90178666D01*
X150221341Y-90161341D01*
X150252499Y-90004695D01*
X150252500Y-90004693D01*
X150252500Y-89827306D01*
X150252499Y-89827304D01*
X156579500Y-89827304D01*
X156579500Y-90004695D01*
X156614103Y-90178658D01*
X156614106Y-90178667D01*
X156681983Y-90342540D01*
X156681990Y-90342553D01*
X156780535Y-90490034D01*
X156780538Y-90490038D01*
X156905961Y-90615461D01*
X156905965Y-90615464D01*
X157053446Y-90714009D01*
X157053459Y-90714016D01*
X157176363Y-90764923D01*
X157217334Y-90781894D01*
X157217336Y-90781894D01*
X157217341Y-90781896D01*
X157391304Y-90816499D01*
X157391307Y-90816500D01*
X157391309Y-90816500D01*
X157568693Y-90816500D01*
X157568694Y-90816499D01*
X157626682Y-90804964D01*
X157742658Y-90781896D01*
X157742661Y-90781894D01*
X157742666Y-90781894D01*
X157906547Y-90714013D01*
X158054035Y-90615464D01*
X158179464Y-90490035D01*
X158278013Y-90342547D01*
X158345894Y-90178666D01*
X158345896Y-90178658D01*
X158374383Y-90035446D01*
X158406768Y-89973535D01*
X158467484Y-89938961D01*
X158537253Y-89942700D01*
X158593925Y-89983567D01*
X158617617Y-90035446D01*
X158646103Y-90178658D01*
X158646106Y-90178667D01*
X158713983Y-90342540D01*
X158713990Y-90342553D01*
X158812535Y-90490034D01*
X158812538Y-90490038D01*
X158937961Y-90615461D01*
X158937965Y-90615464D01*
X159085446Y-90714009D01*
X159085459Y-90714016D01*
X159208363Y-90764923D01*
X159249334Y-90781894D01*
X159249336Y-90781894D01*
X159249341Y-90781896D01*
X159423304Y-90816499D01*
X159423307Y-90816500D01*
X159423309Y-90816500D01*
X159600693Y-90816500D01*
X159600694Y-90816499D01*
X159658682Y-90804964D01*
X159774658Y-90781896D01*
X159774661Y-90781894D01*
X159774666Y-90781894D01*
X159938547Y-90714013D01*
X160086035Y-90615464D01*
X160211464Y-90490035D01*
X160310013Y-90342547D01*
X160377894Y-90178666D01*
X160381341Y-90161341D01*
X160412499Y-90004695D01*
X160412500Y-90004693D01*
X160412500Y-89827306D01*
X160412499Y-89827304D01*
X160377896Y-89653341D01*
X160377893Y-89653332D01*
X160310016Y-89489459D01*
X160310009Y-89489446D01*
X160211464Y-89341965D01*
X160211461Y-89341961D01*
X160086038Y-89216538D01*
X160086034Y-89216535D01*
X159938553Y-89117990D01*
X159938540Y-89117983D01*
X159774667Y-89050106D01*
X159774658Y-89050103D01*
X159600694Y-89015500D01*
X159600691Y-89015500D01*
X159423309Y-89015500D01*
X159423306Y-89015500D01*
X159249341Y-89050103D01*
X159249332Y-89050106D01*
X159085459Y-89117983D01*
X159085446Y-89117990D01*
X158937965Y-89216535D01*
X158937961Y-89216538D01*
X158812538Y-89341961D01*
X158812535Y-89341965D01*
X158713990Y-89489446D01*
X158713983Y-89489459D01*
X158646106Y-89653332D01*
X158646104Y-89653340D01*
X158617617Y-89796554D01*
X158585232Y-89858465D01*
X158524516Y-89893039D01*
X158454747Y-89889299D01*
X158398075Y-89848432D01*
X158374383Y-89796554D01*
X158345895Y-89653340D01*
X158345894Y-89653334D01*
X158306450Y-89558106D01*
X158278016Y-89489459D01*
X158278009Y-89489446D01*
X158179464Y-89341965D01*
X158179461Y-89341961D01*
X158054038Y-89216538D01*
X158054034Y-89216535D01*
X157906553Y-89117990D01*
X157906540Y-89117983D01*
X157742667Y-89050106D01*
X157742658Y-89050103D01*
X157568694Y-89015500D01*
X157568691Y-89015500D01*
X157391309Y-89015500D01*
X157391306Y-89015500D01*
X157217341Y-89050103D01*
X157217332Y-89050106D01*
X157053459Y-89117983D01*
X157053446Y-89117990D01*
X156905965Y-89216535D01*
X156905961Y-89216538D01*
X156780538Y-89341961D01*
X156780535Y-89341965D01*
X156681990Y-89489446D01*
X156681983Y-89489459D01*
X156614106Y-89653332D01*
X156614103Y-89653341D01*
X156579500Y-89827304D01*
X150252499Y-89827304D01*
X150217896Y-89653341D01*
X150217893Y-89653332D01*
X150150016Y-89489459D01*
X150150009Y-89489446D01*
X150051464Y-89341965D01*
X150051461Y-89341961D01*
X149926038Y-89216538D01*
X149926034Y-89216535D01*
X149778553Y-89117990D01*
X149778540Y-89117983D01*
X149614667Y-89050106D01*
X149614658Y-89050103D01*
X149440694Y-89015500D01*
X149440691Y-89015500D01*
X149263309Y-89015500D01*
X149263306Y-89015500D01*
X149089341Y-89050103D01*
X149089332Y-89050106D01*
X148925459Y-89117983D01*
X148925446Y-89117990D01*
X148777965Y-89216535D01*
X148777961Y-89216538D01*
X148652538Y-89341961D01*
X148652535Y-89341965D01*
X148553990Y-89489446D01*
X148553983Y-89489459D01*
X148486106Y-89653332D01*
X148486103Y-89653341D01*
X148451500Y-89827304D01*
X134280804Y-89827304D01*
X134178038Y-89724538D01*
X134178034Y-89724535D01*
X134030553Y-89625990D01*
X134030540Y-89625983D01*
X133866667Y-89558106D01*
X133866658Y-89558103D01*
X133692694Y-89523500D01*
X133692691Y-89523500D01*
X133515309Y-89523500D01*
X133515306Y-89523500D01*
X133341341Y-89558103D01*
X133341332Y-89558106D01*
X133177459Y-89625983D01*
X133177446Y-89625990D01*
X133029965Y-89724535D01*
X133029961Y-89724538D01*
X132904538Y-89849961D01*
X132904535Y-89849965D01*
X132805990Y-89997446D01*
X132805983Y-89997459D01*
X132738106Y-90161332D01*
X132738103Y-90161341D01*
X132703500Y-90335304D01*
X91440500Y-90335304D01*
X91440500Y-88811304D01*
X124829500Y-88811304D01*
X124829500Y-88988695D01*
X124864103Y-89162658D01*
X124864106Y-89162667D01*
X124931983Y-89326540D01*
X124931990Y-89326553D01*
X125030535Y-89474034D01*
X125030538Y-89474038D01*
X125155961Y-89599461D01*
X125155965Y-89599464D01*
X125303446Y-89698009D01*
X125303459Y-89698016D01*
X125426363Y-89748923D01*
X125467334Y-89765894D01*
X125467336Y-89765894D01*
X125467341Y-89765896D01*
X125641304Y-89800499D01*
X125641307Y-89800500D01*
X125641309Y-89800500D01*
X125818693Y-89800500D01*
X125818694Y-89800499D01*
X125876682Y-89788964D01*
X125992658Y-89765896D01*
X125992661Y-89765894D01*
X125992666Y-89765894D01*
X126156547Y-89698013D01*
X126304035Y-89599464D01*
X126429464Y-89474035D01*
X126528013Y-89326547D01*
X126595894Y-89162666D01*
X126604782Y-89117987D01*
X126630499Y-88988695D01*
X126630500Y-88988693D01*
X126630500Y-88811306D01*
X126630499Y-88811304D01*
X126595896Y-88637341D01*
X126595893Y-88637332D01*
X126528016Y-88473459D01*
X126528014Y-88473455D01*
X126528013Y-88473453D01*
X126429464Y-88325965D01*
X126429461Y-88325961D01*
X126406804Y-88303304D01*
X153531500Y-88303304D01*
X153531500Y-88480695D01*
X153566103Y-88654658D01*
X153566106Y-88654667D01*
X153633983Y-88818540D01*
X153633990Y-88818553D01*
X153732535Y-88966034D01*
X153732538Y-88966038D01*
X153857961Y-89091461D01*
X153857965Y-89091464D01*
X154005446Y-89190009D01*
X154005459Y-89190016D01*
X154128363Y-89240923D01*
X154169334Y-89257894D01*
X154169336Y-89257894D01*
X154169341Y-89257896D01*
X154343304Y-89292499D01*
X154343307Y-89292500D01*
X154343309Y-89292500D01*
X154520693Y-89292500D01*
X154520694Y-89292499D01*
X154578682Y-89280964D01*
X154694658Y-89257896D01*
X154694661Y-89257894D01*
X154694666Y-89257894D01*
X154858547Y-89190013D01*
X155006035Y-89091464D01*
X155131464Y-88966035D01*
X155230013Y-88818547D01*
X155297894Y-88654666D01*
X155301341Y-88637341D01*
X155332499Y-88480695D01*
X155332500Y-88480693D01*
X155332500Y-88303306D01*
X155332499Y-88303304D01*
X155297896Y-88129341D01*
X155297893Y-88129332D01*
X155230016Y-87965459D01*
X155230009Y-87965446D01*
X155131464Y-87817965D01*
X155131461Y-87817961D01*
X155006038Y-87692538D01*
X155006034Y-87692535D01*
X154858553Y-87593990D01*
X154858540Y-87593983D01*
X154694667Y-87526106D01*
X154694658Y-87526103D01*
X154520694Y-87491500D01*
X154520691Y-87491500D01*
X154343309Y-87491500D01*
X154343306Y-87491500D01*
X154169341Y-87526103D01*
X154169332Y-87526106D01*
X154005459Y-87593983D01*
X154005446Y-87593990D01*
X153857965Y-87692535D01*
X153857961Y-87692538D01*
X153732538Y-87817961D01*
X153732535Y-87817965D01*
X153633990Y-87965446D01*
X153633983Y-87965459D01*
X153566106Y-88129332D01*
X153566103Y-88129341D01*
X153531500Y-88303304D01*
X126406804Y-88303304D01*
X126304038Y-88200538D01*
X126304034Y-88200535D01*
X126156553Y-88101990D01*
X126156540Y-88101983D01*
X125992667Y-88034106D01*
X125992658Y-88034103D01*
X125818694Y-87999500D01*
X125818691Y-87999500D01*
X125641309Y-87999500D01*
X125641306Y-87999500D01*
X125467341Y-88034103D01*
X125467332Y-88034106D01*
X125303459Y-88101983D01*
X125303446Y-88101990D01*
X125155965Y-88200535D01*
X125155961Y-88200538D01*
X125030538Y-88325961D01*
X125030535Y-88325965D01*
X124931990Y-88473446D01*
X124931983Y-88473459D01*
X124864106Y-88637332D01*
X124864103Y-88637341D01*
X124829500Y-88811304D01*
X91440500Y-88811304D01*
X91440500Y-87287304D01*
X121527500Y-87287304D01*
X121527500Y-87464695D01*
X121562103Y-87638658D01*
X121562106Y-87638667D01*
X121629983Y-87802540D01*
X121629990Y-87802553D01*
X121728535Y-87950034D01*
X121728538Y-87950038D01*
X121853961Y-88075461D01*
X121853965Y-88075464D01*
X122001446Y-88174009D01*
X122001459Y-88174016D01*
X122124363Y-88224923D01*
X122165334Y-88241894D01*
X122165336Y-88241894D01*
X122165341Y-88241896D01*
X122339304Y-88276499D01*
X122339307Y-88276500D01*
X122339309Y-88276500D01*
X122516693Y-88276500D01*
X122516694Y-88276499D01*
X122574682Y-88264964D01*
X122690658Y-88241896D01*
X122690661Y-88241894D01*
X122690666Y-88241894D01*
X122854547Y-88174013D01*
X123002035Y-88075464D01*
X123127464Y-87950035D01*
X123226013Y-87802547D01*
X123293894Y-87638666D01*
X123302782Y-87593987D01*
X123328499Y-87464695D01*
X123328500Y-87464693D01*
X123328500Y-87287306D01*
X123328499Y-87287304D01*
X123293896Y-87113341D01*
X123293893Y-87113332D01*
X123226016Y-86949459D01*
X123226009Y-86949446D01*
X123127464Y-86801965D01*
X123127461Y-86801961D01*
X123002038Y-86676538D01*
X123002034Y-86676535D01*
X122854553Y-86577990D01*
X122854540Y-86577983D01*
X122690667Y-86510106D01*
X122690658Y-86510103D01*
X122516694Y-86475500D01*
X122516691Y-86475500D01*
X122339309Y-86475500D01*
X122339306Y-86475500D01*
X122165341Y-86510103D01*
X122165332Y-86510106D01*
X122001459Y-86577983D01*
X122001446Y-86577990D01*
X121853965Y-86676535D01*
X121853961Y-86676538D01*
X121728538Y-86801961D01*
X121728535Y-86801965D01*
X121629990Y-86949446D01*
X121629983Y-86949459D01*
X121562106Y-87113332D01*
X121562103Y-87113341D01*
X121527500Y-87287304D01*
X91440500Y-87287304D01*
X91440500Y-86280943D01*
X93639500Y-86280943D01*
X93639500Y-86281750D01*
X93639500Y-86439057D01*
X93679790Y-86589419D01*
X93680423Y-86591783D01*
X93680426Y-86591790D01*
X93759475Y-86728709D01*
X93759479Y-86728714D01*
X93759480Y-86728716D01*
X93871284Y-86840520D01*
X93871286Y-86840521D01*
X93871290Y-86840524D01*
X93998324Y-86913866D01*
X94008216Y-86919577D01*
X94160943Y-86960500D01*
X94160945Y-86960500D01*
X94319055Y-86960500D01*
X94319057Y-86960500D01*
X94471784Y-86919577D01*
X94608716Y-86840520D01*
X94720520Y-86728716D01*
X94799577Y-86591784D01*
X94840500Y-86439057D01*
X94840500Y-86280943D01*
X100639500Y-86280943D01*
X100639500Y-86281750D01*
X100639500Y-86439057D01*
X100679790Y-86589419D01*
X100680423Y-86591783D01*
X100680426Y-86591790D01*
X100759475Y-86728709D01*
X100759479Y-86728714D01*
X100759480Y-86728716D01*
X100871284Y-86840520D01*
X100871286Y-86840521D01*
X100871290Y-86840524D01*
X100998324Y-86913866D01*
X101008216Y-86919577D01*
X101160943Y-86960500D01*
X101160945Y-86960500D01*
X101319055Y-86960500D01*
X101319057Y-86960500D01*
X101471784Y-86919577D01*
X101608716Y-86840520D01*
X101720520Y-86728716D01*
X101799577Y-86591784D01*
X101840500Y-86439057D01*
X101840500Y-86280943D01*
X166129500Y-86280943D01*
X166129500Y-86281750D01*
X166129500Y-86439057D01*
X166169790Y-86589419D01*
X166170423Y-86591783D01*
X166170426Y-86591790D01*
X166249475Y-86728709D01*
X166249479Y-86728714D01*
X166249480Y-86728716D01*
X166361284Y-86840520D01*
X166361286Y-86840521D01*
X166361290Y-86840524D01*
X166488324Y-86913866D01*
X166498216Y-86919577D01*
X166650943Y-86960500D01*
X166650945Y-86960500D01*
X166809055Y-86960500D01*
X166809057Y-86960500D01*
X166961784Y-86919577D01*
X167098716Y-86840520D01*
X167210520Y-86728716D01*
X167289577Y-86591784D01*
X167330500Y-86439057D01*
X167330500Y-86280943D01*
X173129500Y-86280943D01*
X173129500Y-86281750D01*
X173129500Y-86439057D01*
X173169790Y-86589419D01*
X173170423Y-86591783D01*
X173170426Y-86591790D01*
X173249475Y-86728709D01*
X173249479Y-86728714D01*
X173249480Y-86728716D01*
X173361284Y-86840520D01*
X173361286Y-86840521D01*
X173361290Y-86840524D01*
X173488324Y-86913866D01*
X173498216Y-86919577D01*
X173650943Y-86960500D01*
X173650945Y-86960500D01*
X173809055Y-86960500D01*
X173809057Y-86960500D01*
X173961784Y-86919577D01*
X174098716Y-86840520D01*
X174210520Y-86728716D01*
X174289577Y-86591784D01*
X174330500Y-86439057D01*
X174330500Y-86280943D01*
X174289577Y-86128216D01*
X174289573Y-86128209D01*
X174210524Y-85991290D01*
X174210518Y-85991282D01*
X174098717Y-85879481D01*
X174098709Y-85879475D01*
X173961790Y-85800426D01*
X173961786Y-85800424D01*
X173961784Y-85800423D01*
X173809057Y-85759500D01*
X173650943Y-85759500D01*
X173498216Y-85800423D01*
X173498209Y-85800426D01*
X173361290Y-85879475D01*
X173361282Y-85879481D01*
X173249481Y-85991282D01*
X173249475Y-85991290D01*
X173170426Y-86128209D01*
X173170423Y-86128216D01*
X173129500Y-86280943D01*
X167330500Y-86280943D01*
X167289577Y-86128216D01*
X167289573Y-86128209D01*
X167210524Y-85991290D01*
X167210518Y-85991282D01*
X167098717Y-85879481D01*
X167098709Y-85879475D01*
X166961790Y-85800426D01*
X166961786Y-85800424D01*
X166961784Y-85800423D01*
X166809057Y-85759500D01*
X166650943Y-85759500D01*
X166498216Y-85800423D01*
X166498209Y-85800426D01*
X166361290Y-85879475D01*
X166361282Y-85879481D01*
X166249481Y-85991282D01*
X166249475Y-85991290D01*
X166170426Y-86128209D01*
X166170423Y-86128216D01*
X166129500Y-86280943D01*
X101840500Y-86280943D01*
X101799577Y-86128216D01*
X101799573Y-86128209D01*
X101720524Y-85991290D01*
X101720518Y-85991282D01*
X101608717Y-85879481D01*
X101608709Y-85879475D01*
X101471790Y-85800426D01*
X101471786Y-85800424D01*
X101471784Y-85800423D01*
X101319057Y-85759500D01*
X101160943Y-85759500D01*
X101008216Y-85800423D01*
X101008209Y-85800426D01*
X100871290Y-85879475D01*
X100871282Y-85879481D01*
X100759481Y-85991282D01*
X100759475Y-85991290D01*
X100680426Y-86128209D01*
X100680423Y-86128216D01*
X100639500Y-86280943D01*
X94840500Y-86280943D01*
X94799577Y-86128216D01*
X94799573Y-86128209D01*
X94720524Y-85991290D01*
X94720518Y-85991282D01*
X94608717Y-85879481D01*
X94608709Y-85879475D01*
X94471790Y-85800426D01*
X94471786Y-85800424D01*
X94471784Y-85800423D01*
X94319057Y-85759500D01*
X94160943Y-85759500D01*
X94008216Y-85800423D01*
X94008209Y-85800426D01*
X93871290Y-85879475D01*
X93871282Y-85879481D01*
X93759481Y-85991282D01*
X93759475Y-85991290D01*
X93680426Y-86128209D01*
X93680423Y-86128216D01*
X93639500Y-86280943D01*
X91440500Y-86280943D01*
X91440500Y-84239304D01*
X104763500Y-84239304D01*
X104763500Y-84416695D01*
X104798103Y-84590658D01*
X104798106Y-84590667D01*
X104865983Y-84754540D01*
X104865990Y-84754553D01*
X104964535Y-84902034D01*
X104964538Y-84902038D01*
X105089961Y-85027461D01*
X105089965Y-85027464D01*
X105237446Y-85126009D01*
X105237459Y-85126016D01*
X105360363Y-85176923D01*
X105401334Y-85193894D01*
X105401336Y-85193894D01*
X105401341Y-85193896D01*
X105575304Y-85228499D01*
X105575307Y-85228500D01*
X105575309Y-85228500D01*
X105752693Y-85228500D01*
X105752694Y-85228499D01*
X105810682Y-85216964D01*
X105926658Y-85193896D01*
X105926661Y-85193894D01*
X105926666Y-85193894D01*
X106090547Y-85126013D01*
X106238035Y-85027464D01*
X106264195Y-85001304D01*
X113399500Y-85001304D01*
X113399500Y-85178695D01*
X113434103Y-85352658D01*
X113434106Y-85352667D01*
X113501983Y-85516540D01*
X113501990Y-85516553D01*
X113600535Y-85664034D01*
X113600538Y-85664038D01*
X113725961Y-85789461D01*
X113725965Y-85789464D01*
X113873446Y-85888009D01*
X113873459Y-85888016D01*
X113996363Y-85938923D01*
X114037334Y-85955894D01*
X114037336Y-85955894D01*
X114037341Y-85955896D01*
X114211304Y-85990499D01*
X114211307Y-85990500D01*
X114211309Y-85990500D01*
X114388693Y-85990500D01*
X114388694Y-85990499D01*
X114446682Y-85978964D01*
X114562658Y-85955896D01*
X114562661Y-85955894D01*
X114562666Y-85955894D01*
X114726547Y-85888013D01*
X114874035Y-85789464D01*
X114999464Y-85664035D01*
X115098013Y-85516547D01*
X115165894Y-85352666D01*
X115200500Y-85178691D01*
X115200500Y-85001309D01*
X115200500Y-85001306D01*
X115200499Y-85001304D01*
X115165896Y-84827341D01*
X115165893Y-84827332D01*
X115098016Y-84663459D01*
X115098009Y-84663446D01*
X114999464Y-84515965D01*
X114999461Y-84515961D01*
X114874038Y-84390538D01*
X114874034Y-84390535D01*
X114726553Y-84291990D01*
X114726540Y-84291983D01*
X114562667Y-84224106D01*
X114562658Y-84224103D01*
X114388694Y-84189500D01*
X114388691Y-84189500D01*
X114211309Y-84189500D01*
X114211306Y-84189500D01*
X114037341Y-84224103D01*
X114037332Y-84224106D01*
X113873459Y-84291983D01*
X113873446Y-84291990D01*
X113725965Y-84390535D01*
X113725961Y-84390538D01*
X113600538Y-84515961D01*
X113600535Y-84515965D01*
X113501990Y-84663446D01*
X113501983Y-84663459D01*
X113434106Y-84827332D01*
X113434103Y-84827341D01*
X113399500Y-85001304D01*
X106264195Y-85001304D01*
X106357964Y-84907536D01*
X106363461Y-84902038D01*
X106363464Y-84902035D01*
X106462013Y-84754547D01*
X106529894Y-84590666D01*
X106564500Y-84416691D01*
X106564500Y-84239309D01*
X106564500Y-84239306D01*
X106564499Y-84239304D01*
X106529896Y-84065341D01*
X106529893Y-84065332D01*
X106462016Y-83901459D01*
X106462014Y-83901455D01*
X106462013Y-83901453D01*
X106363464Y-83753965D01*
X106363461Y-83753961D01*
X106340804Y-83731304D01*
X124067500Y-83731304D01*
X124067500Y-83908695D01*
X124102103Y-84082658D01*
X124102106Y-84082667D01*
X124169983Y-84246540D01*
X124169990Y-84246553D01*
X124268535Y-84394034D01*
X124268538Y-84394038D01*
X124393961Y-84519461D01*
X124393965Y-84519464D01*
X124541446Y-84618009D01*
X124541459Y-84618016D01*
X124664363Y-84668923D01*
X124705334Y-84685894D01*
X124705336Y-84685894D01*
X124705341Y-84685896D01*
X124879304Y-84720499D01*
X124879307Y-84720500D01*
X124879309Y-84720500D01*
X125056693Y-84720500D01*
X125056694Y-84720499D01*
X125114682Y-84708964D01*
X125230658Y-84685896D01*
X125230661Y-84685894D01*
X125230666Y-84685894D01*
X125394547Y-84618013D01*
X125542035Y-84519464D01*
X125667464Y-84394035D01*
X125766013Y-84246547D01*
X125833894Y-84082666D01*
X125837341Y-84065341D01*
X125868499Y-83908695D01*
X125868500Y-83908693D01*
X125868500Y-83731306D01*
X125868499Y-83731304D01*
X161151500Y-83731304D01*
X161151500Y-83908695D01*
X161186103Y-84082658D01*
X161186106Y-84082667D01*
X161253983Y-84246540D01*
X161253990Y-84246553D01*
X161352535Y-84394034D01*
X161352538Y-84394038D01*
X161477961Y-84519461D01*
X161477965Y-84519464D01*
X161625446Y-84618009D01*
X161625459Y-84618016D01*
X161748363Y-84668923D01*
X161789334Y-84685894D01*
X161789336Y-84685894D01*
X161789341Y-84685896D01*
X161963304Y-84720499D01*
X161963307Y-84720500D01*
X161963309Y-84720500D01*
X162140693Y-84720500D01*
X162140694Y-84720499D01*
X162198682Y-84708964D01*
X162314658Y-84685896D01*
X162314661Y-84685894D01*
X162314666Y-84685894D01*
X162478547Y-84618013D01*
X162626035Y-84519464D01*
X162751464Y-84394035D01*
X162850013Y-84246547D01*
X162917894Y-84082666D01*
X162921341Y-84065341D01*
X162952499Y-83908695D01*
X162952500Y-83908693D01*
X162952500Y-83731306D01*
X162952499Y-83731304D01*
X162917896Y-83557341D01*
X162917893Y-83557332D01*
X162850016Y-83393459D01*
X162850009Y-83393446D01*
X162751464Y-83245965D01*
X162751461Y-83245961D01*
X162626038Y-83120538D01*
X162626034Y-83120535D01*
X162478553Y-83021990D01*
X162478540Y-83021983D01*
X162314667Y-82954106D01*
X162314658Y-82954103D01*
X162140694Y-82919500D01*
X162140691Y-82919500D01*
X161963309Y-82919500D01*
X161963306Y-82919500D01*
X161789341Y-82954103D01*
X161789332Y-82954106D01*
X161625459Y-83021983D01*
X161625446Y-83021990D01*
X161477965Y-83120535D01*
X161477961Y-83120538D01*
X161352538Y-83245961D01*
X161352535Y-83245965D01*
X161253990Y-83393446D01*
X161253983Y-83393459D01*
X161186106Y-83557332D01*
X161186103Y-83557341D01*
X161151500Y-83731304D01*
X125868499Y-83731304D01*
X125833896Y-83557341D01*
X125833893Y-83557332D01*
X125766016Y-83393459D01*
X125766009Y-83393446D01*
X125667464Y-83245965D01*
X125667461Y-83245961D01*
X125542038Y-83120538D01*
X125542034Y-83120535D01*
X125394553Y-83021990D01*
X125394540Y-83021983D01*
X125230667Y-82954106D01*
X125230658Y-82954103D01*
X125056694Y-82919500D01*
X125056691Y-82919500D01*
X124879309Y-82919500D01*
X124879306Y-82919500D01*
X124705341Y-82954103D01*
X124705332Y-82954106D01*
X124541459Y-83021983D01*
X124541446Y-83021990D01*
X124393965Y-83120535D01*
X124393961Y-83120538D01*
X124268538Y-83245961D01*
X124268535Y-83245965D01*
X124169990Y-83393446D01*
X124169983Y-83393459D01*
X124102106Y-83557332D01*
X124102103Y-83557341D01*
X124067500Y-83731304D01*
X106340804Y-83731304D01*
X106238038Y-83628538D01*
X106238034Y-83628535D01*
X106090553Y-83529990D01*
X106090540Y-83529983D01*
X105926667Y-83462106D01*
X105926658Y-83462103D01*
X105752694Y-83427500D01*
X105752691Y-83427500D01*
X105575309Y-83427500D01*
X105575306Y-83427500D01*
X105401341Y-83462103D01*
X105401332Y-83462106D01*
X105237459Y-83529983D01*
X105237446Y-83529990D01*
X105089965Y-83628535D01*
X105089961Y-83628538D01*
X104964538Y-83753961D01*
X104964535Y-83753965D01*
X104865990Y-83901446D01*
X104865983Y-83901459D01*
X104798106Y-84065332D01*
X104798103Y-84065341D01*
X104763500Y-84239304D01*
X91440500Y-84239304D01*
X91440500Y-82207304D01*
X121527500Y-82207304D01*
X121527500Y-82384695D01*
X121562103Y-82558658D01*
X121562106Y-82558667D01*
X121629983Y-82722540D01*
X121629990Y-82722553D01*
X121728535Y-82870034D01*
X121728538Y-82870038D01*
X121853961Y-82995461D01*
X121853965Y-82995464D01*
X122001446Y-83094009D01*
X122001459Y-83094016D01*
X122124363Y-83144923D01*
X122165334Y-83161894D01*
X122165336Y-83161894D01*
X122165341Y-83161896D01*
X122339304Y-83196499D01*
X122339307Y-83196500D01*
X122339309Y-83196500D01*
X122516693Y-83196500D01*
X122516694Y-83196499D01*
X122574682Y-83184964D01*
X122690658Y-83161896D01*
X122690661Y-83161894D01*
X122690666Y-83161894D01*
X122854547Y-83094013D01*
X123002035Y-82995464D01*
X123127464Y-82870035D01*
X123226013Y-82722547D01*
X123293894Y-82558666D01*
X123328500Y-82384691D01*
X123328500Y-82207309D01*
X123328500Y-82207306D01*
X123328499Y-82207304D01*
X123293896Y-82033341D01*
X123293893Y-82033332D01*
X123226016Y-81869459D01*
X123226014Y-81869455D01*
X123226013Y-81869453D01*
X123127464Y-81721965D01*
X123127461Y-81721961D01*
X123104804Y-81699304D01*
X161659500Y-81699304D01*
X161659500Y-81876695D01*
X161694103Y-82050658D01*
X161694106Y-82050667D01*
X161761983Y-82214540D01*
X161761990Y-82214553D01*
X161860535Y-82362034D01*
X161860538Y-82362038D01*
X161985961Y-82487461D01*
X161985965Y-82487464D01*
X162133446Y-82586009D01*
X162133459Y-82586016D01*
X162256363Y-82636923D01*
X162297334Y-82653894D01*
X162297336Y-82653894D01*
X162297341Y-82653896D01*
X162471304Y-82688499D01*
X162471307Y-82688500D01*
X162471309Y-82688500D01*
X162648693Y-82688500D01*
X162648694Y-82688499D01*
X162706682Y-82676964D01*
X162822658Y-82653896D01*
X162822661Y-82653894D01*
X162822666Y-82653894D01*
X162986547Y-82586013D01*
X163134035Y-82487464D01*
X163259464Y-82362035D01*
X163358013Y-82214547D01*
X163425894Y-82050666D01*
X163429341Y-82033341D01*
X163460499Y-81876695D01*
X163460500Y-81876693D01*
X163460500Y-81699306D01*
X163460499Y-81699304D01*
X163425896Y-81525341D01*
X163425893Y-81525332D01*
X163358016Y-81361459D01*
X163358009Y-81361446D01*
X163259464Y-81213965D01*
X163259461Y-81213961D01*
X163134038Y-81088538D01*
X163134034Y-81088535D01*
X162986553Y-80989990D01*
X162986540Y-80989983D01*
X162822667Y-80922106D01*
X162822658Y-80922103D01*
X162648694Y-80887500D01*
X162648691Y-80887500D01*
X162471309Y-80887500D01*
X162471306Y-80887500D01*
X162297341Y-80922103D01*
X162297332Y-80922106D01*
X162133459Y-80989983D01*
X162133446Y-80989990D01*
X161985965Y-81088535D01*
X161985961Y-81088538D01*
X161860538Y-81213961D01*
X161860535Y-81213965D01*
X161761990Y-81361446D01*
X161761983Y-81361459D01*
X161694106Y-81525332D01*
X161694103Y-81525341D01*
X161659500Y-81699304D01*
X123104804Y-81699304D01*
X123002038Y-81596538D01*
X123002034Y-81596535D01*
X122854553Y-81497990D01*
X122854540Y-81497983D01*
X122690667Y-81430106D01*
X122690658Y-81430103D01*
X122516694Y-81395500D01*
X122516691Y-81395500D01*
X122339309Y-81395500D01*
X122339306Y-81395500D01*
X122165341Y-81430103D01*
X122165332Y-81430106D01*
X122001459Y-81497983D01*
X122001446Y-81497990D01*
X121853965Y-81596535D01*
X121853961Y-81596538D01*
X121728538Y-81721961D01*
X121728535Y-81721965D01*
X121629990Y-81869446D01*
X121629983Y-81869459D01*
X121562106Y-82033332D01*
X121562103Y-82033341D01*
X121527500Y-82207304D01*
X91440500Y-82207304D01*
X91440500Y-79667304D01*
X95619500Y-79667304D01*
X95619500Y-79844695D01*
X95654103Y-80018658D01*
X95654106Y-80018667D01*
X95721983Y-80182540D01*
X95721990Y-80182553D01*
X95820535Y-80330034D01*
X95820538Y-80330038D01*
X95945961Y-80455461D01*
X95945965Y-80455464D01*
X96093446Y-80554009D01*
X96093459Y-80554016D01*
X96216363Y-80604923D01*
X96257334Y-80621894D01*
X96257336Y-80621894D01*
X96257341Y-80621896D01*
X96431304Y-80656499D01*
X96431307Y-80656500D01*
X96431309Y-80656500D01*
X96608693Y-80656500D01*
X96608694Y-80656499D01*
X96666682Y-80644964D01*
X96782658Y-80621896D01*
X96782661Y-80621894D01*
X96782666Y-80621894D01*
X96946547Y-80554013D01*
X97094035Y-80455464D01*
X97219464Y-80330035D01*
X97318013Y-80182547D01*
X97321013Y-80175304D01*
X98159500Y-80175304D01*
X98159500Y-80352695D01*
X98194103Y-80526658D01*
X98194106Y-80526667D01*
X98261983Y-80690540D01*
X98261990Y-80690553D01*
X98360535Y-80838034D01*
X98360538Y-80838038D01*
X98485961Y-80963461D01*
X98485965Y-80963464D01*
X98633446Y-81062009D01*
X98633459Y-81062016D01*
X98756363Y-81112923D01*
X98797334Y-81129894D01*
X98797336Y-81129894D01*
X98797341Y-81129896D01*
X98971304Y-81164499D01*
X98971307Y-81164500D01*
X98971309Y-81164500D01*
X99148693Y-81164500D01*
X99148694Y-81164499D01*
X99206682Y-81152964D01*
X99322658Y-81129896D01*
X99322661Y-81129894D01*
X99322666Y-81129894D01*
X99486547Y-81062013D01*
X99634035Y-80963464D01*
X99759464Y-80838035D01*
X99858013Y-80690547D01*
X99861013Y-80683304D01*
X111367500Y-80683304D01*
X111367500Y-80860695D01*
X111402103Y-81034658D01*
X111402106Y-81034667D01*
X111469983Y-81198540D01*
X111469990Y-81198553D01*
X111568535Y-81346034D01*
X111568538Y-81346038D01*
X111693961Y-81471461D01*
X111693965Y-81471464D01*
X111841446Y-81570009D01*
X111841459Y-81570016D01*
X111964363Y-81620923D01*
X112005334Y-81637894D01*
X112005336Y-81637894D01*
X112005341Y-81637896D01*
X112179304Y-81672499D01*
X112179307Y-81672500D01*
X112179309Y-81672500D01*
X112356693Y-81672500D01*
X112356694Y-81672499D01*
X112414682Y-81660964D01*
X112530658Y-81637896D01*
X112530661Y-81637894D01*
X112530666Y-81637894D01*
X112694547Y-81570013D01*
X112842035Y-81471464D01*
X112967464Y-81346035D01*
X113066013Y-81198547D01*
X113133894Y-81034666D01*
X113142782Y-80989987D01*
X113168499Y-80860695D01*
X113168500Y-80860693D01*
X113168500Y-80683306D01*
X113168499Y-80683304D01*
X113133896Y-80509341D01*
X113133893Y-80509332D01*
X113066016Y-80345459D01*
X113066009Y-80345446D01*
X112967464Y-80197965D01*
X112967461Y-80197961D01*
X112842038Y-80072538D01*
X112842034Y-80072535D01*
X112694553Y-79973990D01*
X112694540Y-79973983D01*
X112530667Y-79906106D01*
X112530658Y-79906103D01*
X112356694Y-79871500D01*
X112356691Y-79871500D01*
X112179309Y-79871500D01*
X112179306Y-79871500D01*
X112005341Y-79906103D01*
X112005332Y-79906106D01*
X111841459Y-79973983D01*
X111841446Y-79973990D01*
X111693965Y-80072535D01*
X111693961Y-80072538D01*
X111568538Y-80197961D01*
X111568535Y-80197965D01*
X111469990Y-80345446D01*
X111469983Y-80345459D01*
X111402106Y-80509332D01*
X111402103Y-80509341D01*
X111367500Y-80683304D01*
X99861013Y-80683304D01*
X99925894Y-80526666D01*
X99927739Y-80517394D01*
X99960499Y-80352695D01*
X99960500Y-80352693D01*
X99960500Y-80175306D01*
X99960499Y-80175304D01*
X99925896Y-80001341D01*
X99925893Y-80001332D01*
X99858016Y-79837459D01*
X99858009Y-79837446D01*
X99759464Y-79689965D01*
X99759461Y-79689961D01*
X99634038Y-79564538D01*
X99634034Y-79564535D01*
X99631443Y-79562804D01*
X119203000Y-79562804D01*
X119203000Y-79740195D01*
X119237603Y-79914158D01*
X119237606Y-79914167D01*
X119305483Y-80078040D01*
X119305490Y-80078053D01*
X119404035Y-80225534D01*
X119404038Y-80225538D01*
X119529461Y-80350961D01*
X119529465Y-80350964D01*
X119676946Y-80449509D01*
X119676959Y-80449516D01*
X119799863Y-80500423D01*
X119840834Y-80517394D01*
X119840836Y-80517394D01*
X119840841Y-80517396D01*
X120014804Y-80551999D01*
X120014807Y-80552000D01*
X120014809Y-80552000D01*
X120192193Y-80552000D01*
X120192194Y-80551999D01*
X120250182Y-80540464D01*
X120366158Y-80517396D01*
X120366161Y-80517394D01*
X120366166Y-80517394D01*
X120530047Y-80449513D01*
X120677535Y-80350964D01*
X120802964Y-80225535D01*
X120901513Y-80078047D01*
X120969394Y-79914166D01*
X120970998Y-79906106D01*
X121003999Y-79740195D01*
X121004000Y-79740193D01*
X121004000Y-79562806D01*
X121003999Y-79562804D01*
X120969396Y-79388841D01*
X120969393Y-79388832D01*
X120901516Y-79224959D01*
X120901509Y-79224946D01*
X120802964Y-79077465D01*
X120802961Y-79077461D01*
X120677538Y-78952038D01*
X120677534Y-78952035D01*
X120530053Y-78853490D01*
X120530040Y-78853483D01*
X120366167Y-78785606D01*
X120366158Y-78785603D01*
X120192194Y-78751000D01*
X120192191Y-78751000D01*
X120014809Y-78751000D01*
X120014806Y-78751000D01*
X119840841Y-78785603D01*
X119840832Y-78785606D01*
X119676959Y-78853483D01*
X119676946Y-78853490D01*
X119529465Y-78952035D01*
X119529461Y-78952038D01*
X119404038Y-79077461D01*
X119404035Y-79077465D01*
X119305490Y-79224946D01*
X119305483Y-79224959D01*
X119237606Y-79388832D01*
X119237603Y-79388841D01*
X119203000Y-79562804D01*
X99631443Y-79562804D01*
X99486553Y-79465990D01*
X99486540Y-79465983D01*
X99322667Y-79398106D01*
X99322658Y-79398103D01*
X99148694Y-79363500D01*
X99148691Y-79363500D01*
X98971309Y-79363500D01*
X98971306Y-79363500D01*
X98797341Y-79398103D01*
X98797332Y-79398106D01*
X98633459Y-79465983D01*
X98633446Y-79465990D01*
X98485965Y-79564535D01*
X98485961Y-79564538D01*
X98360538Y-79689961D01*
X98360535Y-79689965D01*
X98261990Y-79837446D01*
X98261983Y-79837459D01*
X98194106Y-80001332D01*
X98194103Y-80001341D01*
X98159500Y-80175304D01*
X97321013Y-80175304D01*
X97385894Y-80018666D01*
X97389341Y-80001341D01*
X97420499Y-79844695D01*
X97420500Y-79844693D01*
X97420500Y-79667306D01*
X97420499Y-79667304D01*
X97385896Y-79493341D01*
X97385893Y-79493332D01*
X97318016Y-79329459D01*
X97318009Y-79329446D01*
X97219464Y-79181965D01*
X97219461Y-79181961D01*
X97094038Y-79056538D01*
X97094034Y-79056535D01*
X96946553Y-78957990D01*
X96946540Y-78957983D01*
X96782667Y-78890106D01*
X96782658Y-78890103D01*
X96608694Y-78855500D01*
X96608691Y-78855500D01*
X96431309Y-78855500D01*
X96431306Y-78855500D01*
X96257341Y-78890103D01*
X96257332Y-78890106D01*
X96093459Y-78957983D01*
X96093446Y-78957990D01*
X95945965Y-79056535D01*
X95945961Y-79056538D01*
X95820538Y-79181961D01*
X95820535Y-79181965D01*
X95721990Y-79329446D01*
X95721983Y-79329459D01*
X95654106Y-79493332D01*
X95654103Y-79493341D01*
X95619500Y-79667304D01*
X91440500Y-79667304D01*
X91440500Y-76093713D01*
X112679500Y-76093713D01*
X112679500Y-76306286D01*
X112712753Y-76516239D01*
X112778444Y-76718414D01*
X112874951Y-76907820D01*
X112999890Y-77079786D01*
X113150213Y-77230109D01*
X113322179Y-77355048D01*
X113322181Y-77355049D01*
X113322184Y-77355051D01*
X113511588Y-77451557D01*
X113713757Y-77517246D01*
X113923713Y-77550500D01*
X113923714Y-77550500D01*
X114136286Y-77550500D01*
X114136287Y-77550500D01*
X114346243Y-77517246D01*
X114548412Y-77451557D01*
X114737816Y-77355051D01*
X114824138Y-77292335D01*
X114909786Y-77230109D01*
X114909788Y-77230106D01*
X114909792Y-77230104D01*
X115060104Y-77079792D01*
X115060106Y-77079788D01*
X115060109Y-77079786D01*
X115185048Y-76907820D01*
X115185047Y-76907820D01*
X115185051Y-76907816D01*
X115189514Y-76899054D01*
X115237488Y-76848259D01*
X115305308Y-76831463D01*
X115371444Y-76853999D01*
X115410486Y-76899056D01*
X115414951Y-76907820D01*
X115539890Y-77079786D01*
X115690213Y-77230109D01*
X115862179Y-77355048D01*
X115862181Y-77355049D01*
X115862184Y-77355051D01*
X116051588Y-77451557D01*
X116253757Y-77517246D01*
X116463713Y-77550500D01*
X116463714Y-77550500D01*
X116676286Y-77550500D01*
X116676287Y-77550500D01*
X116886243Y-77517246D01*
X117088412Y-77451557D01*
X117277816Y-77355051D01*
X117449792Y-77230104D01*
X117563329Y-77116566D01*
X117624648Y-77083084D01*
X117694340Y-77088068D01*
X117750274Y-77129939D01*
X117767189Y-77160917D01*
X117816202Y-77292328D01*
X117816206Y-77292335D01*
X117902452Y-77407544D01*
X117902455Y-77407547D01*
X118017664Y-77493793D01*
X118017671Y-77493797D01*
X118152517Y-77544091D01*
X118152516Y-77544091D01*
X118159444Y-77544835D01*
X118212127Y-77550500D01*
X120007872Y-77550499D01*
X120067483Y-77544091D01*
X120202331Y-77493796D01*
X120317546Y-77407546D01*
X120403796Y-77292331D01*
X120454091Y-77157483D01*
X120460500Y-77097873D01*
X120460499Y-75302128D01*
X120454091Y-75242517D01*
X120452810Y-75239083D01*
X120403797Y-75107671D01*
X120403793Y-75107664D01*
X120317547Y-74992455D01*
X120317544Y-74992452D01*
X120202335Y-74906206D01*
X120202328Y-74906202D01*
X120067482Y-74855908D01*
X120067483Y-74855908D01*
X120007883Y-74849501D01*
X120007881Y-74849500D01*
X120007873Y-74849500D01*
X120007864Y-74849500D01*
X118212129Y-74849500D01*
X118212123Y-74849501D01*
X118152516Y-74855908D01*
X118017671Y-74906202D01*
X118017664Y-74906206D01*
X117902455Y-74992452D01*
X117902452Y-74992455D01*
X117816206Y-75107664D01*
X117816203Y-75107669D01*
X117767189Y-75239083D01*
X117725317Y-75295016D01*
X117659853Y-75319433D01*
X117591580Y-75304581D01*
X117563326Y-75283430D01*
X117449786Y-75169890D01*
X117277820Y-75044951D01*
X117088414Y-74948444D01*
X117088413Y-74948443D01*
X117088412Y-74948443D01*
X116886243Y-74882754D01*
X116886241Y-74882753D01*
X116886240Y-74882753D01*
X116724957Y-74857208D01*
X116676287Y-74849500D01*
X116463713Y-74849500D01*
X116415042Y-74857208D01*
X116253760Y-74882753D01*
X116051585Y-74948444D01*
X115862179Y-75044951D01*
X115690213Y-75169890D01*
X115539890Y-75320213D01*
X115414949Y-75492182D01*
X115410484Y-75500946D01*
X115362509Y-75551742D01*
X115294688Y-75568536D01*
X115228553Y-75545998D01*
X115189516Y-75500946D01*
X115185050Y-75492182D01*
X115060109Y-75320213D01*
X114909786Y-75169890D01*
X114737820Y-75044951D01*
X114548414Y-74948444D01*
X114548413Y-74948443D01*
X114548412Y-74948443D01*
X114346243Y-74882754D01*
X114346241Y-74882753D01*
X114346240Y-74882753D01*
X114184957Y-74857208D01*
X114136287Y-74849500D01*
X113923713Y-74849500D01*
X113875042Y-74857208D01*
X113713760Y-74882753D01*
X113511585Y-74948444D01*
X113322179Y-75044951D01*
X113150213Y-75169890D01*
X112999890Y-75320213D01*
X112874951Y-75492179D01*
X112778444Y-75681585D01*
X112712753Y-75883760D01*
X112679500Y-76093713D01*
X91440500Y-76093713D01*
X91440500Y-73571304D01*
X149975500Y-73571304D01*
X149975500Y-73748695D01*
X150010103Y-73922658D01*
X150010106Y-73922667D01*
X150077983Y-74086540D01*
X150077990Y-74086553D01*
X150176535Y-74234034D01*
X150176538Y-74234038D01*
X150301961Y-74359461D01*
X150301965Y-74359464D01*
X150449446Y-74458009D01*
X150449459Y-74458016D01*
X150572363Y-74508923D01*
X150613334Y-74525894D01*
X150613336Y-74525894D01*
X150613341Y-74525896D01*
X150787304Y-74560499D01*
X150787307Y-74560500D01*
X150787309Y-74560500D01*
X150964693Y-74560500D01*
X150964694Y-74560499D01*
X151022682Y-74548964D01*
X151138658Y-74525896D01*
X151138661Y-74525894D01*
X151138666Y-74525894D01*
X151302547Y-74458013D01*
X151450035Y-74359464D01*
X151575464Y-74234035D01*
X151674013Y-74086547D01*
X151741894Y-73922666D01*
X151776500Y-73748691D01*
X151776500Y-73571309D01*
X151776500Y-73571306D01*
X151776499Y-73571304D01*
X151741896Y-73397341D01*
X151741893Y-73397332D01*
X151674016Y-73233459D01*
X151674009Y-73233446D01*
X151575464Y-73085965D01*
X151575461Y-73085961D01*
X151450038Y-72960538D01*
X151450034Y-72960535D01*
X151302553Y-72861990D01*
X151302540Y-72861983D01*
X151138667Y-72794106D01*
X151138658Y-72794103D01*
X150964694Y-72759500D01*
X150964691Y-72759500D01*
X150787309Y-72759500D01*
X150787306Y-72759500D01*
X150613341Y-72794103D01*
X150613332Y-72794106D01*
X150449459Y-72861983D01*
X150449446Y-72861990D01*
X150301965Y-72960535D01*
X150301961Y-72960538D01*
X150176538Y-73085961D01*
X150176535Y-73085965D01*
X150077990Y-73233446D01*
X150077983Y-73233459D01*
X150010106Y-73397332D01*
X150010103Y-73397341D01*
X149975500Y-73571304D01*
X91440500Y-73571304D01*
X91440500Y-72555304D01*
X130671500Y-72555304D01*
X130671500Y-72732695D01*
X130706103Y-72906658D01*
X130706106Y-72906667D01*
X130773983Y-73070540D01*
X130773990Y-73070553D01*
X130872535Y-73218034D01*
X130872538Y-73218038D01*
X130997961Y-73343461D01*
X130997965Y-73343464D01*
X131145446Y-73442009D01*
X131145459Y-73442016D01*
X131268363Y-73492923D01*
X131309334Y-73509894D01*
X131309336Y-73509894D01*
X131309341Y-73509896D01*
X131483304Y-73544499D01*
X131483307Y-73544500D01*
X131483309Y-73544500D01*
X131660693Y-73544500D01*
X131660694Y-73544499D01*
X131718682Y-73532964D01*
X131834658Y-73509896D01*
X131834661Y-73509894D01*
X131834666Y-73509894D01*
X131909930Y-73478718D01*
X131977682Y-73450656D01*
X131998540Y-73442016D01*
X131998540Y-73442015D01*
X131998547Y-73442013D01*
X132146035Y-73343464D01*
X132271464Y-73218035D01*
X132370013Y-73070547D01*
X132437894Y-72906666D01*
X132446782Y-72861987D01*
X132472499Y-72732695D01*
X132472500Y-72732693D01*
X132472500Y-72555306D01*
X132472499Y-72555304D01*
X132437896Y-72381341D01*
X132437893Y-72381332D01*
X132370016Y-72217459D01*
X132370009Y-72217446D01*
X132271464Y-72069965D01*
X132271461Y-72069961D01*
X132248804Y-72047304D01*
X147435500Y-72047304D01*
X147435500Y-72224695D01*
X147470103Y-72398658D01*
X147470106Y-72398667D01*
X147537983Y-72562540D01*
X147537990Y-72562553D01*
X147636535Y-72710034D01*
X147636538Y-72710038D01*
X147761961Y-72835461D01*
X147761965Y-72835464D01*
X147909446Y-72934009D01*
X147909459Y-72934016D01*
X148032363Y-72984923D01*
X148073334Y-73001894D01*
X148073336Y-73001894D01*
X148073341Y-73001896D01*
X148247304Y-73036499D01*
X148247307Y-73036500D01*
X148247309Y-73036500D01*
X148424693Y-73036500D01*
X148424694Y-73036499D01*
X148482682Y-73024964D01*
X148598658Y-73001896D01*
X148598661Y-73001894D01*
X148598666Y-73001894D01*
X148762547Y-72934013D01*
X148910035Y-72835464D01*
X149035464Y-72710035D01*
X149134013Y-72562547D01*
X149137013Y-72555304D01*
X156071500Y-72555304D01*
X156071500Y-72732695D01*
X156106103Y-72906658D01*
X156106106Y-72906667D01*
X156173983Y-73070540D01*
X156173990Y-73070553D01*
X156272535Y-73218034D01*
X156272538Y-73218038D01*
X156397961Y-73343461D01*
X156397965Y-73343464D01*
X156545446Y-73442009D01*
X156545459Y-73442016D01*
X156668363Y-73492923D01*
X156709334Y-73509894D01*
X156709336Y-73509894D01*
X156709341Y-73509896D01*
X156883304Y-73544499D01*
X156883307Y-73544500D01*
X156883309Y-73544500D01*
X157060693Y-73544500D01*
X157060694Y-73544499D01*
X157118682Y-73532964D01*
X157234658Y-73509896D01*
X157234661Y-73509894D01*
X157234666Y-73509894D01*
X157398547Y-73442013D01*
X157546035Y-73343464D01*
X157671464Y-73218035D01*
X157770013Y-73070547D01*
X157837894Y-72906666D01*
X157846782Y-72861987D01*
X157872499Y-72732695D01*
X157872500Y-72732693D01*
X157872500Y-72555306D01*
X157872499Y-72555304D01*
X157837896Y-72381341D01*
X157837893Y-72381332D01*
X157770016Y-72217459D01*
X157770009Y-72217446D01*
X157671464Y-72069965D01*
X157671461Y-72069961D01*
X157546038Y-71944538D01*
X157546034Y-71944535D01*
X157398553Y-71845990D01*
X157398540Y-71845983D01*
X157234667Y-71778106D01*
X157234658Y-71778103D01*
X157060694Y-71743500D01*
X157060691Y-71743500D01*
X156883309Y-71743500D01*
X156883306Y-71743500D01*
X156709341Y-71778103D01*
X156709332Y-71778106D01*
X156545459Y-71845983D01*
X156545446Y-71845990D01*
X156397965Y-71944535D01*
X156397961Y-71944538D01*
X156272538Y-72069961D01*
X156272535Y-72069965D01*
X156173990Y-72217446D01*
X156173983Y-72217459D01*
X156106106Y-72381332D01*
X156106103Y-72381341D01*
X156071500Y-72555304D01*
X149137013Y-72555304D01*
X149201894Y-72398666D01*
X149205341Y-72381341D01*
X149236499Y-72224695D01*
X149236500Y-72224693D01*
X149236500Y-72047306D01*
X149236499Y-72047304D01*
X149201896Y-71873341D01*
X149201893Y-71873332D01*
X149134016Y-71709459D01*
X149134009Y-71709446D01*
X149035464Y-71561965D01*
X149035461Y-71561961D01*
X148910038Y-71436538D01*
X148910034Y-71436535D01*
X148762553Y-71337990D01*
X148762540Y-71337983D01*
X148598667Y-71270106D01*
X148598658Y-71270103D01*
X148424694Y-71235500D01*
X148424691Y-71235500D01*
X148247309Y-71235500D01*
X148247306Y-71235500D01*
X148073341Y-71270103D01*
X148073332Y-71270106D01*
X147909459Y-71337983D01*
X147909446Y-71337990D01*
X147761965Y-71436535D01*
X147761961Y-71436538D01*
X147636538Y-71561961D01*
X147636535Y-71561965D01*
X147537990Y-71709446D01*
X147537983Y-71709459D01*
X147470106Y-71873332D01*
X147470103Y-71873341D01*
X147435500Y-72047304D01*
X132248804Y-72047304D01*
X132146038Y-71944538D01*
X132146034Y-71944535D01*
X131998553Y-71845990D01*
X131998540Y-71845983D01*
X131834667Y-71778106D01*
X131834658Y-71778103D01*
X131660694Y-71743500D01*
X131660691Y-71743500D01*
X131483309Y-71743500D01*
X131483306Y-71743500D01*
X131309341Y-71778103D01*
X131309332Y-71778106D01*
X131145459Y-71845983D01*
X131145446Y-71845990D01*
X130997965Y-71944535D01*
X130997961Y-71944538D01*
X130872538Y-72069961D01*
X130872535Y-72069965D01*
X130773990Y-72217446D01*
X130773983Y-72217459D01*
X130706106Y-72381332D01*
X130706103Y-72381341D01*
X130671500Y-72555304D01*
X91440500Y-72555304D01*
X91440500Y-71013713D01*
X112904500Y-71013713D01*
X112904500Y-71226287D01*
X112937754Y-71436243D01*
X112981046Y-71569482D01*
X113003444Y-71638414D01*
X113099951Y-71827820D01*
X113224890Y-71999786D01*
X113375213Y-72150109D01*
X113547179Y-72275048D01*
X113547181Y-72275049D01*
X113547184Y-72275051D01*
X113736588Y-72371557D01*
X113938757Y-72437246D01*
X114148713Y-72470500D01*
X114148714Y-72470500D01*
X114361286Y-72470500D01*
X114361287Y-72470500D01*
X114571243Y-72437246D01*
X114773412Y-72371557D01*
X114962816Y-72275051D01*
X115032126Y-72224695D01*
X115134786Y-72150109D01*
X115134788Y-72150106D01*
X115134792Y-72150104D01*
X115285104Y-71999792D01*
X115285106Y-71999788D01*
X115285109Y-71999786D01*
X115410048Y-71827820D01*
X115410047Y-71827820D01*
X115410051Y-71827816D01*
X115414514Y-71819054D01*
X115462488Y-71768259D01*
X115530308Y-71751463D01*
X115596444Y-71773999D01*
X115635484Y-71819054D01*
X115635736Y-71819547D01*
X115639951Y-71827820D01*
X115764890Y-71999786D01*
X115915213Y-72150109D01*
X116087179Y-72275048D01*
X116087181Y-72275049D01*
X116087184Y-72275051D01*
X116276588Y-72371557D01*
X116478757Y-72437246D01*
X116688713Y-72470500D01*
X116688714Y-72470500D01*
X116901286Y-72470500D01*
X116901287Y-72470500D01*
X117111243Y-72437246D01*
X117313412Y-72371557D01*
X117502816Y-72275051D01*
X117674792Y-72150104D01*
X117788329Y-72036566D01*
X117849648Y-72003084D01*
X117919340Y-72008068D01*
X117975274Y-72049939D01*
X117992189Y-72080917D01*
X118041202Y-72212328D01*
X118041206Y-72212335D01*
X118127452Y-72327544D01*
X118127455Y-72327547D01*
X118242664Y-72413793D01*
X118242671Y-72413797D01*
X118377517Y-72464091D01*
X118377516Y-72464091D01*
X118384444Y-72464835D01*
X118437127Y-72470500D01*
X120232872Y-72470499D01*
X120292483Y-72464091D01*
X120375749Y-72433035D01*
X120427328Y-72413797D01*
X120427327Y-72413797D01*
X120427331Y-72413796D01*
X120542546Y-72327546D01*
X120628796Y-72212331D01*
X120679091Y-72077483D01*
X120685500Y-72017873D01*
X120685499Y-70222128D01*
X120679091Y-70162517D01*
X120677810Y-70159083D01*
X120628797Y-70027671D01*
X120628793Y-70027664D01*
X120542547Y-69912455D01*
X120542544Y-69912452D01*
X120427335Y-69826206D01*
X120427328Y-69826202D01*
X120292482Y-69775908D01*
X120292483Y-69775908D01*
X120232883Y-69769501D01*
X120232881Y-69769500D01*
X120232873Y-69769500D01*
X120232864Y-69769500D01*
X118437129Y-69769500D01*
X118437123Y-69769501D01*
X118377516Y-69775908D01*
X118242671Y-69826202D01*
X118242664Y-69826206D01*
X118127455Y-69912452D01*
X118127452Y-69912455D01*
X118041206Y-70027664D01*
X118041203Y-70027669D01*
X117992189Y-70159083D01*
X117950317Y-70215016D01*
X117884853Y-70239433D01*
X117816580Y-70224581D01*
X117788326Y-70203430D01*
X117674786Y-70089890D01*
X117502820Y-69964951D01*
X117313414Y-69868444D01*
X117313413Y-69868443D01*
X117313412Y-69868443D01*
X117111243Y-69802754D01*
X117111241Y-69802753D01*
X117111240Y-69802753D01*
X116949957Y-69777208D01*
X116901287Y-69769500D01*
X116688713Y-69769500D01*
X116640042Y-69777208D01*
X116478760Y-69802753D01*
X116276585Y-69868444D01*
X116087179Y-69964951D01*
X115915213Y-70089890D01*
X115764890Y-70240213D01*
X115639949Y-70412182D01*
X115635484Y-70420946D01*
X115587509Y-70471742D01*
X115519688Y-70488536D01*
X115453553Y-70465998D01*
X115414516Y-70420946D01*
X115410050Y-70412182D01*
X115285109Y-70240213D01*
X115134786Y-70089890D01*
X114962820Y-69964951D01*
X114773414Y-69868444D01*
X114773413Y-69868443D01*
X114773412Y-69868443D01*
X114571243Y-69802754D01*
X114571241Y-69802753D01*
X114571240Y-69802753D01*
X114409957Y-69777208D01*
X114361287Y-69769500D01*
X114148713Y-69769500D01*
X114100042Y-69777208D01*
X113938760Y-69802753D01*
X113736585Y-69868444D01*
X113547179Y-69964951D01*
X113375213Y-70089890D01*
X113224890Y-70240213D01*
X113099951Y-70412179D01*
X113003444Y-70601585D01*
X112937753Y-70803760D01*
X112918038Y-70928239D01*
X112904500Y-71013713D01*
X91440500Y-71013713D01*
X91440500Y-67983304D01*
X111367500Y-67983304D01*
X111367500Y-68160695D01*
X111402103Y-68334658D01*
X111402106Y-68334667D01*
X111469983Y-68498540D01*
X111469990Y-68498553D01*
X111568535Y-68646034D01*
X111568538Y-68646038D01*
X111693961Y-68771461D01*
X111693965Y-68771464D01*
X111841446Y-68870009D01*
X111841459Y-68870016D01*
X111964363Y-68920923D01*
X112005334Y-68937894D01*
X112005336Y-68937894D01*
X112005341Y-68937896D01*
X112179304Y-68972499D01*
X112179307Y-68972500D01*
X112179309Y-68972500D01*
X112356693Y-68972500D01*
X112356694Y-68972499D01*
X112414682Y-68960964D01*
X112530658Y-68937896D01*
X112530661Y-68937894D01*
X112530666Y-68937894D01*
X112694547Y-68870013D01*
X112842035Y-68771464D01*
X112967464Y-68646035D01*
X113066013Y-68498547D01*
X113133894Y-68334666D01*
X113168500Y-68160691D01*
X113168500Y-67983309D01*
X113168500Y-67983306D01*
X113168499Y-67983304D01*
X113133896Y-67809341D01*
X113133893Y-67809332D01*
X113066016Y-67645459D01*
X113066009Y-67645446D01*
X112967464Y-67497965D01*
X112967461Y-67497961D01*
X112842038Y-67372538D01*
X112842034Y-67372535D01*
X112694553Y-67273990D01*
X112694540Y-67273983D01*
X112530667Y-67206106D01*
X112530658Y-67206103D01*
X112356694Y-67171500D01*
X112356691Y-67171500D01*
X112179309Y-67171500D01*
X112179306Y-67171500D01*
X112005341Y-67206103D01*
X112005332Y-67206106D01*
X111841459Y-67273983D01*
X111841446Y-67273990D01*
X111693965Y-67372535D01*
X111693961Y-67372538D01*
X111568538Y-67497961D01*
X111568535Y-67497965D01*
X111469990Y-67645446D01*
X111469983Y-67645459D01*
X111402106Y-67809332D01*
X111402103Y-67809341D01*
X111367500Y-67983304D01*
X91440500Y-67983304D01*
X91440500Y-65951304D01*
X123051500Y-65951304D01*
X123051500Y-66128695D01*
X123086103Y-66302658D01*
X123086106Y-66302667D01*
X123153983Y-66466540D01*
X123153990Y-66466553D01*
X123252535Y-66614034D01*
X123252538Y-66614038D01*
X123377961Y-66739461D01*
X123377965Y-66739464D01*
X123525446Y-66838009D01*
X123525459Y-66838016D01*
X123617382Y-66876091D01*
X123689334Y-66905894D01*
X123689336Y-66905894D01*
X123689341Y-66905896D01*
X123863304Y-66940499D01*
X123863307Y-66940500D01*
X123863309Y-66940500D01*
X124040693Y-66940500D01*
X124040694Y-66940499D01*
X124098682Y-66928964D01*
X124214658Y-66905896D01*
X124214661Y-66905894D01*
X124214666Y-66905894D01*
X124378547Y-66838013D01*
X124526035Y-66739464D01*
X124651464Y-66614035D01*
X124750013Y-66466547D01*
X124817894Y-66302666D01*
X124852500Y-66128691D01*
X124852500Y-65951309D01*
X124852500Y-65951306D01*
X124852499Y-65951304D01*
X124817896Y-65777341D01*
X124817893Y-65777332D01*
X124750016Y-65613459D01*
X124750014Y-65613455D01*
X124750013Y-65613453D01*
X124651464Y-65465965D01*
X124651461Y-65465961D01*
X124611213Y-65425713D01*
X127808500Y-65425713D01*
X127808500Y-65638287D01*
X127841754Y-65848243D01*
X127875242Y-65951309D01*
X127907444Y-66050414D01*
X128003951Y-66239820D01*
X128128890Y-66411786D01*
X128279213Y-66562109D01*
X128451182Y-66687050D01*
X128459946Y-66691516D01*
X128510742Y-66739491D01*
X128527536Y-66807312D01*
X128504998Y-66873447D01*
X128459946Y-66912484D01*
X128451182Y-66916949D01*
X128279213Y-67041890D01*
X128128890Y-67192213D01*
X128003951Y-67364179D01*
X127907444Y-67553585D01*
X127841753Y-67755760D01*
X127808500Y-67965713D01*
X127808500Y-68178286D01*
X127841753Y-68388239D01*
X127907444Y-68590414D01*
X128003951Y-68779820D01*
X128128890Y-68951786D01*
X128242430Y-69065326D01*
X128275915Y-69126649D01*
X128270931Y-69196341D01*
X128229059Y-69252274D01*
X128198083Y-69269189D01*
X128066669Y-69318203D01*
X128066664Y-69318206D01*
X127951455Y-69404452D01*
X127951452Y-69404455D01*
X127865206Y-69519664D01*
X127865202Y-69519671D01*
X127814908Y-69654517D01*
X127808501Y-69714116D01*
X127808501Y-69714123D01*
X127808500Y-69714135D01*
X127808500Y-71509870D01*
X127808501Y-71509876D01*
X127814908Y-71569483D01*
X127865202Y-71704328D01*
X127865206Y-71704335D01*
X127951452Y-71819544D01*
X127951455Y-71819547D01*
X128066664Y-71905793D01*
X128066671Y-71905797D01*
X128201517Y-71956091D01*
X128201516Y-71956091D01*
X128208444Y-71956835D01*
X128261127Y-71962500D01*
X130056872Y-71962499D01*
X130116483Y-71956091D01*
X130251331Y-71905796D01*
X130366546Y-71819546D01*
X130452796Y-71704331D01*
X130503091Y-71569483D01*
X130509500Y-71509873D01*
X130509499Y-69714128D01*
X130503091Y-69654517D01*
X130452796Y-69519669D01*
X130452795Y-69519668D01*
X130452793Y-69519664D01*
X130366547Y-69404455D01*
X130366544Y-69404452D01*
X130251335Y-69318206D01*
X130251328Y-69318202D01*
X130119917Y-69269189D01*
X130063983Y-69227318D01*
X130039566Y-69161853D01*
X130054418Y-69093580D01*
X130075563Y-69065332D01*
X130189104Y-68951792D01*
X130199202Y-68937894D01*
X130314048Y-68779820D01*
X130314047Y-68779820D01*
X130314051Y-68779816D01*
X130410557Y-68590412D01*
X130476246Y-68388243D01*
X130509500Y-68178287D01*
X130509500Y-67965713D01*
X130476246Y-67755757D01*
X130410557Y-67553588D01*
X130314051Y-67364184D01*
X130314049Y-67364181D01*
X130314048Y-67364179D01*
X130189109Y-67192213D01*
X130038786Y-67041890D01*
X129866820Y-66916951D01*
X129866115Y-66916591D01*
X129858054Y-66912485D01*
X129807259Y-66864512D01*
X129790463Y-66796692D01*
X129812999Y-66730556D01*
X129858054Y-66691515D01*
X129866816Y-66687051D01*
X129953138Y-66624335D01*
X130038786Y-66562109D01*
X130038788Y-66562106D01*
X130038792Y-66562104D01*
X130189104Y-66411792D01*
X130189106Y-66411788D01*
X130189109Y-66411786D01*
X130314048Y-66239820D01*
X130314047Y-66239820D01*
X130314051Y-66239816D01*
X130410557Y-66050412D01*
X130476246Y-65848243D01*
X130509500Y-65638287D01*
X130509500Y-65425713D01*
X130476246Y-65215757D01*
X130410557Y-65013588D01*
X130314051Y-64824184D01*
X130300077Y-64804950D01*
X130226511Y-64703694D01*
X130226508Y-64703691D01*
X130189107Y-64652213D01*
X130189104Y-64652208D01*
X130171031Y-64634135D01*
X142286500Y-64634135D01*
X142286500Y-66429870D01*
X142286501Y-66429876D01*
X142292908Y-66489483D01*
X142343202Y-66624328D01*
X142343206Y-66624335D01*
X142429452Y-66739544D01*
X142429455Y-66739547D01*
X142544664Y-66825793D01*
X142544671Y-66825797D01*
X142676082Y-66874810D01*
X142732016Y-66916681D01*
X142756433Y-66982145D01*
X142741582Y-67050418D01*
X142720431Y-67078673D01*
X142606889Y-67192215D01*
X142481951Y-67364179D01*
X142385444Y-67553585D01*
X142319753Y-67755760D01*
X142286500Y-67965713D01*
X142286500Y-68178286D01*
X142319753Y-68388239D01*
X142385444Y-68590414D01*
X142481951Y-68779820D01*
X142606890Y-68951786D01*
X142757213Y-69102109D01*
X142929182Y-69227050D01*
X142937946Y-69231516D01*
X142988742Y-69279491D01*
X143005536Y-69347312D01*
X142982998Y-69413447D01*
X142937946Y-69452484D01*
X142929182Y-69456949D01*
X142757213Y-69581890D01*
X142606890Y-69732213D01*
X142481951Y-69904179D01*
X142385444Y-70093585D01*
X142319753Y-70295760D01*
X142286500Y-70505713D01*
X142286500Y-70718286D01*
X142319753Y-70928239D01*
X142385444Y-71130414D01*
X142481951Y-71319820D01*
X142606890Y-71491786D01*
X142757213Y-71642109D01*
X142929179Y-71767048D01*
X142929181Y-71767049D01*
X142929184Y-71767051D01*
X143118588Y-71863557D01*
X143320757Y-71929246D01*
X143530713Y-71962500D01*
X143530714Y-71962500D01*
X143743286Y-71962500D01*
X143743287Y-71962500D01*
X143953243Y-71929246D01*
X144155412Y-71863557D01*
X144344816Y-71767051D01*
X144424085Y-71709459D01*
X144516786Y-71642109D01*
X144516788Y-71642106D01*
X144516792Y-71642104D01*
X144667104Y-71491792D01*
X144667106Y-71491788D01*
X144667109Y-71491786D01*
X144792048Y-71319820D01*
X144792047Y-71319820D01*
X144792051Y-71319816D01*
X144888557Y-71130412D01*
X144954246Y-70928243D01*
X144987500Y-70718287D01*
X144987500Y-70505713D01*
X144954246Y-70295757D01*
X144888557Y-70093588D01*
X144792051Y-69904184D01*
X144792049Y-69904181D01*
X144792048Y-69904179D01*
X144667109Y-69732213D01*
X144516786Y-69581890D01*
X144344820Y-69456951D01*
X144344115Y-69456591D01*
X144336054Y-69452485D01*
X144285259Y-69404512D01*
X144268463Y-69336692D01*
X144290999Y-69270556D01*
X144336054Y-69231515D01*
X144344816Y-69227051D01*
X144434554Y-69161853D01*
X144516786Y-69102109D01*
X144516788Y-69102106D01*
X144516792Y-69102104D01*
X144667104Y-68951792D01*
X144667106Y-68951788D01*
X144667109Y-68951786D01*
X144792048Y-68779820D01*
X144792047Y-68779820D01*
X144792051Y-68779816D01*
X144888557Y-68590412D01*
X144954246Y-68388243D01*
X144987500Y-68178287D01*
X144987500Y-67965713D01*
X144954246Y-67755757D01*
X144888557Y-67553588D01*
X144792051Y-67364184D01*
X144792049Y-67364181D01*
X144792048Y-67364179D01*
X144667109Y-67192213D01*
X144553569Y-67078673D01*
X144520084Y-67017350D01*
X144525068Y-66947658D01*
X144566940Y-66891725D01*
X144597915Y-66874810D01*
X144729331Y-66825796D01*
X144844546Y-66739546D01*
X144930796Y-66624331D01*
X144981091Y-66489483D01*
X144987500Y-66429873D01*
X144987499Y-64634128D01*
X144981091Y-64574517D01*
X144967766Y-64538792D01*
X144930797Y-64439671D01*
X144930793Y-64439664D01*
X144844547Y-64324455D01*
X144844544Y-64324452D01*
X144729335Y-64238206D01*
X144729328Y-64238202D01*
X144594482Y-64187908D01*
X144594483Y-64187908D01*
X144534883Y-64181501D01*
X144534881Y-64181500D01*
X144534873Y-64181500D01*
X144534864Y-64181500D01*
X142739129Y-64181500D01*
X142739123Y-64181501D01*
X142679516Y-64187908D01*
X142544671Y-64238202D01*
X142544664Y-64238206D01*
X142429455Y-64324452D01*
X142429452Y-64324455D01*
X142343206Y-64439664D01*
X142343202Y-64439671D01*
X142292908Y-64574517D01*
X142286501Y-64634116D01*
X142286501Y-64634123D01*
X142286500Y-64634135D01*
X130171031Y-64634135D01*
X130038792Y-64501896D01*
X130038786Y-64501890D01*
X129866820Y-64376951D01*
X129677414Y-64280444D01*
X129677413Y-64280443D01*
X129677412Y-64280443D01*
X129475243Y-64214754D01*
X129475241Y-64214753D01*
X129475240Y-64214753D01*
X129313957Y-64189208D01*
X129265287Y-64181500D01*
X129052713Y-64181500D01*
X129004042Y-64189208D01*
X128842760Y-64214753D01*
X128640585Y-64280444D01*
X128451179Y-64376951D01*
X128279213Y-64501890D01*
X128128890Y-64652213D01*
X128003951Y-64824179D01*
X127907444Y-65013585D01*
X127841753Y-65215760D01*
X127837599Y-65241990D01*
X127808500Y-65425713D01*
X124611213Y-65425713D01*
X124526038Y-65340538D01*
X124526034Y-65340535D01*
X124378553Y-65241990D01*
X124378540Y-65241983D01*
X124214667Y-65174106D01*
X124214658Y-65174103D01*
X124040694Y-65139500D01*
X124040691Y-65139500D01*
X123863309Y-65139500D01*
X123863306Y-65139500D01*
X123689341Y-65174103D01*
X123689332Y-65174106D01*
X123525459Y-65241983D01*
X123525446Y-65241990D01*
X123377965Y-65340535D01*
X123377961Y-65340538D01*
X123252538Y-65465961D01*
X123252535Y-65465965D01*
X123153990Y-65613446D01*
X123153983Y-65613459D01*
X123086106Y-65777332D01*
X123086103Y-65777341D01*
X123051500Y-65951304D01*
X91440500Y-65951304D01*
X91440500Y-63374038D01*
X92379500Y-63374038D01*
X92379500Y-63625961D01*
X92418910Y-63874785D01*
X92496760Y-64114383D01*
X92559850Y-64238202D01*
X92603797Y-64324454D01*
X92611132Y-64338848D01*
X92759201Y-64542649D01*
X92759205Y-64542654D01*
X92937345Y-64720794D01*
X92937350Y-64720798D01*
X93079643Y-64824179D01*
X93141155Y-64868870D01*
X93284184Y-64941747D01*
X93365616Y-64983239D01*
X93365618Y-64983239D01*
X93365621Y-64983241D01*
X93605215Y-65061090D01*
X93854038Y-65100500D01*
X93854039Y-65100500D01*
X94105961Y-65100500D01*
X94105962Y-65100500D01*
X94354785Y-65061090D01*
X94594379Y-64983241D01*
X94818845Y-64868870D01*
X95022656Y-64720793D01*
X95200793Y-64542656D01*
X95348870Y-64338845D01*
X95463241Y-64114379D01*
X95541090Y-63874785D01*
X95580500Y-63625962D01*
X95580500Y-63374038D01*
X172389500Y-63374038D01*
X172389500Y-63625961D01*
X172428910Y-63874785D01*
X172506760Y-64114383D01*
X172569850Y-64238202D01*
X172613797Y-64324454D01*
X172621132Y-64338848D01*
X172769201Y-64542649D01*
X172769205Y-64542654D01*
X172947345Y-64720794D01*
X172947350Y-64720798D01*
X173089643Y-64824179D01*
X173151155Y-64868870D01*
X173294184Y-64941747D01*
X173375616Y-64983239D01*
X173375618Y-64983239D01*
X173375621Y-64983241D01*
X173615215Y-65061090D01*
X173864038Y-65100500D01*
X173864039Y-65100500D01*
X174115961Y-65100500D01*
X174115962Y-65100500D01*
X174364785Y-65061090D01*
X174604379Y-64983241D01*
X174828845Y-64868870D01*
X175032656Y-64720793D01*
X175210793Y-64542656D01*
X175358870Y-64338845D01*
X175473241Y-64114379D01*
X175551090Y-63874785D01*
X175590500Y-63625962D01*
X175590500Y-63374038D01*
X175551090Y-63125215D01*
X175473241Y-62885621D01*
X175473239Y-62885618D01*
X175473239Y-62885616D01*
X175431747Y-62804184D01*
X175358870Y-62661155D01*
X175339952Y-62635117D01*
X175210798Y-62457350D01*
X175210794Y-62457345D01*
X175032654Y-62279205D01*
X175032649Y-62279201D01*
X174828848Y-62131132D01*
X174828847Y-62131131D01*
X174828845Y-62131130D01*
X174758747Y-62095413D01*
X174604383Y-62016760D01*
X174364785Y-61938910D01*
X174115962Y-61899500D01*
X173864038Y-61899500D01*
X173739626Y-61919205D01*
X173615214Y-61938910D01*
X173375616Y-62016760D01*
X173151151Y-62131132D01*
X172947350Y-62279201D01*
X172947345Y-62279205D01*
X172769205Y-62457345D01*
X172769201Y-62457350D01*
X172621132Y-62661151D01*
X172506760Y-62885616D01*
X172428910Y-63125214D01*
X172389500Y-63374038D01*
X95580500Y-63374038D01*
X95541090Y-63125215D01*
X95463241Y-62885621D01*
X95463239Y-62885618D01*
X95463239Y-62885616D01*
X95421747Y-62804184D01*
X95348870Y-62661155D01*
X95329952Y-62635117D01*
X95200798Y-62457350D01*
X95200794Y-62457345D01*
X95022654Y-62279205D01*
X95022649Y-62279201D01*
X94818848Y-62131132D01*
X94818847Y-62131131D01*
X94818845Y-62131130D01*
X94748747Y-62095413D01*
X94594383Y-62016760D01*
X94354785Y-61938910D01*
X94105962Y-61899500D01*
X93854038Y-61899500D01*
X93729626Y-61919205D01*
X93605214Y-61938910D01*
X93365616Y-62016760D01*
X93141151Y-62131132D01*
X92937350Y-62279201D01*
X92937345Y-62279205D01*
X92759205Y-62457345D01*
X92759201Y-62457350D01*
X92611132Y-62661151D01*
X92496760Y-62885616D01*
X92418910Y-63125214D01*
X92379500Y-63374038D01*
X91440500Y-63374038D01*
X91440500Y-61084500D01*
X91460185Y-61017461D01*
X91512989Y-60971706D01*
X91564500Y-60960500D01*
X176405500Y-60960500D01*
X176472539Y-60980185D01*
G37*
%TD.AperFunction*%
%TD*%
M02*
