%TF.GenerationSoftware,KiCad,Pcbnew,9.0.2*%
%TF.CreationDate,2025-12-24T14:08:25+02:00*%
%TF.ProjectId,party_line,70617274-795f-46c6-996e-652e6b696361,rev?*%
%TF.SameCoordinates,Original*%
%TF.FileFunction,Soldermask,Top*%
%TF.FilePolarity,Negative*%
%FSLAX46Y46*%
G04 Gerber Fmt 4.6, Leading zero omitted, Abs format (unit mm)*
G04 Created by KiCad (PCBNEW 9.0.2) date 2025-12-24 14:08:25*
%MOMM*%
%LPD*%
G01*
G04 APERTURE LIST*
G04 Aperture macros list*
%AMRoundRect*
0 Rectangle with rounded corners*
0 $1 Rounding radius*
0 $2 $3 $4 $5 $6 $7 $8 $9 X,Y pos of 4 corners*
0 Add a 4 corners polygon primitive as box body*
4,1,4,$2,$3,$4,$5,$6,$7,$8,$9,$2,$3,0*
0 Add four circle primitives for the rounded corners*
1,1,$1+$1,$2,$3*
1,1,$1+$1,$4,$5*
1,1,$1+$1,$6,$7*
1,1,$1+$1,$8,$9*
0 Add four rect primitives between the rounded corners*
20,1,$1+$1,$2,$3,$4,$5,0*
20,1,$1+$1,$4,$5,$6,$7,0*
20,1,$1+$1,$6,$7,$8,$9,0*
20,1,$1+$1,$8,$9,$2,$3,0*%
G04 Aperture macros list end*
%ADD10RoundRect,0.250000X0.550000X-1.412500X0.550000X1.412500X-0.550000X1.412500X-0.550000X-1.412500X0*%
%ADD11RoundRect,0.225000X-0.525000X1.275000X-0.525000X-1.275000X0.525000X-1.275000X0.525000X1.275000X0*%
%ADD12RoundRect,0.225000X1.275000X0.525000X-1.275000X0.525000X-1.275000X-0.525000X1.275000X-0.525000X0*%
%ADD13RoundRect,0.250000X-0.350000X-0.450000X0.350000X-0.450000X0.350000X0.450000X-0.350000X0.450000X0*%
%ADD14RoundRect,0.250000X0.450000X-0.350000X0.450000X0.350000X-0.450000X0.350000X-0.450000X-0.350000X0*%
%ADD15R,1.700000X1.700000*%
%ADD16C,1.700000*%
%ADD17RoundRect,0.250000X-0.337500X-0.475000X0.337500X-0.475000X0.337500X0.475000X-0.337500X0.475000X0*%
%ADD18RoundRect,0.250000X1.412500X0.550000X-1.412500X0.550000X-1.412500X-0.550000X1.412500X-0.550000X0*%
%ADD19RoundRect,0.150000X0.150000X-0.675000X0.150000X0.675000X-0.150000X0.675000X-0.150000X-0.675000X0*%
%ADD20RoundRect,0.250000X0.650000X-0.412500X0.650000X0.412500X-0.650000X0.412500X-0.650000X-0.412500X0*%
%ADD21RoundRect,0.250000X-0.450000X0.350000X-0.450000X-0.350000X0.450000X-0.350000X0.450000X0.350000X0*%
%ADD22RoundRect,0.250000X-1.412500X-0.550000X1.412500X-0.550000X1.412500X0.550000X-1.412500X0.550000X0*%
%ADD23RoundRect,0.250001X0.799999X-1.999999X0.799999X1.999999X-0.799999X1.999999X-0.799999X-1.999999X0*%
%ADD24RoundRect,0.225000X0.525000X-1.275000X0.525000X1.275000X-0.525000X1.275000X-0.525000X-1.275000X0*%
%ADD25RoundRect,0.195000X0.805000X-0.455000X0.805000X0.455000X-0.805000X0.455000X-0.805000X-0.455000X0*%
%ADD26RoundRect,0.300000X-0.700000X-0.700000X0.700000X-0.700000X0.700000X0.700000X-0.700000X0.700000X0*%
%ADD27RoundRect,0.195000X-0.805000X-0.455000X0.805000X-0.455000X0.805000X0.455000X-0.805000X0.455000X0*%
%ADD28RoundRect,0.250000X0.475000X-0.337500X0.475000X0.337500X-0.475000X0.337500X-0.475000X-0.337500X0*%
%ADD29RoundRect,0.150000X-0.825000X-0.150000X0.825000X-0.150000X0.825000X0.150000X-0.825000X0.150000X0*%
G04 APERTURE END LIST*
D10*
%TO.C,C4*%
X156845000Y-80007500D03*
X156845000Y-74932500D03*
%TD*%
D11*
%TO.C,J1*%
X169230000Y-89860000D03*
X165230000Y-89860000D03*
X163830000Y-82860000D03*
X172230000Y-89860000D03*
%TD*%
D12*
%TO.C,J4*%
X117150000Y-104460000D03*
X117150000Y-100460000D03*
X124150000Y-99060000D03*
X117150000Y-107460000D03*
%TD*%
D13*
%TO.C,R17*%
X131604000Y-74168000D03*
X133604000Y-74168000D03*
%TD*%
D14*
%TO.C,R14*%
X129540000Y-93710000D03*
X129540000Y-91710000D03*
%TD*%
%TO.C,R15*%
X119380000Y-93710000D03*
X119380000Y-91710000D03*
%TD*%
D12*
%TO.C,J3*%
X143820000Y-104460000D03*
X143820000Y-100460000D03*
X150820000Y-99060000D03*
X143820000Y-107460000D03*
%TD*%
D15*
%TO.C,RV3*%
X119110000Y-76200000D03*
D16*
X116570000Y-76200000D03*
X114030000Y-76200000D03*
%TD*%
D17*
%TO.C,C3*%
X145582500Y-80645000D03*
X147657500Y-80645000D03*
%TD*%
D15*
%TO.C,SW2*%
X129159000Y-70612000D03*
D16*
X129159000Y-68072000D03*
X129159000Y-65532000D03*
%TD*%
D18*
%TO.C,C9*%
X172209500Y-77216000D03*
X167134500Y-77216000D03*
%TD*%
D13*
%TO.C,R10*%
X121412000Y-79756000D03*
X123412000Y-79756000D03*
%TD*%
D14*
%TO.C,R16*%
X124968000Y-93710000D03*
X124968000Y-91710000D03*
%TD*%
D10*
%TO.C,C7*%
X136144000Y-70609500D03*
X136144000Y-65534500D03*
%TD*%
D15*
%TO.C,RV2*%
X143637000Y-65532000D03*
D16*
X143637000Y-68072000D03*
X143637000Y-70612000D03*
%TD*%
D14*
%TO.C,R6*%
X156845000Y-104505000D03*
X156845000Y-102505000D03*
%TD*%
D19*
%TO.C,U2*%
X120015000Y-88985000D03*
X121285000Y-88985000D03*
X122555000Y-88985000D03*
X123825000Y-88985000D03*
X123825000Y-83735000D03*
X122555000Y-83735000D03*
X121285000Y-83735000D03*
X120015000Y-83735000D03*
%TD*%
D20*
%TO.C,C6*%
X121285000Y-66967500D03*
X121285000Y-63842500D03*
%TD*%
D21*
%TO.C,R13*%
X114300000Y-91710000D03*
X114300000Y-93710000D03*
%TD*%
%TO.C,R3*%
X151065000Y-79645000D03*
X151065000Y-81645000D03*
%TD*%
%TO.C,R2*%
X159512000Y-86884000D03*
X159512000Y-88884000D03*
%TD*%
D22*
%TO.C,C1*%
X141542500Y-87630000D03*
X146617500Y-87630000D03*
%TD*%
D23*
%TO.C,C2*%
X165735000Y-106470000D03*
X165735000Y-99270000D03*
%TD*%
D14*
%TO.C,R5*%
X156845000Y-109585000D03*
X156845000Y-107585000D03*
%TD*%
%TO.C,R8*%
X112395000Y-66405000D03*
X112395000Y-64405000D03*
%TD*%
D13*
%TO.C,R1*%
X146255000Y-93980000D03*
X148255000Y-93980000D03*
%TD*%
%TO.C,R4*%
X140540000Y-80645000D03*
X142540000Y-80645000D03*
%TD*%
D24*
%TO.C,J2*%
X98740000Y-82860000D03*
X102740000Y-82860000D03*
X104140000Y-89860000D03*
X95740000Y-82860000D03*
%TD*%
D25*
%TO.C,RV1*%
X145890000Y-77500000D03*
D26*
X149890000Y-76200000D03*
D27*
X145890000Y-74900000D03*
%TD*%
D14*
%TO.C,R11*%
X148209000Y-70596000D03*
X148209000Y-68596000D03*
%TD*%
D18*
%TO.C,C10*%
X169161500Y-67056000D03*
X164086500Y-67056000D03*
%TD*%
D13*
%TO.C,R12*%
X114300000Y-80645000D03*
X116300000Y-80645000D03*
%TD*%
D21*
%TO.C,R9*%
X116840000Y-64405000D03*
X116840000Y-66405000D03*
%TD*%
D28*
%TO.C,C11*%
X114300000Y-88667500D03*
X114300000Y-86592500D03*
%TD*%
D15*
%TO.C,SW1*%
X119335000Y-71120000D03*
D16*
X116795000Y-71120000D03*
X114255000Y-71120000D03*
%TD*%
D17*
%TO.C,C5*%
X158474500Y-83820000D03*
X160549500Y-83820000D03*
%TD*%
D14*
%TO.C,R7*%
X156845000Y-100060000D03*
X156845000Y-98060000D03*
%TD*%
D29*
%TO.C,U1*%
X151130000Y-85725000D03*
X151130000Y-86995000D03*
X151130000Y-88265000D03*
X151130000Y-89535000D03*
X156080000Y-89535000D03*
X156080000Y-88265000D03*
X156080000Y-86995000D03*
X156080000Y-85725000D03*
%TD*%
D10*
%TO.C,C12*%
X130810000Y-87630000D03*
X130810000Y-82555000D03*
%TD*%
M02*
